<svg xmlns="http://www.w3.org/2000/svg" enable-background="new 0 0 436.9 499.6" viewBox="0 0 436.9 499.6" id="financial-calculation"><g><ellipse cx="231.2" cy="473.7" fill="#e3f2ff" rx="94.6" ry="25.9"></ellipse><path d="m198.6 454.4-.1-.9c.8-1.7.4-3.4.2-5.2-.5-5.3-1.7-10.4-2.4-15.6-.8-5.5-1.7-10.9-2.4-16.4-.1-1.2-.8-2.3-2-2.7-8-3.7-15.2-8.9-21.1-15.4-11.3-11.6-20-25.5-25.7-40.6-.3-.8-.7-1.6-1.1-2.4-2.1-1.8-2.4-4.4-3.1-6.8-.5-1.6-.6-2.7-2.9-2.8s-2.8-2.6-3.3-4.5c.1-1 0-2.1-.3-3.1 0-.5 0-1-.1-1.6.1.6 0 1.1.1 1.5v.3c.2.7.3 1.4.2 2.1-1.1 10-1.5 20.1-1.3 30.2.1 3.1.8 6.1.5 9.2-.1 1.1 0 2.4-1.4 2.9s-2.4-.4-3.1-1.4c-1.1-1.5-1.9-3.1-2.6-4.9-2.2-5.4-3.8-11-4.7-16.7 0-1-.1-1.9-.2-2.9 0-.4-.1-.8-.1-1.1 0-.3 0-.7.1-1-.1.3-.1.7-.1 1v1.2c.2.5.2 1.1.2 1.6.1 5.4-.7 10.8.2 16.3.5 3 1 6 1.7 9 .2.8.4 1.5.5 2.3.1.9.1 1.9-1 2.2s-1.6-.5-2-1.3c-.5-1-.9-2.1-1.4-3.1-2.5-7.6-2.1-15.5-1.6-23.2.2-3.4 0-6.9.7-10.2.1-.7.2-1.4.4-2.1.3-1 .9-1.7 2-1.8 1 0 1.9.7 2.1 1.6.3.7.4 1.5.6 2.3 1.3 8 2.8 16 5.5 23.1.1-9-.4-18.6.7-28.1.6-4.6.9-9.3 1.4-13.9.1-1.5.4-3 .7-4.4.2-1 1-1.7 2-1.8 1.2 0 1.7.8 2 1.7.2.8.4 1.7.5 2.6.5 3.5.5 7.1 1.1 10.1.2-14.8 4.1-29.7 4.3-45 .1-.7.3-1.4.4-2 .7-4.8.4-5.3-4-7.2-5.8-2.4-10.9-6.1-14.9-10.9-1.1-1.3-3.1-1.9-3.2-4-2-1.9-2.5-4.8-1.3-7.3.4-1 .5-2 .9-3 .7-2 1.5-2.3 3.3-1 .5.3.8.9 1.6 1 1.6-3.8 2.9-7.7 4-11.6 4.7-15.4 10.9-30.2 17.5-44.8 2.9-6.5 5-13.3 8.3-19.6 7.1-13.7 13.9-27.6 22.3-40.6 5.1-7.9 11.3-15 17.7-21.9 1.4-.6 1.4.4 1.6 1.3-.3 1.9-1.7 3.2-3 4.5-1.3 1.3-1.3 2.1.4 3 9.6 4.6 19.6 7.4 30.4 6.8 1.3 0 2.6-.6 3.3-1.7.6-1 1.3-1.8 2.1-2.6 2.7-2.3 3.3-2.4 5.9-.7 1 1.1 1.9 2.3 2.6 3.6 1.6 2.6 2.4 3 5.4 1.8 4.8-2 9.4-4.3 13.9-6.8 3.8-2.1 7.9-3.9 11.3-6.8 2.5-2.1 2.6-2 .8-4.7-.2-.4-.5-.7-.7-1.1-.4-.7-.9-1.5-.6-2.2.4-1 1.2-1.5 2.1-.3 11.2 14.5 20.8 30 30.4 45.5 8.8 14.1 15.5 29.3 21.3 44.8 6.6 17.5 11.9 35.4 16 53.6 1.4-.5 2.7-1.1 4-1.8.8-.5 1.8-.3 2.3.5.1.1.1.2.1.3.9 1.7 1.7 3.5 2.3 5.3.5 1.4-.1 2.9-1.3 3.7-1.4 1-2.9 1.9-4.4 2.9-1.4 1.5-3.1 2.7-5 3.3-4.3 1.9-8.5 3.9-12.7 5.7s-4.3 1.9-3.3 6.4c3 13.6 6 27.3 8.5 41 .8 3.5.5 7.2-.9 10.5-2 4.8-5.5 8.5-8.9 12.3-8.4 9.4-18.3 17.3-29.3 23.4-11.9 6.6-24.9 10.9-38.3 12.7-24.4 3.4-47.5-1-69.6-11.6-13-6.3-24.9-14.6-35.4-24.5 1.3 5.1 3 10 5.3 14.7 6.3 13.7 15.3 26 26.5 36.1 4.5 4.3 9.7 7.8 15.4 10.4 2.1.7 3.6 2.7 3.7 4.9 1.4 11.3 3.7 22.4 4.9 33.6.2 1.8.7 2.5 2.6 2.2 1.9-.2 3.9-.3 5.8-.1 2 .1 2.9-.6 3.7-2.5 4.5-10.8 8.9-21.6 15.1-31.6.7-1.1 1.1-2.6 2.8-2.4s2.1 1.5 2.5 2.7c4 11.8 8.9 23.3 11.1 35.7.6 3 .6 3 3.7 2.9 2.2-.1 4.4-.1 6.6 0 1.8 0 2.6-.6 3-2.5 2.6-12 6.2-23.9 10.6-35.4.5-1.5 1.3-2.7 3-3 7.8-1.4 14.5-5.3 20.7-9.9l5.4-3.9c1.5-1 2.3-2.8 1.9-4.6-.6-2.9-.3-5.8-.8-8.6s.7-5.7 1.6-8.5c.4-.9 1.1-1.6 2.1-1.9 9.1-3.4 18.2-6.6 27.3-9.7.3-.1.7-.1 1-.1 2 .4 2.1 1.5.9 2.9-5.1 2.5-10.5 4-15.7 6-3 1.1-6 2.1-8.9 3.2-3.4 1.2-4.8 3.3-4.6 7 .5 8.3 1.6 16.6 1.4 24.9-.1 2.9.6 3.4 3.5 2.8 10.6-2.3 21.4-3.9 32.1-6 1.9-.4 2.8-1.1 3-3.2 1-10.4 2-20.8 3.3-31.1.4-1.6.5-3.3.3-4.9-.1-1.3 0-2.6.1-3.9.2-1.1.5-2 1.8-2.3 3.8-.9 7.6-2 11.5-2.7 7.7-1.6 15.5-2.3 23.3-2.3 1.5.1 3-.5 3.9-1.6 2.4-2.6 4.9-5 7.6-7.3.3-.3.6-.6 1-.8 1.4-.9 2.4-.5 2.7 1.1.2 1.2.3 2.4.3 3.7 0 8.8.7 17.6 2.2 26.2.4 2.1.9 4.1 1.4 6.2.2 1 .2 1.8-.7 2.3s-1.3 1.6-1.8 2.5c-1.1 2.1-2.3 4.1-3.4 6.3-2.1 4.3-5.7 6.2-10.3 6.7-4.1.5-8.2.6-12.3.9-.7 0-1.4.1-2.1.2-9.6 2.8-19.5 4.5-29.2 6.7-9.3 2.1-18.8 3.4-28.2 5.3-2.2.5-4.5 1-6.7 1.4-.9.2-1.9.3-2.9.3-1.9 0-2.5-.4-3-2.2-.8-3.1-1.1-6.2-.8-9.4.2-1.1.2-2.3.1-3.4-.8-.3-1.1.4-1.6.7-3.7 2.6-7.3 5.2-11 7.8-4.2 2.9-9 4.9-14 5.9-1.6.2-2.8 1.3-3.3 2.8-4.3 12.3-8.3 24.6-10.4 37.5-.1.2-.1.3-.2.5-1.1.9-2.5 1.2-3.9.9-3.1-.4-6.2-.4-9.3 0-1.3.2-2.6 0-3.8-.6-.8-.6-1.2-1.5-1.3-2.5-2.2-12.3-6.7-23.9-11.1-35.9-3.2 5.3-5.7 10.8-8.3 16.2s-4.9 11.2-7.1 16.9c-1.1.7-2.4 1-3.8.8-3.5 0-7-.1-10.4.7-1.6.1-2.8.1-3.4-1.2z"></path><path fill="#ffa76c" d="M270 116c-.5-.3-1-.5-1.5 0-.7.8.4 1.3.4 2-2.1 2.6-5 4.1-7.8 5.7-8.1 4.4-16.8 7.5-25.8 9.2-2.3-1.7-2.5-1.6-5.2.6-4.4.7-8.6-.3-12.8-1.2-5.9-1.4-11.9-2.3-17.3-5.4-1.6-.9-3.3-1.7-4.1-3.5 0-.8-.1-1.6-1.3-1.4-2.9-4.7-5.1-9.8-6.3-15.2-1.9-8.3-1.1-17 2.4-24.8 2.4-5.8 5.3-11.5 7.8-17.3 1.5-3.3 2.5-6.8 2.8-10.4 1.7-.5 3 .6 4.4 1.3 4.5 2.2 9.2 4 14 5.3 1.3.4 2.6.5 3.9.7 2.6.5 3.1 1.3 2.4 3.9-1.3 4.4-3 8.6-4.7 12.9-1.7 4.1-2.6 8.4-2.6 12.8 0 1.9.5 3.7 1.5 5.3.6 1 1.4 1.9 2.7 1.9 2.1-.1 3.1 1.1 3.9 2.9.6 1.6 1.7 2.9 3 4 4.7 3.7 10.2 1.9 11.9-3.9.5-2.1.5-4.2 0-6.3-1.6-6.5-2.8-13.1-3.6-19.7-.4-3.4-.4-6.9.2-10.2.1-1.6 1.3-3 2.9-3.2 6-1.5 11.7-3.8 17.1-6.8.8-.5 1.7-1 2.7-.6.5 4.6 2.3 8.8 4.1 12.9 2.1 4.5 4.2 9 6.3 13.6 2.7 5.6 4.2 11.8 4.4 18 0 5.3-.9 10.5-4.4 14.8-.7.4-1.2 1.2-1.4 2.1zM331.9 371.2c.8-1.8.7-2.1-1.1-2.2-1.5-7-2.1-14.2-2.9-21.3-.4-3.5-1-6.9-1.2-10.4 2.5-4.6 1-9.3.1-13.9-2.7-13.6-5.4-27.2-8.6-40.7-.3-.8 0-1.7.8-2.1.1 0 .2-.1.3-.1 2.3-1 4.4-2.1 6.7-3.1 5-2.2 10-4.3 14.8-6.9 1.5 4.4 2.6 8.9 3.7 13.4 2 8.3 3.5 16.8 4.3 25.3.5 5.4 1 10.8 1.1 16.2 0 2.7.5 5.4.4 8.1-.4 9.3-.3 18.6-1.9 27.7-.1.8-.1 1.6 0 2.4-.7.5-1.1 1.3-1 2.2 0 1.4-.1 2.7-.2 4.1-.3.9-.5 1.9-.5 2.9-.5 3.6-2 6.9-4.2 9.8-1 1.3-2.4 2.3-4 2.8-.8.2-1.6 0-2.3-.4-3.2-3.7-3.9-8.4-4.7-13-.1-.1.1-.5.4-.8zM120.6 270.7c2.9 2.7 5.4 5.7 8.4 8.2 3.8 3.3 8.3 5.7 13.1 7 1.3.3 1.8.8 1.5 2.2-.4 2 0 4-.5 6-2-.1-2.6-1-2-3 .9-2.9.8-2.7-2-3.5-4.5-1.3-9.1-2.8-11.7-7.3-.5-.9-4.7-2.1-5.7-1.7-.4.2-1.1.4-1 .8.6 2.3-1.9 3.7-1.5 5.9.3 1.6-1.3 2.6-1.6 4.1-.3 2-.2 4-.8 6-.2.6-.1 1.4-.5 1.8-3.1 3-2.4 6.8-2.4 10.4 0 .3.1.6-.1.8-3.3 3.9-.8 8.2-.9 12.3 0 .7.2 1.5-.2 2.1-1.4 2-1.5 4.1-1.8 6.4-.4 2.8.7 5.1 1 7.5.3 1.1.3 2.3-.1 3.3-.5 1-.3 2.1.3 3 .5.6.8 1.4.7 2.2-1.1 3.3.2 6.7 0 10-.2 2 .5 4.1-.4 6.1-.1.2 0 .4.1.5 1.8 1.8 1.6 4.3 2.3 6.5s1.6 4.5.6 6.9c-.1.2-.1.5-.1.8 1.6 3.1 1.6 6.8 3.3 10.2.8-.9.3-2.4 1.5-2.7.6 1.2 1.2 2.5 1.7 3.8.1.4.6.7 1.1.6.4-.1.7-.6.5-1.1-.1-.7-.2-1.4-.4-2.1-2-7.7-2.7-15.6-2-23.5.1-1.1.2-2.3.2-3.4 1-.3.5.8 1 1 1.1 4.1 1.8 8.2 3.2 12.2.9 2.9 2.1 5.8 3.5 8.5.4.9 1 1.6 1.8 2.3 1.1.8 2.2.3 2.2-1 0-1.9-.1-3.9-.2-5.8-.8-11.2-.5-22.4.9-33.6l.3-1.5c1-.3.6.8 1 1 .2.6.4 1.2.6 1.7 1 2.9 2 3.2 4.6 1.4.8 3.8 2 7.4 3.5 11-.2.5-.4 1-.3 1.5 0 9.2-.1 18.5.1 27.7.1 4.3.1 8.6 1.1 12.8.2.8.1 1.5-.7 1.8-.7.3-1.5.1-1.9-.6-.4-.5-.7-1-1.1-1.5-.8-.8-1-2-2.1-2.8.8 5.5 2.1 10.9 3.8 16.2.3 1 .7 2 1.3 2.9.4.6.6 1.3-.1 1.9-.6.5-1.4.4-1.9-.1-.6-.4-1.1-.9-1.6-1.3-4.3-4-8-8.7-10.8-13.8-1.7-2.9-3.4-5.7-5.1-8.6-.4-.2-.7-.5-.8-.9.4.7-.3 1.7.3 2.6.8 4.5 1.9 8.9 3.3 13.2.2.7.5 1.3.6 2 .2.6-.2 1.3-.8 1.5-.6.2-1.3 0-1.6-.6-1.7-2.9-3.8-5.5-5.3-8.5-3.6-7.4-6.2-15.3-7.8-23.4-1.6-7.8-2.8-15.7-3.3-23.7-.8-8.9-1.1-17.9-.8-26.8.3-6.3 1-12.6 1.9-18.8 1.2-8.7 3.3-17.2 6.4-25.5.9-2.4 1.9-4.7 2.7-7.1.7-1.3 1.1-2.9 1.5-4.4z"></path><path d="M261 54.4c-4.5 2.5-9.2 4.6-14.1 6.4-1.9.7-3.8 1.3-5.8 1.7-1.1.1-2 1-2.1 2.1-.5 3.5-.6 7-.2 10.5.8 6.6 2 13.2 3.6 19.7.4 1.8.5 3.7.3 5.5-.3 3.1-2.4 5.8-5.3 7-3 1.3-5.7.4-8.1-1.6-1.7-1.4-3-3.2-3.8-5.3-.2-.9-1-1.5-1.9-1.3-2.6.2-4-1.4-4.9-3.6-1.1-2.6-.9-5.3-.6-8 .5-4.1 1.7-8.1 3.3-11.9 1.5-3.7 2.9-7.3 4-11.1.5-1.8.5-1.9-1.3-2.2-8.2-1.1-15.6-4.6-22.9-8.2-.5-.8-1.4-1.3-2-2-.6-.5-1.1-1.1-1.5-1.8-.8-1.1-.8-2.6 0-3.7s2-1.3 3.3-1.1 2.5 1.2 3.8 1.7c.5-.1.2-.4.1-.6-1.8-4-2.4-8-.9-12.2.6-1.6.7-1.9 2.4-1.4 2.5.7 5.2.9 7.7.4 4.4-1.1 8.6-1.2 12.7 1.2 2.5 1.4 2.7 1.4 2.8-1.5s.3-5.7-2.7-7.4c-.8-.4-1.3-1.2-1.4-2.1-.6-1.1-1.3-2.3-1.9-3.5-.8-1.6-.9-3.4-.4-5.1.2-1.2 1.1-2.1 2.3-2.3 1.2-.1 2.3.6 2.7 1.7.6 1.4 1.1 2.9 1.7 4.6.9-3.9.4-6.3-1.6-9-.3-.4-.7-.8-1-1.3-.9-1.4-.9-2.9-.1-3.9 1.1-1.1 2.6-1.5 4-1.1 1.7.7 3.1 2.1 3.8 3.8 1 2.3 1.5 4.8 1.6 7.4.1 1 .1 1.9.2 2.9 0 5.3.9 10.6.6 16.1 1.2-.1 2.3-.4 3.3-1 2.8-1.1 5.5-.1 8.3-.4 3.5.2 7 .1 10.5-.4l.8-.1c2.4-.2 2.8.3 2.2 2.7-.7 2.6-1.4 5.2-2 7.9-.5 1.7-.8 3.5-1 5.3 1-.4 1.8-.7 2.6-1 2.1-.6 3.4.7 2.9 2.9-.2 1.2-1 2.3-2 3-.6.7-1.3 1.2-2 1.6z"></path><path fill="#ffa76c" d="M243.4 458.7c1.6.4 3.2.5 4.9.3 2.1-.2 4.2-.2 6.3-.1 2 .1 4 .1 6 0 0 .3.1.7.1 1 .1 3 1.1 4.2 4.1 4.1 3.4 0 6.8-.2 10.2-.6 2.8-.3 5.6-.4 8.4-.3.5.4 1.1.5 1.7.4 3.3.2 6.6 1 9.6 2.5 3.4 1.4 6 4.2 7.1 7.6.9 2.5 1.3 5.1-1 7.3-1.1-1.1-.1-2.7-1-3.9-1.2-1.9-2.9-3.5-4.9-4.6-.8-.4-1.8-1.2-2.6-.3-.6.8-.5 1.9.1 2.7 1.3 2.1 2.1 4.6 3.8 6.5.2.2.4.6.4.9-2.5.1-4.8-.7-7.2-1.2s-4.1-.4-5.4 1.9c-.6 1.1-1.6 1.9-2.7 2.5-.9-.7-.7-1.7-.9-2.7-.5-3-1.6-5.9-3.4-8.4-.6-.9-1.5-1.9-2.8-1.4s-1.1 1.6-1.1 2.7c-.1 2.2 0 4.4-1.3 6.3-2-.1-3.9.3-6 .1-3.4-.2-6-1.8-8.4-3.8-1.6-1.5-3.4-2.7-5.4-3.6-2.6-1-5.1-.6-7.7.2-1.5.6-2.9 1.1-4.5 1.5-2.7.5-4.4-.4-5.4-2.9-1.7-4 .8-10.7 5.1-11.7.2-.1.5-.2.7-.4 1.3-.5 2.4-1.5 3.2-2.6z"></path><path fill="#030303" d="M121 196.4c1.2 1.8 2.2 3.8 2.8 5.9.3.8.3 1.7 0 2.6-.3 1.6-1.9 2.7-3.6 2.3-.3-.1-.6-.2-.8-.3-1.1-.5-2.1-1.3-2.8-2.3-.6-.8-1.1-1.6-1.7-2.4-.9-.1-1.3.8-2 1.1-1.8 1-4.3 1-5.5-.1-1.5-1.5-1.5-3.3-.9-5.1.3-1.1.9-2.1 1.8-2.9 1.3-.9 1.1-1.8.4-2.9-.8-1.3-1.2-2.8-1.3-4.3-.1-.6-.1-1.2 0-1.8.2-1.5.7-3 2.3-3.6s2.9 0 4.1 1c2.9 2.4 2.9 2.4 6.4 2 2.6-.3 4.2.5 5.3 2.5 1 1.5.7 3.6-.5 4.9-1.2 1.2-2.6 2.4-4 3.4zM347.3 88.1c0-.6.1-1.1.3-1.6.9-1.7 0-2.5-1.3-3.3-1.8-1-3.1-2.6-3.9-4.5-.6-1.5-.8-2.9.3-4.2 1-1 2.5-1.5 3.9-1.1 1.4.2 2.7 1.4 3.9 1.3s1.7-2 2.9-2.8c2.1-1.5 3.8-1.6 5.8-.3s2.4 2.7 1.7 5.3c-.3 1-.6 2-1.1 3-.4.8-.2 1.3.6 1.6 1.6.7 3 1.7 4.3 3 .7.7 1.2 1.5 1.4 2.5.4 1.6-.6 3.2-2.2 3.6h-.3c-1.9.3-3.9-.2-5.5-1.3-1-.6-1.5-.6-1.9.7-.3 1-1 1.9-1.9 2.4-2.6 1.8-5.2 1-6.3-2-.4-.6-.6-1.4-.7-2.3z"></path><path fill="#020202" d="M14.1 317.2c1.3-.7 2.7-1 4.2-.9 3.2.5 4.6 2.7 3.3 5.7-.6 1.6-1.8 2.9-3.4 3.6-1 .4-1.3 1-1 2 .2.8.4 1.7.4 2.6.2 1.6-.1 3.2-.8 4.6-1.4 3-4.2 3.3-6.3.7-.8-1.1-1.4-2.2-1.8-3.5-.2-.7-.6-1-1.4-.7-1.3.5-2.8.5-4.1 0-1.8-.5-3-2-3.2-3.8-.5-1.8.4-3.6 2-4.5 1.4-.8 3.5-1.2 4.2-2.4s-.8-2.9-.8-4.5c-.1-.8-.1-1.6 0-2.4.1-1.4 1.1-2.7 2.5-3.1 1.3-.4 2.7.1 3.5 1.2.7.7 1.2 1.5 1.6 2.4.3.9.7 1.8 1.1 3z"></path><path fill="#030303" d="M365.9 253.5c-.1-1 .8-2.4.1-3.4s-2.3-.6-3.4-1.2c-1-.5-2-1-3-1.6-1.2-.8-1.8-2.3-1.5-3.7.3-1.5 1.5-2.1 2.8-2.5 1.6-.3 3.2-.3 4.7.2 1 .3 1.5 0 1.5-1.1 0-1.2.5-2.2 1.3-3.1 2-2.2 4.4-2.2 6.3.2 1.1 1.3 1.6 3 1.5 4.6-.1 1.2.4 1.7 1.4 2 1.8.4 3.5 1.3 4.8 2.6.6.6 1.2 1.3 1.6 2.1.9 1.6.3 3.5-1.3 4.4-.3.2-.6.3-.9.3-1.2.3-2.4.4-3.7.1-1.4-.3-2.4-.2-2.6 1.5-.1.4-.2.7-.5 1-1.5 2.6-3.4 3.5-5.9 2.8s-3.2-1.9-3.2-5.2z"></path><path fill="#ffa76c" d="M225.6 23.7c1 1.2 2.2 2.3 3.6 3 .7.3 1.1.9 1.1 1.6.3 3 .2 5.9-.2 8.9-.7.3-1.1-.3-1.6-.7-3-2.3-6.6-3.3-10.3-3-1.3.1-2.6 0-3.9.1.7-2.4 2-4.7 3.7-6.5 1.8-2.2 4.6-3.4 7.6-3.4z"></path><path fill="#030303" d="M136 23.2c-.1-.8-.1-1.6-.1-2.4 0-.6.3-1.2 1.1-1.3s.9.5 1 1c.1.4.2.9.2 1.3.4 8.5 2.6 16.6 4.6 24.8 1.5 6.3 3.5 12.5 5.9 18.5 1.1 2.7 2.4 5.3 3.9 7.8.3.5.6 1.1.8 1.6.1.4-.1.9-.5 1.1-.3.2-.7.2-1-.1-.5-.5-.9-1.1-1.3-1.7-2-3.2-3.6-6.6-4.9-10.2-4.7-13-8-26.6-9.7-40.4z"></path><path fill="#040303" d="M51.9 251.4c0-2.9 1-4.2 3.4-4.7 2.6-.5 4.2.3 5.2 2.8.5 1.3 1 2.6 1.3 4 .9 3.5 2.1 6.9 3.6 10.1.3.8.6 1.6.8 2.5.6 2.3.1 3.5-1.9 4.6-2.3 1.2-4 1-5.5-.6-.4-.4-.8-.9-1.1-1.5-2.8-5-4.8-10.4-5.8-16v-1.2z"></path><path fill="#030303" d="M56.2 347.7c-2.1.1-4.3-.1-6.4-.6-2.3-.8-3.3-2.2-3.1-4.5s1.4-3.8 3.7-4c1.7-.3 3.5-.4 5.2-.3 3.5.2 6.8-.5 10.2-.8.3 0 .7-.1 1-.1 3.4-.3 4.8.6 5.4 3.2.6 2.9-.5 4.5-3.8 5.6-2.6.7-5.3 1.2-8 1.4-1.2-.1-2.5 0-4.2.1z"></path><path fill="#050404" d="M358.7 154c.4.1 1.2.2 1.9.4 4.9 1.4 9.5 3.6 13.8 6.4.8.5 1.5 1.2 2.2 1.9 1.8 1.9 1.9 3.4.6 5.4-1 2-3.5 2.7-5.4 1.7-1.5-.6-3-1.4-4.4-2.3-2.9-1.7-5.9-3.1-9-4.3-.9-.4-1.8-.8-2.6-1.3-2.1-1.3-2.5-2.5-1.8-4.6.7-2.4 2-3.4 4.7-3.3zM419.4 207.5c-.1.8-.3 1.6-.5 2.4-1.4 4.6-3.4 9-6 13.1-.6 1-1.3 1.9-2.2 2.6-1.8 1.6-3.4 1.7-5.3.5-1.9-1-2.7-3.2-1.9-5.2.6-1.7 1.5-3.4 2.5-4.9 1.6-2.8 3-5.7 4.1-8.8.4-.9.8-1.8 1.3-2.6 1.3-2.1 2.5-2.6 4.6-1.9 2.4.9 3.4 2.2 3.4 4.8zM429.9 283.3c0 2.6-2.1 4.6-4.7 4.6-.5 0-.9-.1-1.4-.2-1-.4-1.9-.8-2.8-1.4-3.5-2.1-7.2-3.9-11.1-5.4-.9-.3-1.8-.8-2.6-1.3-1.6-.7-2.3-2.6-1.7-4.2.6-2.3 2-3.6 4-3.6.7 0 1.4.1 2.1.3 5.5 1.5 10.7 3.9 15.4 7.2.7.6 1.4 1.3 2 2 .5.4.8 1.2.8 2z"></path><path fill="#040303" d="M316.7 97c0 1-.3 1.9-1 2.6-1.1 1.4-2.3 2.7-3.5 3.9-2.2 2.2-4.3 4.6-6.1 7.2-.6.8-1.2 1.5-1.9 2.2-1.8 1.8-3.2 2-5.1.7-2.2-1.4-3-3.2-2-5.3 2.9-6.1 7.3-11.4 12.9-15.2 2.9-1.9 6.7.4 6.7 3.9zM71.7 182.2c3 0 4.3 1 4.9 3.3.5 2.5-.3 4.2-2.8 5.2-1.5.7-3.1 1.2-4.7 1.5-3.1.8-6.2 1.9-9.1 3.3-.7.3-1.3.5-2 .7-3.4 1.1-5.2 0-6-3.4-.4-1.3 0-2.7 1-3.6.5-.5 1.1-.9 1.7-1.3 4.7-2.7 9.9-4.6 15.2-5.7.5.1 1.2.1 1.8 0z"></path><path fill="#030303" d="M98.6 131.7c0-3.4 1.2-4.8 4-5.1 2.2-.2 3.6.5 4.4 2.5.8 1.8 1.4 3.6 1.8 5.5.7 2.8 1.7 5.5 2.9 8.1.5 1.1.9 2.3 1.2 3.5.6 2.3 0 3.6-2 4.6-2.2 1.1-4 .9-5.5-.8-.4-.5-.8-.9-1.1-1.5-2.6-4.7-4.5-9.7-5.6-15 0-.7 0-1.2-.1-1.8z"></path><path fill="#030202" d="M72 375.6c.7 0 1 .6 1.3 1.1 3.9 7.6 9.3 14.3 14.8 20.7 4.8 5.7 10.3 10.8 16.4 15.2.8.5 2.3 1.1 1.4 2.3s-1.9 0-2.7-.5c-2.5-1.5-4.8-3.3-6.9-5.2-9.3-8.4-17.2-18.1-23.6-28.9-.7-1-1.2-2.1-1.6-3.3-.2-.6.1-1.2.6-1.4h.3z"></path><path fill="#030303" d="M303.4 13.8c-.1 1.1 0 2.3.2 3.4.1.5.1 1 .1 1.6 0 .7-.5 1.3-1.2 1.4h-.1c-.7.1-1.2-.4-1.3-1-.1-.6-.3-1.2-.3-1.8l-1.5-11.7c0-.1 0-.2-.1-.3-.1-.8.1-1.4.9-1.6.7-.2 1.4.3 1.5 1v.1c.2.8.4 1.7.5 2.6 0 1.3.3 2.5.7 3.7 1.4-2 2.7-3.9 4-5.8.6-.8 1-2.2 2.3-1.4s.4 1.9-.1 2.7c-1 1.6-2 3.1-3.1 4.7 1.3.9 2.6 1.8 3.9 2.6.5.3 1 .7 1.5 1.1.6.5.6 1.3.2 1.9-.4.5-1.1.6-1.7.3-1.1-.7-2.2-1.5-3.3-2.2s-1.6-1.6-3.1-1.3z"></path><path fill="#ffa76c" d="M249.2 32.7c-.5.3-1.2.4-1.8.3-3.9-.3-7.7.8-10.8 3.1.6-6.3.2-12.2.4-18.1.9 2.2 0 4.5.5 6.7.3.3.6.1.9 0 4.3-1.3 8 1.1 8.4 5.6.2 1.8.8 2.5 2.4 2.4z"></path><path fill="#040303" d="m318 6.5 3-.5c.4-.1.9-.1 1.3-.2.7-.1 1.4.3 1.6 1 .2.8-.4 1.3-1.2 1.5s-1.7.3-2.6.5c-.5.1-1 .2-1.5.4-1.1.4-.9 1.4-.7 2.2s1 .5 1.5.4c.9-.1 1.7-.4 2.6-.5.7-.2 1.5.2 1.7.9.2.7-.2 1.4-.8 1.7h-.1c-1.8.7-3.7 1-5.7.8-1.2-.2-2-1.3-2-2.5-.1-3-.1-6 0-8.9 0-1.1.7-2 1.7-2.4 1.7-.8 3.5-1.1 5.4-.8.8.2 1.6.5 1.6 1.5s-.9 1.1-1.8 1.1c-.5-.1-1-.1-1.6 0-2.5.7-3.1.1-2.4 3.8z"></path><path fill="#040404" d="M425.3 400.7c-.1.6-.4 1.2-.9 1.6-5.7 7.2-12.6 13.3-20.3 18.1-1.4.9-2.9 1.6-4.5 2.1-.7.3-1.4.5-1.8-.4s.3-1.2 1-1.5c8.6-3.9 15.2-10.2 21.5-17 .8-.9 1.6-1.9 2.4-2.8.3-.4.7-.8 1.1-1 .4-.2 1-.1 1.3.4.2.2.2.4.2.5z"></path><path fill="#050505" d="m284.6 21.5 3.9-.7c.6-.2 1.2-.2 1.8 0 .5.1.9.5 1 1.1.2.6-.2 1.3-.8 1.4-2.2.5-4.4 1-6.7 1.2-1 .1-1.9-.7-2-1.8-.1-.4-.1-.9-.1-1.3.1-4-.3-7.9-.5-11.8 0-.8 0-1.6.2-2.3.1-.5.6-.9 1.2-.9s1 .4 1.1.9c.1.4.1.9.1 1.3.1 4 .7 8 .6 12.1 0 .3.1.6.2.8z"></path><path fill="#030303" d="M376.4 155.6c-2.7-.1-4-1.5-3.8-4.2.2-2.6 2.3-4.5 4.9-4.5 2.6 0 4.5 1.6 4.5 3.8-.1 2.5-2.8 5-5.6 4.9z"></path><path fill="#030202" d="M43.2 254.2c2.7 0 5.4 2.2 5.4 4.4 0 1.9-2.6 4.1-4.8 4.1-2.7-.1-4.9-2.1-5.1-4.7 0-2 2-3.7 4.5-3.8z"></path><path fill="#030303" d="M424.4 269.3c.1-2.6 2.3-4.7 5-4.6 2.5.1 4.2 1.6 4.3 3.8 0 2.6-2.7 5.1-5.4 5s-3.9-1.5-3.9-4.2z"></path><path fill="#020202" d="M85.5 137.9c0-1.5 1-2.7 2.3-3.2 1.5-.6 3.1-.6 4.6.1 2 .9 3.1 3 2.7 4.6-.9 2.6-3.7 4-6.3 3.1-2-.6-3.3-2.5-3.3-4.6z"></path><path fill="#030303" d="M408.8 288.7c.1 2.8-1.6 4.8-4.1 4.9-2.3 0-4.2-1.8-4.2-4.1v-.1c0-2.2 1.8-3.9 4.4-4 2.4 0 3.9 1.2 3.9 3.3z"></path><path fill="#040404" d="M357 171c0 2.7-1.8 4.7-4.2 4.8-2.3 0-4.1-1.8-4.1-4.1v-.1c0-2.3 1.9-4 4.6-4 2.4 0 3.7 1.3 3.7 3.4z"></path><path fill="#040303" d="M126.1 141.1c-.1 2.2-1.7 4-3.9 4.2-2.2.1-4.9-2.4-4.8-4.4.1-1.7 2.7-3.9 4.7-3.9 2.1.2 3.8 2 4 4.1z"></path><path fill="#020202" d="M79.3 261c.1 2.2-1.6 4.1-3.8 4.3-2.2.1-4.7-2-4.8-4s2.4-4.1 4.7-4.1c2.1 0 3.8 1.7 3.9 3.8z"></path><path fill="#060606" d="M436.9 398.3c-.8 4.3-2 8.5-3.6 12.5-.8 2.2-1.7 4.4-2.8 6.5-.3.6-.8 1.2-1.2 1.7-.3.3-.7.3-1 .1-.4-.2-.6-.6-.5-1.1.1-.4.2-.7.4-1 2.7-5.2 4.6-10.8 5.9-16.5.2-.9.5-1.9.8-2.8.1-.6.7-1 1.3-.9h.1c.8.4.6 1.1.6 1.5z"></path><path fill="#050505" d="M296.7 20.6c0 .9-.1 1.7-1.1 1.8s-1.5-.6-1.6-1.4c-.4-2.9-.8-5.7-1.1-8.6-.2-2-.1-4-.8-6-.3-.9-.1-1.6.9-1.8.8-.2 1.5.3 1.7 1v.2c.2.9.4 1.9.5 2.8.3 3.7.6 7.3 1.3 11 .1.4.2.7.2 1z"></path><path fill="#080808" d="M159.7 65.3c.1.5-.2 1-.7 1.1-.4.1-.9-.1-1.1-.5-.4-.9-.8-1.8-1.1-2.7-1.3-4.3-2.2-8.7-3.8-12.8-.2-.6-.4-1.3.3-1.6.9-.4 1.3.2 1.6.8.3.6.5 1.3.7 2 1.2 4.1 2.4 8.2 3.7 12.3.2.5.3.9.4 1.4z"></path><path fill="#080707" d="M91.4 385.8c.6 0 1.1.3 1.4.7 3.3 3.2 6.7 6.4 10 9.6.3.3.6.6.8 1 .3.4.3.9-.1 1.2-.3.3-.8.4-1.2.2-.5-.3-1-.7-1.4-1.1-3.1-3-6.2-6-9.2-8.9-.5-.4-.9-.9-1.1-1.4-.2-.4 0-1 .4-1.2.2-.1.3-.1.4-.1z"></path><path fill="#fff" d="M124 392.9c-.9-1.1-.3-2.5-.9-3.7.7.5 1.2 1.2 1.5 2.1-.6.3-.5 1-.6 1.6z"></path><path d="M204.9 46.8c.4.1.5.5.3.7s-.4.1-.4-.2l.1-.5z"></path><path fill="#ffa76c" d="M198.6 454.4c.9.5 2 .6 3 .3 3.1-.9 6.4-.7 9.6-.6 1.6.1 3.1-.1 4.6-.5 1.5.9 2.5 2.4 2.8 4.1 1.3 2.2 3.5 3.6 4.9 5.8 1.1 1.8 1.9 3.7 2.4 5.8.6 3.1-1.3 6.1-4.3 6.8-1.2.3-1.9.7-2.2 1.9-.2.6-.6 1.1-1.2 1.3-2.8 1.1-5.6 1.8-8.6.6 1.1-1 2.5-.5 3.8-.8s2-.9 1.9-2.3c0-2-.3-4-.9-5.9-.8-2.5-2.3-2.8-4-.9s-2.3 4.7-2.7 7.3c-.2 1.3 1.3 1.6 1.4 2.7-1.5.3-3 .2-4.4-.3-1.9-.7-2.5-1.5-2.5-3.5 0-.9.1-1.7.3-2.6.4-1.7-.2-2.3-1.9-1.8-3.1.9-6.1 2.2-8.9 3.9-1.5.8-2.9 1.7-4.3 2.5-1.1.6-2.3.9-3.5.9-.6-1.9.4-3.6.6-5.3.3-1.6.3-3.3-.1-4.9-.3-1-.6-2.1-1.8-2.4s-2 .6-2.6 1.4c-2.2 3.1-4 6.6-5.3 10.2-.1.3-.2.7-.4.9-1.2-.7-2-2-2-3.5-.4-2.4-.1-4.8.8-7 1.4-3 3.4-5.8 5.7-8.1 1.8-1.9 4.6-2.5 7-1.5 2 .6 4 1.1 6.1 1.4 1.1.2 2.3-.2 3.1-1 1.3-1.6 2.1-3.5 3.6-4.9z"></path><path fill="#010101" d="M174.2 478.6c-.1-.7-.6-1.4-.1-2.2 1.5-2 2.2-4.4 3.4-6.5.6-1.1 1.3-2.1 2.1-3 .9-.9 1.9-2 3.4-1.5s1.8 1.8 2.1 3.1c.3 1.7.3 3.3 0 5-.3 1.8-.7 3.6-1.3 5.4-.5.7-1.4 1.1-2.3 1-2.5.2-5-.2-7.3-1.3zM271.7 481.9c.3-2.3.5-4.7.5-7.1 0-1.2.2-2.4 1.5-2.9 1.2-.4 2.6.1 3.2 1.2 2.3 2.6 3.7 5.8 4.1 9.2.1 1 .2 2.1.3 3.1-1.2.8-2.4.4-3.5-.1-2.1-.9-4.2-2.1-6.1-3.4z"></path><path fill="#020101" d="M209 479.7c-2.3-.6-2.5-.6-2.1-2.9.3-2.8 1.3-5.5 3.1-7.7 1.9-2.3 3.8-2 4.9.8 1 2.6 1.1 5.3 1.3 8 .1.8-.6 1.2-1.3 1.4-1.7.4-3.5.5-5.2.4h-.7zM296.5 482.3c-1.1-.6-1.9-1.5-2.3-2.7-.6-1.3-1.2-2.5-1.9-3.7-.4-.7-.7-1.4-1-2.1-.5-.9-.2-2.1.7-2.7.7-.4 1.5-.3 2.1.1 2.7 1.2 5 3.2 6.6 5.8.8 1.2 0 2.6.1 3.9-.9 2-2.6 1.6-4.3 1.4z"></path><path fill="#fff" d="M273.5 124.3c2.9 3.6 5 7.4 7.5 11 6.4 9.6 12.6 19.2 18.6 29.1 8.1 13.3 14.3 27.5 19.8 42.1 6.5 17.1 11.8 34.6 15.8 52.4.5 2.2.5 2.2-1.5 3.1-4.8 2.1-9.4 4.7-14.1 7l-4.2 2c-.8-.4-.8-1-.9-1.6-2.4-8-3.7-16.2-5.5-24.4-2.4-11.3-6.3-22.1-10-33-2.2-6.6-4.4-13.4-7.1-19.8-1.4-3.3-3-6.5-4.8-9.6-1.6-2.4-2.9-5-3.8-7.8-.1-.3-.2-.5-.3-.7-.3-.8-.8-1.6-1.8-1.1s-.4 1.3-.1 2c1 2.7 2.2 5.4 3.7 7.9 2.9 4.8 5.3 9.9 7.1 15.2 4.7 13 9 26 13 39.2 2 6.6 3 13.4 4.4 20.1 1.6 7.5 3.6 14.8 6 22.1 1.4 4 1.9 8.2 2.8 12.3 2 8.9 3.7 17.9 5.6 26.8.3 1.3 0 2.6-1 3.5-4.5 5-9.4 9.6-14.6 13.8-12.7 10.3-26 19.5-40.6 26.8-7.8 4-16.3 6.7-25 7.9-7.8 1-15.7.6-23.3-1.1-19.2-4-37.4-11.8-53.6-23-7.5-5.2-14.2-11.4-20.1-18.4-2.2-2.2-3.1-5.4-2.5-8.5 1.3-7.5 2.2-15.1 2.6-22.8.1-4.4.5-8.8 1.2-13.1 3.8-22.6 8.7-45 16.4-66.6 3.7-10.2 8.1-20.2 13.2-29.8.3-.6.7-1.2.9-1.9s.5-1.4-.4-1.8c-.7-.3-1.2.2-1.5.7-.6.9-1 1.8-1.5 2.8-8.7 16.8-15.5 34.6-20.1 53-2.3 9.6-5 19-6.6 28.7-.4 2.1-.6 4.2-.9 6.3-.2 1.6-.4 1.7-1.8 1-3.1-1.4-5.9-3.1-8.6-5.1-2.9-2.3-5.5-4.9-8.2-7.5-.8-.6-1-1.7-.5-2.5 6.7-20.2 14-40.3 23-59.6 1-2.2 1.9-4.5 2.8-6.8 3.6-9.8 8.9-18.7 13.7-27.9 4.3-8.3 8.7-16.5 14.1-24.1 2.1-3.1 4.4-6.1 6.9-9 1.5-1.8 1.6-1.8 3.6-.8 5.9 3 12.1 5.2 18.5 6.6 4.6 1 9.3 1.8 14.1 1.2 1.3-.2 2.6.3 3.4 1.3 3.2 3.6 3.3 3.6 2 8.2-2.9 10.6-6 21.1-8.2 31.9-1.1 4.9-2 9.8-2.5 14.8-.2 2.2.2 4.4 1.3 6.4 1.9 3.3 3.9 6.4 5.9 9.7.4.6.8 1.1 1.3 1.7 2.8 3.5 4.3 3.5 6.9 0 2-2.7 3.9-5.4 5.9-8.1 1.3-1.8 1.9-4 1.7-6.2-.3-9-1.4-18-2.5-27-.9-7.5-1.6-15-2.9-22.5 0-.2 0-.4-.1-.5-1.2-2.9-.5-5.1 2-7 .8-.6 1.4-1.4 2.7-1.4 1.9-.2 3.8-.7 5.5-1.6 6.9-3.2 13.7-6.7 20.3-10.6 2.2-1.7 4.4-3.6 6.9-5.4z"></path><path fill="#fff" d="M326.8 337.3c.6.3.8.8.8 1.5.8 6.5 1.6 13 2.2 19.5.3 2.8.8 5.5 1.3 8.3.3.8.2 1.7-.3 2.5-9 3.2-18 6.5-27 9.6-1.5.4-2.7 1.6-3 3.2-.9 2.8-1.1 5.7-.8 8.5.5 2.9.5 5.8.7 8.7.2.9-.1 1.8-.8 2.3-6.5 4.6-12.6 9.9-20.2 12.8-2.6 1-5.3 1.8-8.1 2.3-.9.1-1.6.7-1.8 1.5-4.2 11.3-7.7 22.9-10.5 34.7-.3 1.5.1 3.6-1.3 4.4-1.1.6-2.9.1-4.4.1-2.4-.1-4.7 0-7.1.3-1.2.3-1.6-.3-1.7-1.3-2-13.3-7.4-25.6-11.6-38.2-.1-.3-.2-.7-.4-1-.3-.6-.6-1.3-1.4-1.4s-1.2.6-1.6 1.2c-1.3 2.3-2.7 4.5-3.9 6.9-4.5 8.4-8.2 17.3-12 26.1-.3.9-.5 1.7-.6 2.6-4.1.2-8.2-.3-12.4.7-.1-6.1-1.2-11.9-2.1-17.6l-3-19.8c-.1-1.8-1.3-3.3-3-3.8-7.1-3-13.2-7.7-18.6-13.1-12.5-12.2-22-27.1-27.9-43.5-.8-2.3-1.5-4.7-1.9-7.1.9.4 1.7 1 2.3 1.8 16.2 15 34.7 26 56 32 12.6 3.7 25.7 5.2 38.8 4.3 34.4-2.4 62-17.4 82.9-44.9 1-1.2 1.8-2.6 2.4-4.1z"></path><path fill="#ffa76c" d="M120.5 383.7c-.5.7-.5 1.5-.2 2.2.2.5.3 1.3-.5 1.5s-1.1-.3-1.4-.9-.9-1.3-.9-1.9c.1-1.8-1.7-3.1-.9-5 .2-.5-.5-.9-.8-1.3-1-1.1-1.1-2.6-.5-3.9 1-1.8.1-3.6-.6-5.3-.5-1-1-2-.6-3.2s-.4-2-1.3-2.7c-1-.5-1.4-1.7-.9-2.7.1-.2.2-.3.3-.5.7-1 1.1-2.1 0-3.3-.6-.8-.2-1.7.3-2.5.7-.8.6-2-.2-2.7-.1-.1-.3-.2-.4-.3-.9-.6-1.1-1.2-.3-2.1 1.4-1.7 1.5-4.2.2-6-.9-1.2-1.2-2.3-.3-3.6.6-.7.6-1.7.1-2.4-.4-.4-.6-1.1-.3-1.7.3-.5.1-1.1-.4-1.4-1.4-1-1.2-2.2-.5-3.5.7-1 .7-2.4-.1-3.4-.8-1-.3-2 .6-2.8 1.7-1.3 1.9-2.9 1.3-4.9-.4-1.3-1.1-2.8.1-4.2.4-.5-.1-1.1-.4-1.6-1.1-1.6-1-3.1.5-4.2 1-.6 1.4-1.9.8-2.9-.3-.7-.3-1.6 0-2.3.6-1.1.9-2 0-3.1-.5-.7-.2-1.5.7-2 2.7-1.8 2.7-4.7 3-7.4.2-1.8-.1-3.7 1.5-5 .4-.4.6-.9.4-1.5-.5-1.5-.5-2.8 1.3-3.6.7-.3.2-1.1-.2-1.6-.7-.9-.2-1.4.7-1.8 1.4-.5 2.7-1.4 4.1.1.6.5 1.4.5 2 .2 1.2-.4 1.7 0 1.5 1.3-.1.4 0 .7.3 1 2 1.4 3.1 3.9 5.8 4.3 1.2.3 2.3.8 3.4 1.4.6.3 1.3.9 2 .5 1.7-.8 2.4.8 3.3 1.5.7.6.1 1.3-.5 2-1.4 1.5-1.1 2.6.9 3.5.1 4.6-.2 9.1-.9 13.6-1.2 9.3-2.5 18.6-3.3 28-.2 2.1.2 4.2-.9 6.4-.8-2.5-1.2-5.1-1.3-7.6-.2-2-.3-4-.5-6l-.3-1.5c-.2-.7-.6-1.3-1.5-1.2-.6.1-1.1.6-1.2 1.2-.2 1-.4 2.1-.5 3.1-1.1 12.2-2.8 24.4-2.4 36.8.1 3.2.2 6.5.3 9.9-.9-.4-1-1.3-1.3-2-2.1-5.6-3.7-11.3-4.7-17.2-.5-2.8-1-5.5-1.5-8.3-.1-.5-.2-1-.4-1.5-.2-.7-1-1-1.7-.8-.4.2-.7.5-.8.9-.2.7-.3 1.4-.4 2.1-.9 8.3-1.2 16.7-.9 25-.3 3 .8 5.8 1.3 8.8z"></path><path fill="#fff" d="M246.9 383.4c3-4.8 2.7-6.9-1.9-11 2.5-.6 4.8-1.1 7.1-1.6 8.9-2.2 17.1-6.2 25-10.9 11.7-6.8 22.8-14.5 33.2-23.2 4.9-4 9.5-8.3 13.8-12.9.7.1.7.7.8 1.2.5 2.7.8 5.4 1.4 8 .2.9 0 1.9-.5 2.7-15.3 22.3-35.7 37.3-61.8 44.6-3.5 1-7.2 1.8-10.8 2.3-2.1.6-4.2.8-6.3.8zM142.7 327.9c10.9 14 24.9 23.9 40.6 31.5s31.8 12.8 49.2 14.1c-2.7 5.1-2.6 6.3 1.2 10.6-3.1.2-6.1 0-9.2-.3-18.1-1.7-35.5-7.4-51.1-16.7-9.8-5.8-18.9-12.8-27.2-20.7-2.1-2-3.4-4-3.5-6.9-.1-3.8-.4-7.5-.7-11.2l.7-.4zM331.9 371.2c.4 3.9 1.7 7.4 2.9 11.1.4 1.2 1.8 1.7 1.8 3.1 0 1.8-.8 3.6-.4 5.4 0 .7.2 1.4.5 2 .4.5.7 1.1 1.4.9s.8-.8.9-1.4c.3-2.3.1-4.7-.9-6.9 5.2-2.5 6.6-7.5 8-12.5 1.3.4.6 1.4.5 2.1-.1 4-.9 8-1.2 12-.6 6.6-1.4 13.3-2 19.9-.2 2.3-.2 2.3-2.5 2.8-8.3 1.8-16.7 3.1-25.1 4.7-3.2.6-6.4 1.3-9.5 1.9-2.2.4-2.4.3-2.8-1.9-.4-1.9-.5-3.8-.4-5.8.4-4.4-.3-8.8-.5-13.1-.1-2.7-.5-5.4-.7-8.1-.1-2 .8-3.8 1.2-5.6.1-.6.7-.8 1.2-1l27.3-9.6c.1-.1.2-.1.3 0z"></path><path fill="#feffff" d="M345.4 408.7c.1-1.6.2-3.1.4-4.6 1.2-12.1 3.1-24.1 3.8-36.4.1-1.3.3-2 1.8-2.4 9.9-2.7 20.1-4.1 30.4-4.3h1c1-.1 1.4.4 1.3 1.4-.2 3.1-.4 6.1-.5 9.2-.4 7.9-.5 15.8-1.5 23.6-.1 1.4-.9 2.6-2.1 3.3-5.1 3.1-10.7 5.3-16.6 6.4-5.4 1.1-10.8 2.4-16.2 3.5-.6.2-1.1.2-1.8.3z"></path><path fill="#38a1fc" d="M384.2 395.8c.4-3.9.8-7.2 1-10.6.5-7.4.8-14.9 1.1-22.3 0-1.1.5-2.2 1.3-3 2.8-2.9 5.7-5.7 8.7-8.3.1 3.4.2 6.4.3 9.3.3 8 1.4 15.9 3.3 23.6.6 2.3.6 2.3-1.5 3.4-4.7 2.4-9.3 5-14.2 7.9z"></path><path fill="#fff" d="M235.3 132.8c.2-1.2 1.3-1 2.1-1.2 4.9-1 9.7-2.4 14.3-4.3 5.5-2.3 10.9-4.8 15.6-8.6.5-.3 1-.6 1.6-.8.7 1 1.4 2 2.2 2.9s.8 1.7-.3 2.6c-2 1.6-4.2 3.2-6.4 4.5-6.2 3.4-12.4 6.8-18.8 9.8-.6.3-1.1.5-1.7.7-4 1.6-4.3 1.5-6.6-2.3-.7-1.1-1.3-2.2-2-3.3zM195.9 123.2c3.1 2.3 6.5 4.1 10.2 5.4 5.9 1.7 11.9 3.1 17.9 4.1 1.4.1 2.8.2 4.2.1.7 0 1.4-.2 1.9.5-.2.2-.3.4-.5.6-1.8 3.4-4.5 4.6-8.3 4.4-2.9-.1-5.8-.4-8.6-.8-7.7-1.4-15.2-4-22.1-7.8 1.9-2 3.7-4.2 5.3-6.5z"></path><path fill="#fefefe" d="M317.5 279c-2.5-5.1-2.5-5.1 2.1-7.4 7-3.5 14.1-7.1 21.1-10.6 1.8-.9 1.9-.9 2.6.9 1.7 3.7 1.7 3.7-1.9 5.8-6.2 3.6-13 6.1-19.4 9.2l-4.5 2.1zM144.1 284.1c-5.1-1.2-9.8-3.6-13.8-7.1-2.9-2.5-5.6-5.1-8.1-7.9-1.3-1.3-1.8-2.7-1.1-4.5.4-1.1.7-2.1.9-3.2 1.2.2 1.7 1.1 2.4 1.8l5.4 5.4c3.9 4 8.6 7.3 13.8 9.5 1.3.6 1.8 1.2 1.3 2.6-.3 1.1-.5 2.3-.8 3.4zM230.1 206.4H226c-.6 0-1.3.1-1.7-.5-1.7-2.3-3.4-4.5-3.7-7.4-.2-1.6 0-1.8 1.5-1.7 5.2.3 10.5.9 15.6 1.9 1 .2 1.2.5 1.4 1.5.4 2.6-1 4.3-2.4 6.1-.4.6-1.1.4-1.7.4-1.5-.1-3-.2-4.9-.3zM238.8 196c-5.3-.9-10.6-1.5-16-1.7-1.9-.1-1.9-.1-1.6-2l.3-1.8c.2-1.5 0-3.4 1-4.2 1.3-1.1 3.2-.3 4.8-.1 3.2.4 6.4 1.1 9.6 1.6 1 .2 1.5.6 1.6 1.7 0 2.1.1 4.2.3 6.5zM239.8 373.7c1.9 0 3.7.6 5.2 1.8 1.7 1.2 2.1 3.6.8 5.3-.2.3-.5.6-.8.8-2.9 2.4-8.4 2.1-10.9-.6-1.8-1.9-1.6-4 .4-5.7 1.5-1.2 3.4-1.8 5.3-1.6z"></path><path fill="#fff" d="M223.1 183.4c0-2.3.9-4.3 1.2-6.3.1-.8.7-.9 1.4-.8 3.5.5 6.9 1 10.4 1.4.9.1 1.1.7 1.2 1.4.2 1.9.4 3.8.7 6-5.1-.7-9.9-1.7-14.9-1.7z"></path><path fill="#38a1fc" d="M379.4 401.4c5.8-3.4 11.3-7.2 17.9-10.5-1.6 3.5-3.2 6.4-5.5 8.7-1.8 1.8-4.4 1.6-6.6 2.1-.7.1-1.4.1-2.1.1-1.3.1-2.6.9-3.7-.4z"></path><path fill="#fff" d="M236.7 174.9c-1.4.3-2.6-.2-3.8-.3-2.2-.2-4.4-.5-6.5-.7-.9-.1-1.3-.5-1-1.4v-.3c.7-4.1.8-4.2 5-3.9 1.5.1 3 .3 4.5.3.7-.1 1.3.5 1.3 1.1v.1c.2 1.7.3 3.2.5 5.1zM233 133.2l3.7 6.1c0 .1.1.1.1.2.3 2.5-2 3.2-3.2 4.6-.8 1-1.6 0-2.1-.6-1.1-1.2-2.1-2.3-3.2-3.6 1.8-1.9 2.7-4.5 4.7-6.7zM235.6 165.8h-7.3c-.7 0-1.2-.3-.9-1.1.1-.3.1-.5.2-.8 1.1-4.6 1.3-4.7 6-4.4 1.2.1 1.5.6 1.6 1.6l.4 4.7zM232.1 146.8c1.6 3.3 2 6.6 2.4 10.1-1.7.2-3.3.2-5 0l2.6-10.1zM226.2 209c2.8-.1 5.5 0 8.3.5-1.3 1.8-2.4 3.3-3.6 4.8-.2.3-.6.4-.9.3-.1 0-.1-.1-.2-.2-1.4-1.7-2.9-3.2-3.6-5.4z"></path><path fill="#e5d4c9" d="M346.7 375c-.3-.7.1-1.5-.5-2.1 0-1 .4-1.9.9-2.7.2 1.6.1 3.2-.4 4.8z"></path><path fill="#38a1fc" d="M379.4 401.4c1.1.8 2.5 0 3.7.5-1.3.6-2.7.4-4 .5-.3 0-.6-.2-.5-.4s.5-.4.8-.6z"></path><path fill="#ffa76c" d="m135.1 341.1-1-1c-.1-.7-.1-1.4.1-2.1.1-.3.3-.3.5-.1.4 1.1.5 2.2.4 3.2zM122.5 359.1l-1-1c-.1-.5-.1-1.1 0-1.6.2-.3.3-.3.5 0 .4.8.6 1.7.5 2.6z"></path><path fill="#ffa76c" d="M134.7 338c-.2 0-.3.1-.5.1v-2c.5.5.6 1.2.5 1.9zM122 356.4h-.5v-1c.1-.3.3-.3.4 0l.1 1z"></path><path d="M121.9 355.4h-.4c0-.3-.2-.6.3-.7l.1.7z"></path><path fill="#070808" d="M338.2 385.4c1 .5 1.7 1.6 1.6 2.8v4.5c0 .9-.1 1.8-1.2 2.1-1 .2-2-.3-2.4-1.2-1-1.9-1.2-4-.7-6.1.1-.8.5-1.5 1-2.1.6-.2 1.2-.2 1.7 0z"></path><path fill="#ffa76c" d="M121.4 393c0 .7-.3 1.4-1.2 1.3-.6-.1-1.3-.3-1.3-1.1s.5-1.2 1.3-1.3 1.2.1 1.2 1.1zM237.5 63.3c-1.6 9.9.4 19.2 2.4 28.6.4 1.7.8 3.4 1.1 5.2.4 2.9-.2 5.6-2.6 7.6-1.8 1.7-4.5 2-6.6.7-2.1-1.3-3.8-3.2-4.6-5.6-.3-.7-.3-1.1.3-1.6 4.5-3.3 5.1-8.1 4.9-13.2-.2-5.1-.7-10.1-1.6-15.1-.3-1.8-.3-3.7.2-5.5.1-.7.7-1.2 1.4-1.1h5.1zM263.4 48.9c-.3 2.7-2.3 3.6-4 4.4-3.3 1.6-6.7 3.2-10 4.7-7 3.1-14.8 4.1-22.4 3-8.4-1.1-16.1-4-23.6-7.8-1.3-.6-2.4-1.5-3.4-2.5-.8-.8-1.5-1.6-.9-2.8.4-.8 1.6-.8 3.1.1.4.2.7.5 1.1.7 6.6 4.3 14.1 6.9 21.9 7.5 1.1.1 2.3.3 3.4.6 3.6 1 7.4 1 10.9-.1 3.5-1 6.9-2 10.4-2.8 3.3-.8 6.5-2.1 9.6-3.6 1.1-.8 2.5-1.3 3.9-1.4z"></path><path fill="#ffa76c" d="M219.7 91.1c.1-4.3 1-8.5 2.6-12.4 2-4.9 3.7-9.8 5.2-14.9.2-.7.5-1.1 1.3-.8s.6.6.5 1.2c-.4 2.8-.3 5.6.2 8.4.9 5 1.3 10.1 1.2 15.2 0 2.4-.7 4.7-1.9 6.7-.6 1-1.4 1.8-2.4 2.4-2.7 1.5-5 .7-6.1-2.2-.5-1.2-.7-2.4-.6-3.6zM233.2 41c-1.1-.8-1.7-2.2-1.5-3.5.6-6.7.1-13.5.5-20.3.3-3.1-.7-6.2-2.8-8.5l-.2-.2c-.4-.7-1.3-1.4-.4-2.3.8-.7 2.1-.7 2.9.1 1.2 1 2.1 2.4 2.4 4 .6 2.1.9 4.3 1 6.5.3 6.8.1 13.7-.4 20.5 0 1.4-.6 2.7-1.5 3.7zM213.9 45.4c.8-2.4 2.4-4.5 4.5-5.9 3.5-2 7-1.1 9 2.4.3.5.4 1 .7 1.4 1.3 1.9-.3 3.1-1 4.4s-1.9.7-2.8.5c-2.8-.4-5.5-1-8.2-1.8-.8-.1-1.5-.5-2.2-1zM243.2 38.4c2.7.1 5.1 1.5 6.6 3.7.5.6.3 1.1-.3 1.5-3.4 2.6-7.3 3.6-11.4 4.3-1.1.2-1.4-.5-1.2-1.4.3-2.1 1-4.1 2.1-5.9.9-1.5 2.5-2.4 4.2-2.2z"></path><path fill="#fff" d="M238.8 54.8c-4.9 2.2-9.4.2-14.2-.6 2.3-2.3 3.4-5.2 5.3-7.6 2.8-3.5 2.9-2.8 4.7.4.7 1.3 1.2 2.7 1.9 4s1.5 2.5 2.3 3.8z"></path><path fill="#ffa76c" d="M229.9 25.1c-2.5-1.4-4.3-3.8-5-6.6-.1-.6-.2-1.2-.1-1.8 0-.8.2-1.7 1.1-1.8s1 .9 1.2 1.5c.8 2.3 1.4 4.7 2.9 6.7.4.4.3 1.1-.1 2zM260.4 34.2c-4.4.4-8.8.6-13.3.5-1 0-2.1.1-3.1.3-4.4.5-7.4 3-9.3 6.9-.6 1.3-.3 2 .9 2.7.4-1.5 1-2.9 1.7-4.3 1.2-2.4 3.8-3.9 6.5-3.5 2.8.2 5.3 1.6 7 3.7.6.8 1 1.4 2.3.9.8-.3.9.5.7 1.2-.3.5-.7 1-1.3 1.3-.7.4-1.1 1.2-1.2 2-.4 3.6-2.6 5.6-6 6.5-2.4.3-4.8-.4-6.8-1.7 1.5 3.7 2.2 4 5.3 3.1l1.7-.5c.7-.2 1.4-.4 2.1-.5 2.4-.5 4.8-1.2 7.1-2 1.8-.5 3.1-2.1 3.3-4 .5-3.5 1.7-6.8 2.4-10.2 0-.9.5-1.5 0-2.4z"></path><path fill="#fff" d="M247.4 49.4c-2.2 1.7-5.3 1.7-7.5 0 1.7-.6 3-1.1 4.4-.1.8.5 1.7-.2 2.5-.3.6-.4.6 0 .6.4z"></path><path fill="#fff" d="m247.4 49.4-.6-.4c.9-.6.3-2.3 1.6-2.6.6-.2.8.1.8.7-.2.9-.9 1.8-1.8 2.3zM224.5 50.3c-1.1-.7-1.8-.2-2.9.3-.7.2-1.5.2-2.2 0-.4-.1-.7-.3-1-.6-1.2-1.7-2.3-1.5-3.6-1.9 1 3.4 7.6 4.9 9.7 2.2z"></path><path fill="#ffa76c" d="m231.1 41.4-1.5-1.5c-.8-.8-1.7-1.5-2.7-2.1-.6-.6-1.3-1.1-2.1-1.4-.5-.2-1.6-.5-1.6-.5-2.6-.9-5.2-.6-7.8-.4-2.8.2-5.6.5-8.4-.2-.8-.2-1.4 0-1.6.8-.6 1.8-.7 3.6-.5 5.4.6 2.4 1.4 4.7 2.4 6.9.2.6.6 1.1 1.2 1.3 2.7 1.2 5.5 2 8.3 3.2 1 .4 2 .7 3.1.9.8.1 1.5 0 2.3-.2.5 0 .9-.4.8-.8s-.6-.2-.9-.1c-.2.1-.3.2-.4.3-1 .1-2 0-2.9-.3l-1.8-.5c-3.2-1.5-4.1-5.1-6.7-7.1-.3-.2-.2-.6 0-1 .1-.2.4-.3.7-.2 1.7 1.2 2-.3 2.5-1.3 1.7-3.2 4.2-6 8.1-5.9 1.2.1 2.4.3 3.6.6h.1c1.2.6 2.3 1.6 3 2.7.8 1.3 1.9 2.8 2.2 3.3.9-.2 1.6-.7.6-1.9z"></path><path fill="#fefefe" d="M108.6 199.4c.2-1.4 1.1-2.7 2.4-3.4 1.7-1 1.7-1.1.8-2.9-.5-1-1-2-1.5-3.1s-.7-2.4-.6-3.6c0-.6.1-1.3.8-1.6s1.2.1 1.7.5c1 .9 1.8 1.9 2.4 3.1 1.4 2.2 1.5 2.2 3.5.5.9-.8 2.2-1.2 3.4-1.1 1.6.1 2.8 2.5 1.5 3.8-.9.8-1.8 1.6-2.8 2.4-2.2 1.6-2.3 1.8-.8 4 1 1.4 1.7 3.1 2.2 4.8.3.7.1 1.5-.5 1.9-.7.5-1.3-.1-1.9-.5-1.1-1-2-2.3-2.6-3.6-1.2-2.1-1.7-2.2-3.5-.6-.7.8-1.6 1.4-2.7 1.6-1.4 0-2-.5-1.8-2.2zM362 88.6c-1.5-.3-3-.9-4.3-1.8-2.2-1.4-2.7-1.2-3.5 1.3-.2.9-.7 1.8-1.3 2.5-1.3 1-2.3.9-2.9-.7-.5-1.3-.5-2.8.2-4.1 1-2 1-2-.9-3.3-.9-.6-1.8-1.2-2.6-1.8-.9-.6-1.5-1.4-2-2.4-.3-.7-.9-1.4-.3-2.2s1.5-.4 2.2-.2c1.1.4 2.1.8 3.1 1.3 2.2 1.1 2.4 1 3.2-1.2.3-1.1 1.1-2 2-2.6.8-.5 1.9-.5 2.7.1.9.5 1.2 1.6.8 2.5-.4 1.3-.9 2.5-1.4 3.7-.8 1.8-.6 2.2 1.1 3.1 1.4.7 2.8 1.5 4 2.5.4.3.8.7 1.1 1.2.3.4.4 1 .2 1.5-.2.7-.8.6-1.4.6zM5.4 329.3c-.6-.1-1.1-.2-1.6-.4-1.1-.4-1.7-1.7-1.3-2.9.1-.4.4-.7.7-1 .9-.7 1.9-1.2 3-1.5 3.1-1.2 3.1-1.2 2.1-4.3-.4-1.2-.7-2.4-.7-3.6-.1-.5-.1-1 0-1.6 0-.6.4-1.2 1-1.4.6-.1 1 .3 1.3.7.8 1.1 1.4 2.4 1.6 3.8.1.5.1 1.1.3 1.5.2.8 1 1.4 1.8 1.2.2 0 .3-.1.5-.2.6-.3 1.3-.6 1.9-1 .7-.4 1.5-.5 2.3-.3 1.2.3 1.6 1 1.1 2.1-.5 1.4-1.6 2.5-3.1 3-2.2.7-2.2.7-1.7 3.1.4 1.8 1 3.6.4 5.4-.3 1-.3 2.3-1.6 2.4-1.1 0-1.5-1.1-1.9-2-.5-1.1-.8-2.3-1.3-3.4-.6-1.4-1-1.6-2.4-.9-.7.9-1.5 1.2-2.4 1.3z"></path><path fill="#fff" d="m368.3 253.1.4-2.3c.3-2.2.1-2.6-2-3.1-1.4-.2-2.7-.7-4-1.2l-1.2-.6c-.6-.4-1.2-.9-1.1-1.7s1-.9 1.7-1c1.1 0 2.3.1 3.4.4.6.1 1.2.4 1.8.5 1.4.3 2-.2 2.1-1.5 0-1 .1-1.9.3-2.9.3-.8.8-1.7 1.8-1.8s1.5.7 1.9 1.5c.6 1 .7 2.2.5 3.3-.5 2.3-.5 2.3 1.9 3.1 1 .3 2 .7 3 1.1 1.1.5 2.1 1.2 2.9 2.2.9 1.3.5 2.1-1.1 2.3-1 .1-1.9 0-2.9-.2-.7-.1-1.4-.3-2.1-.4-.7-.3-1.6.1-1.8.9-.1.2-.1.4-.1.7 0 .8-.1 1.6-.3 2.3-.7 1.5-2 2.3-3.3 2s-1.9-1-1.8-3.6zM56.5 248.7c.9-.1 1.7.4 2 1.2.6 1.2 1 2.4 1.2 3.7.5 3.5 2 6.7 3.3 10 .3.7.6 1.5.9 2.2.3 1 .6 2.1-.7 2.7s-2.1.5-3.1-.9c-.3-.4-.6-.9-.8-1.4-2.1-4-3.6-8.2-4.7-12.6-.2-.9-.3-1.9-.3-2.9 0-1.3.6-1.9 2.2-2zM55.7 345.4c-1.8.1-3.5-.1-5.2-.5-1-.1-1.7-1.1-1.5-2.1.1-1.1.5-2.1 1.8-2.2 1.5-.2 3-.3 4.4-.2 3.3.5 6.5-.3 9.7-.6 1-.1 2.1-.2 3.1-.3.9-.2 1.8.4 2 1.2v.3c.3 1-.2 2-1.1 2.4-1.5.6-3 1-4.6 1.2-2.8.5-5.7.7-8.6.8zM358.5 156.3c.5.1 1.2.2 1.9.4 4.4 1.4 8.7 3.4 12.6 5.8.7.5 1.4 1.1 2 1.7.8.6.9 1.7.3 2.5 0 0 0 .1-.1.1-.5.9-1.5 1.3-2.5 1-1.4-.4-2.6-1-3.8-1.9-2.9-2.1-6.2-3.3-9.4-4.7-.8-.3-1.6-.7-2.4-1.1-.9-.3-1.4-1.2-1.1-2.1 0-.1 0-.1.1-.2.3-1 1.3-1.7 2.4-1.5zM417 207.4c-.1.6-.3 1.5-.5 2.3-1.3 4.2-3.2 8.2-5.5 11.9-.5.8-1.1 1.6-1.8 2.3-.6.8-1.7 1-2.5.4l-.1-.1c-1-.7-1.5-1.5-1-2.7.5-1.2 1.1-2.4 1.8-3.5 2.2-2.9 3.4-6.3 4.8-9.6.3-.8.7-1.6 1.1-2.4.4-.9 1.3-1.3 2.2-.9 1 .1 1.7 1.2 1.5 2.3zM410.1 274.1c1 0 1.9.2 2.8.6 4.1 1.3 8 3.2 11.6 5.4.8.5 1.6 1.1 2.3 1.8.9.6 1.1 1.7.5 2.6 0 .1-.1.1-.2.2-.5 1-1.7 1.4-2.7.9-1.2-.5-2.4-1.1-3.5-1.8-2.9-2.2-6.3-3.4-9.6-4.8-.8-.3-1.6-.7-2.4-1.1-.8-.3-1.3-1.2-1-2v-.1c.5-1 1-1.8 2.2-1.7zM312.3 94.6c1.3.2 2.2 1.4 2.1 2.7 0 .2-.1.5-.2.7-.7 1.3-1.7 2.4-2.9 3.3-2.7 2.1-4.6 5-6.8 7.6-.6.8-1.2 1.5-1.8 2.3-.5.8-1.6 1-2.4.5-.1 0-.1-.1-.2-.1-.9-.4-1.3-1.5-.9-2.5.3-.8.7-1.6 1.2-2.3 2.4-3.7 5.2-7 8.4-10 .9-1 2.1-1.8 3.5-2.2zM71.9 184.5c1.3-.1 2.3.2 2.6 1.6s-.1 2.2-1.7 2.8c-1 .5-2.1.8-3.3 1-3.8.5-7.2 2.2-10.7 3.6-.7.3-1.3.5-2 .7-.8.4-1.7.1-2.2-.6 0 0 0-.1-.1-.1-.5-.9-.7-1.8.2-2.6.5-.5 1.1-.9 1.7-1.2 4.3-2.3 8.8-3.9 13.5-5 .7-.1 1.3-.2 2-.2zM100.9 132.3c0-2.7.4-3.3 1.8-3.5s2.1.3 2.7 1.9c.3.8.6 1.6.8 2.5.7 4.5 2.7 8.5 4.3 12.6.7 1.8.5 2.4-.9 3-.8.5-1.8.3-2.4-.4-.1-.1-.2-.3-.3-.4-2.9-4.9-4.9-10.2-6-15.7z"></path><path fill="#020202" d="M316.6 59.1c-1.2-2.4-2.9-4.4-5.1-6 .9-.8 1.7-1.6 2.5-2.5 1.6-2.6.7-5.8-2.1-6.7-1.7-.7-3.7-.6-5.4.2-2.1 1-2.2 1.1-2.1 3.4.3 4.1.7 8.2 1.1 12.3 0 .6.2 1.2.5 1.8.2.5.8.7 1.3.6.5-.1 1-.5 1-1.1 0-.5 0-1-.1-1.6-.1-1.5-.3-3-.4-4.7 3 .7 4.5 2.8 5.9 5 .5.8.8 1.5 1.3 2.3.3.5.8.7 1.4.5.6-.1 1.1-.7 1-1.4-.1-.7-.4-1.5-.8-2.1zm-8.8-7.3c-.5-1.1-.8-2.4-.7-3.6-.1-1.4.3-1.9 1.8-2 .5 0 1 0 1.5.1 1.7.4 2.2 1.7 1.1 3.1-1.1 1-2.3 1.9-3.7 2.4z"></path><path fill="#030303" d="M328 52.8c-.3-1.8-.9-3.5-1.8-5.2-.8-1.4-2.3-2.3-3.9-2.1-1.8.1-2.6 1.2-3 2.8-.5 1.7-.8 3.4-.8 5.1-.2 2.5.5 4.9 1.8 7 2.4 3.3 5.6 3 7.3-.7.3-.7.5-1.5.6-2.3.2-1.5.2-3.1-.2-4.6zm-3 5.7c-.2.6-.5 1.2-1.2 1.2s-1.1-.5-1.4-1c-1-1.6-1.4-3.4-1.3-5.2-.1-1.4.1-2.8.6-4.2.5-1.1 1.4-1.4 1.9-.4 1.6 3.1 2.6 6.2 1.4 9.6zM301.1 49.3c-.9-2.4-3.1-2.9-5.7-3-.5 0-1 .1-1.6.2-2.1.5-2.7 1.8-2.2 3.9.5 2.2.7 4.5.7 6.8.1 2.5.2 5.1.3 7.6 0 .8.3 1.6 1.3 1.7s1.4-.8 1.4-1.8c0-1.2 0-2.5-.2-3.7-.5-1.5.3-3.1 1.7-3.7.9-.5 1.8-1.2 2.5-2 1.7-1.7 2.7-3.7 1.8-6zm-3.5 3.9c-.6.9-1.5 1.5-2.6 1.8-.2-1.6-.4-3.1-.6-4.5-.2-1.1.1-1.7 1.4-1.5s2.4.3 2.8 1.5-.3 1.9-1 2.7z"></path><path fill="#040303" d="M319.8 33.5c0-.4-.2-.9-.4-1.3-1.6-2.9-3.4-5.7-5.5-8.3-.6-.9-1.8-1.1-2.7-.5-.3.2-.6.6-.7 1-1.1 3.4-1.8 6.9-2.4 10.4 0 .9.2 1.7 1.1 1.9s1.4-.5 1.5-1.4c.1-.6.3-1.2.3-1.8.1-.9.5-1.3 1.3-1.3 1.9 0 4.1-1 4.9 1.9 0 .1.1.2.1.2.4.5 1.1.7 1.6.4.7-.1 1-.7.9-1.2zm-7.7-3.9c0-.9.1-1.8.5-2.6.8.6 1.4 1.4 1.9 2.3-.7.5-1.6.7-2.4.3z"></path><path fill="#010101" d="M253.8 198.1c-.1-1.1-.2-2.3-.1-3.4.1-2.5-.3-4.7-2.3-6.6-1.8-1.8-2.6-4.3-3.4-6.8-.2-.9-.6-1.8-1-2.7-.9-1.6-.6-2.1 1.3-2.3 2.5-.3 5.1-.5 7.6-.7 5.9-.5 11.9-1 17.8-1.6 2.9-.3 3.7.4 3.3 3.4-.4 3.8-1.2 7.6-2.5 11.3-.2.7-.2 1.5.1 2.2 1 2.8 1.9 5.7 2.5 8.6.8 4.2-.9 6.6-5.1 7.1-4.7.6-9.4.7-14.1 1.4-2.5.4-3.9-1-4.1-3.6-.1-2.1.1-4.2 0-6.3z"></path><path fill="#08090b" d="M340.2 404.3c0 2-.7 3.2-2 3.3s-2.2-1-2.3-3.2c-.3-2.2-.1-4.4.7-6.4.4-.9.7-1.8 1.7-1.7s1.4 1.2 1.5 2.1c.1 1.9.2 3.8.4 5.9z"></path><path fill="#070809" d="M331.4 392.2v3.4c0 1-.8 1.9-1.9 1.8-.9 0-1.7-.6-1.8-1.5-.8-2.8-.7-5.7.2-8.5.3-.7.7-1.3 1.5-1.2s1.2.6 1.4 1.4c.6 1.5.4 3.2.6 4.6z"></path><path fill="#0a0c0f" d="M328.8 403.5c0-1.6-.2-2.8.5-4 .4-.7 1-1.3 1.9-1.2.7.1 1.3.7 1.4 1.4.5 2.2.7 4.3.8 6.5 0 .6-.2 1.2-.5 1.7-.4.7-1.2 1-2 .9-.7-.1-1.3-.6-1.5-1.3-.5-1.2-.7-2.6-.6-4z"></path><path fill="#0a0b0d" d="M325.5 406.1c.1 1 0 2.1-.3 3.1-.2.7-.8 1.2-1.5 1.2s-1.4-.3-1.8-.9c-1-1.5-1-7 0-8.6.3-.7 1-1.1 1.7-1 .7.2 1.2.8 1.3 1.5.4 1.5.6 3.1.6 4.7z"></path><path fill="#090a0b" d="M312.9 394.1c-.1-1.3.3-2.6 1-3.8 1-1.3 2.4-1.2 3 .3.8 2.1 1.1 4.2 1.1 6.4.1 1-.6 1.9-1.6 2h-.1c-1.2.3-2.5-.4-3-1.5-.2-1.1-.3-2.3-.4-3.4z"></path><path fill="#08080a" d="M330.7 381c0 2.2-.5 2.8-1.8 2.9-1.4.2-2.7-.7-2.9-2v-.3c-.4-2-.2-4 .4-5.9.4-.8.7-1.7 1.7-1.8 1.2 0 1.6 1 1.8 1.9.4 1.8.7 3.5.8 5.2z"></path><path fill="#0b0d0f" d="M307.7 406.2c-.1-.9-.1-1.7 0-2.6 0-.7.6-1.3 1.3-1.3.4 0 .8.2 1 .5.4.4.8.9 1.1 1.5.7 1.6 1.1 3.3 1.2 5.1.1 1.6-.5 2.1-2.1 2.4-1.4.2-1.9-.4-2.1-1.6-.1-.5-.3-1-.3-1.5-.2-.9-.1-1.7-.1-2.5z"></path><path fill="#09090a" d="M318.6 381c-.1-1 0-2.1.3-3.1.2-.8.9-1.4 1.7-1.4.8-.1 1.6.5 1.8 1.2.8 2 1 4.3.7 6.4-.2.9-.6 1.7-1.6 1.8-1 .1-1.9-.5-2.3-1.4-.5-1.1-.7-2.3-.6-3.5zM307 394.5c0-.9 0-1.8.2-2.6.1-.7.6-1.3 1.4-1.4.8-.2 1.6.2 1.9 1 .8 2.2 1.1 4.6.8 6.9-.1.9-.9 1.6-1.8 1.6-1 .2-1.4-.5-1.8-1.2-.6-1.4-.8-2.8-.7-4.3z"></path><path fill="#070809" d="M320.1 394c.2-1.3-.3-2.5.5-3.5.4-.6.9-1.1 1.7-1.1.7.1 1.3.6 1.5 1.3.6 1.9.8 4 .8 6 0 1.1-.8 2.1-1.9 2.2-1.1.2-2.1-.6-2.3-1.7-.1-1-.2-2.1-.3-3.2z"></path><path fill="#090a0c" d="M318.7 408.1c0 .6-.1 1.1-.2 1.7-.2.8-.9 1.3-1.8 1.3-.8.1-1.6-.3-1.8-1.1-.7-2.2-.8-4.5-.4-6.7.2-.8.6-1.5 1.5-1.5s1.3.6 1.6 1.4c.6 1.6.9 3.2 1.1 4.9z"></path><path fill="#08090a" d="M312.4 382.5c-.2-1.2.1-2.4.7-3.4.7-1.3 2-1.4 2.6-.2 1 2.1 1.3 4.6.8 6.9-.2 1.1-1.2 1.4-2.3.9-2-.7-1.9-2.4-1.8-4.2z"></path><path fill="#080a0d" d="M306 384.4c.1-.9.2-1.7.5-2.6.2-.8.9-1.4 1.7-1.4.8-.1 1.6.5 1.7 1.3.5 1.6.7 3.2.7 4.9.1 1-.6 1.9-1.6 2-1.1.2-2.2-.4-2.5-1.4-.2-.9-.4-1.9-.5-2.8z"></path><path fill="#010101" d="M349.8 392.6c.1-6.7 1.2-13.3 2-19.9.1-.9.3-1.7.6-2.5.4-1.4 1.5-2.4 3-2.7 5.2-1.1 10.3-2.7 15.6-3.4 1.3-.2 2.6-.2 3.9-.1 2.5.3 3.8 1.5 3.8 4.1 0 5.2 0 10.4-.1 15.5-.1 3.7-.6 7.3-.8 11 0 1.7-1.1 3.2-2.7 3.8-1.9.8-3.8 1.4-5.8 1.8-5.1 1.2-10.3 2.3-15.4 3.5-.2 0-.3.1-.5.1-2.7.4-3.6-.3-3.6-3v-8.2z"></path><path fill="#38a1fc" d="M337.2 388.6c-.1-.6.2-1.2.8-1.4.2 1.7.3 3.5.1 5.2-.9-.2-1-.7-1-1.3.4-.7.4-1.7.1-2.5z"></path><path fill="#38a1fc" d="M337.2 388.6c.7.7.7 1.8 0 2.5-.2-.8-.2-1.6 0-2.5z"></path><path d="M234.6 52.7c-.3-.1-.6-.3-.9-.5-.7-.7-1.8-.8-2.6-.1-.3.3-.8.3-1.1 0-.5-.5-.1-1 .3-1.3 1.5-1.3 3.8-1.1 5.1.4.1.1.2.3.3.4.1.2.1.5.1.7-.2.3-.6.4-1.2.4z"></path><path fill="#fff" d="M274.6 176.3c.3.8.3 1.7 0 2.5-.5 2.5-1.1 5-1.5 7.5-.1 1.1-1 1.9-2.1 1.9-4.4.3-8.8.5-13.1.8-2 .1-4-.9-5-2.7-1.6-2.4-2.6-5.1-3.2-7.9 8.3-1 16.6-1.3 24.9-2.1z"></path><path fill="#feffff" d="M255.5 191.3c2.4-.2 4.4.1 6.3-.3.3.5.4 1.1.3 1.6-.1 1.2.1 2.3 1.4 2.8s4.1.2 4.8-.6c.4-.5.6-1.1.5-1.7-.1-.8-.4-1.5-.5-2.2.3-.6.9-.5 1.4-.5 2.6-.1 2.6-.1 3.4 2.4.9 2.4 1.6 4.8 2.1 7.3.4 2.7-.2 3.8-3 4.1-4.7.6-9.4 1-14.1 1.5-1.3.1-1.8-.5-1.9-1.6-.1-1.4 0-2.8-.1-4.2-.1-2.9-.3-5.7-.6-8.6z"></path><path fill="#fff" d="M266.5 193.2c-2.3.6-2.7.3-2.2-1.6.1-.5.3-.8.8-.8.4-.1.7.1.8.5.1.7.6 1.2.6 1.9z"></path><path fill="#38a1fc" d="M337.9 405.2c-.5-1.6-.5-3.2-.2-4.9.7 1.6.7 3.3.2 4.9zM329.7 390.8c.2 1.6.2 3.2 0 4.8-.9-1.5-1-3.2-.4-4.8.1-.3.2-.3.4 0z"></path><path fill="#38a1fc" d="M329.7 390.8h-.4c0-.4-.1-.9.3-1.2.1.3.2.8.1 1.2zM331.2 407.2c-.9-1.6-1.1-3.4-.5-5.1.7 1.6.9 3.3.5 5.1zM323.2 403.4c.8 1.5.9 3.3.4 4.9-.9-2.4-.9-2.4-.4-4.9zM315.2 391.8c1.1 1.5.7 3.1 1.1 4.6.1.4-.3.6-.6.7-.4.1-.7-.1-.8-.5-.5-1.6-.4-3.3.3-4.8zM328.6 377.6c.1 1.3.3 2.5.5 3.8.1.3-.1.7-.5.7-.4.1-.7-.2-.8-.5-.3-1.3-.3-2.7 0-4.1.2-.3.5-.3.8.1z"></path><path fill="#38a1fc" d="M328.6 377.6h-.8c0-.4 0-.9.5-.8.3 0 .3.4.3.8zM310.2 409.6c-.8-1.2-1-2.7-.7-4.2.8 1.3 1.1 2.8.7 4.2zM320.8 378.9c.7 1.6.9 3.4.5 5.1-1.3-1.4-1.4-1.9-.5-5.1zM309.1 397.1c-.8-1.4-.3-2.8-.4-4.6.8.6 1.2 1.5 1 2.4-.6.7.1 1.7-.6 2.2z"></path><path fill="#38a1fc" d="M309.1 397.1c.2-.7-.2-1.6.5-2.1.2.8.2 1.7 0 2.5-.2.5-.4-.1-.5-.4zM322.6 396.9c-1-1.4-.9-3-.6-5 .8 1.5 1 3.3.6 5zM316.5 405.5c.2 1.1.8 2.2.1 3.6-.6-1.1-.8-2.4-.6-3.6.2-.3.4-.3.5 0z"></path><path fill="#38a1fc" d="M316.5 405.5h-.4c0-.2.1-.4.1-.6.5-.1.3.3.3.6zM314.5 381.5c.6 1.1.7 2.4.4 3.6-1.4-1.3-1.1-2.5-.4-3.6zM308.4 382.9c.1 1.3 1.1 2.6.1 3.8-.6-1.2-.7-2.6-.1-3.8zM376.6 377.7c.1 4.6-.4 10.3-.8 16.1 0 1.2-.8 2.4-2 2.7-1.4.4-2.8.9-4.3 1.3-4.9 1.2-9.9 2.4-14.8 3.4-2.3.5-2.4.3-2.4-2-.1-8.8.5-17.5 1.8-26.2.4-2.7 1-3.3 3.5-3.9l10.5-2.4c1.9-.4 3.8-.7 5.7-.7 2.3 0 2.8.6 2.8 2.8v8.9z"></path><path fill="#ebf3fc" d="M374 382.2c-.1.2-.2.5-.3.6-.8.3-1.4 1.1-1.5 2-.1.4-.3.6-.7.7-.4 0-.7-.2-.7-.6-.1-1.4-1.1-1.6-2.2-1.6-.4 0-.8-.3-.8-.7v-.1c0-.4.3-.7.7-.7 1.6 0 2-.9 2-2.4 0-.3.3-.6.6-.5.2 0 .4.2.5.4.4 1.2.8 2.4 2.3 2.8 0-.2 0-.1.1.1z"></path><path fill="#fff" d="M373.5 393.9c-1.3 1.5-4.1 2-5.5.9-.3-.2-.4-.6-.2-.9.1-.2.3-.3.5-.3 1.1-.2 1.4-.8 1.4-1.8.1-1.2 1-1.3 1.9-1.1.7.2 1.5.5 2.1.9 1.3.8.6 1.3-.3 1.8-.2 0-.3-.3-.5-.1.3.2.5.4.6.6z"></path><path fill="#dfeefa" d="M371.9 373.9c.9.2 2.4-.5 2.5.7.1 1.5-1.5.9-2.4 1.2-.8.2-1.7.2-2.6.1-.4 0-.8-.3-.8-.8s.3-.8.8-.9c.8-.2 1.7-.2 2.5-.3z"></path><path fill="#eff0fb" d="M370.2 389.6c-.7.1-1.4.1-2-.2-.2-.1-.4-.4-.4-.6-.1-.3.1-.6.5-.7h5.1c.4 0 .7.3.7.7 0 .4-.3.8-.7.8h-3.2z"></path><path fill="#eff8fd" d="M371.2 371.7h-1.8c-.3 0-.6-.3-.6-.6 0-.4.2-.7.6-.8 1.4-.2 2.8-.2 4.1 0 .2 0 .4.3.5.5.1.3 0 .7-.4.8h-.1c-.8.1-1.5.2-2.3.2v-.1z"></path><path fill="#739ce5" d="M373.5 393.9c-.5-.6-1.4-.5-2.5-1.1 1.4-.3 2-.1 2.6.6l-.1.5z"></path></g></svg>