<svg xmlns="http://www.w3.org/2000/svg" enable-background="new 0 0 499.5 433.3" viewBox="0 0 499.5 433.3" id="financial-analysis"><g><path fill="#68e6b3" d="M294.5 368.7c1.6-.6 1.9-1.4 1.1-3.1-2.9-6.1-5.7-12.3-8.4-18.5-3.4-7.8-5.6-16-8.1-24.1-2.7-9.5-4.8-19.1-6.4-28.8v-1.3c6.4 1.4 13 1.8 19.5 2.6 11.8 1.4 23.6 2.7 35.4 3.7 6.9.6 13.8.2 20.6 1 6.4.8 12.9-.6 19.4-.7 3.6-.1 4 .1 4.1 3.8.1 3.4-.1 6.8 0 10.2.3 12.7 3.2 25.1 8.6 36.6.9 2.1 2.3 4.1 4 5.7 1.8 1.6 3.6 1.6 5.4 0 1.7-1.7 3.1-3.8 3.8-6.2 3-7.5 4.9-15.4 8.8-22.5 2-3.7 4.2-7.4 6.6-10.9.7-1 1.4-2.5 2.9-2.2s1.7 1.8 2 3c2.2 7 3.2 14.3 4.2 21.5.9 6.1.9 12.3.1 18.4-.9 9.6-6.4 18.2-14.6 23.1-5 3.1-9.7 6.5-13.5 11.1-10.8 13-24.8 14.1-39.4 9.8-16.9-5-32.3-13.4-46.3-24.1-.6-.4-1.2-.9-1.7-1.4-2-2.9-4.8-5.2-8.1-6.7z"></path><path fill="#68e6b3" d="M460.1 286.2c2.2 3.9 2.8 8.4 4.5 12.5 2.7 6.8 5.1 13.7 7.5 20.6 3.8 10.6 6.1 21.6 8.1 32.6 1.3 7.4 2 14.9 3.3 22.3 1.2 7.2 2 14.5 4.3 21.4 1.4 4.1 3 8 6.3 10.9.8.6 1.1 1.6.8 2.6-.1.2-.3.4-.6.5l-1.9.1c-2.2.6-4.6.9-6.9.9-4 .1-8-.1-12 .6-1.9.4-3.9 0-5.5-1-.2-.2-.5-.4-.5-.8.7-4.3.6-4.3-3.3-6-11.9-5.3-24.4-8.5-37.3-8.6-19.3-.1-37 4.7-50.8 19.4-.5.8-1.4 1.4-2.3 1.6-12.6-.4-24.8-2.2-36.5-7-1.3-1.7 1.4-1.4 1.3-2.7-3.3-2.1-7.1-3.4-10.6-5.3-6.3-3.3-12.1-7.4-18.2-11.1-4.7-2.8-9.7-4.1-15.2-3-1.6.3-3.2.2-4.7-.3-3.5-1.3-4.8-4.3-3.1-7.6 1.4-2.7 3.5-5.1 6-6.9 2.3-1.7 4.7-1.4 6.8.9 14.9 15.9 34.1 24.2 54.4 30.2 11.9 3.5 23.6 1.8 33.4-7 2.1-1.9 3.8-4.3 5.8-6.3 2.7-2.7 5.7-5.1 9-7 11.8-6.9 17.5-17.3 17.6-31 .1-13-2-25.9-6.3-38.1-.7-1.6-.5-3.4.5-4.8.1-.2.2-.4.3-.5 6.3-10 4.1-8.1 15-11 7.3-1.9 14.7-3.4 21.8-6 3.3-1.3 6.6-2.4 9-5.1z"></path><path d="M460.1 286.2c-.1 1.8-1 2.7-2.7 3.4-8.3 3.8-17.1 5.6-25.8 7.9-2.9.7-5.8 1.4-8.6 2.1-1.6.3-3 1.2-3.8 2.6-1.5 2.5-3.2 5-4.8 7.5-.7.9-.8 2.2-.3 3.2 5.1 13.7 7.2 28.2 6.3 42.8-.7 10.6-5.5 19-14.1 25.2-1.6 1.2-3.4 2.2-5.1 3.3-3.2 1.9-6 4.4-8.4 7.2-2 2.3-4.2 4.5-6.5 6.6-5.7 5-12.5 6.9-19.9 7.2-6.7.2-13.4-.9-19.6-3.2-13.3-4.7-25.6-11.4-37.4-18.9-3.8-2.3-7.1-5.4-9.8-9-2.2-3.1-4.3-3.3-7.2-1-2.3 1.9-4.2 4.3-5.4 7-1 2.5-.4 4.1 2 5.2 1.6.7 3.3 1 5 .7 6.9-1.1 13 .6 18.7 4.5 8.5 5.9 17.7 11 27.2 15.1.3.2.6.4.8.6-.5 2.2-2.8 1.1-3.8 2.2-1.4 1.4-3.2 1-4.8.8-15.3-1.6-30.8-.8-45.8 2.5-1.7.4-3.3.6-5 .9-3.1.6-5.9.6-7.7-2.8-.7-1.3-2-.9-3.1-.8-5.7.6-11.4 1.5-17 2.8-1.5.4-3.1.7-4.7.9-1.6.1-3.1-.1-3.8-1.6s0-2.7 1-3.7c2.6-2.5 5.2-5 8.8-6 6.8-4.1 13.8-7.7 21.5-9.9 2.8-.8 5.5-1.5 8.2-2.4 1-.3 2.1-.4 2.8-1.3-4.7-4.2-4.9-6.5-1.4-11.9 2.1-3.2 4.7-6 8.5-7.3 2.7-.3 4.6.9 6.2 3 2.8 3.5 6.1 6.5 10 8.8 11.7 7.7 24.3 14 37.4 18.9 7.8 2.8 16.2 3.6 24.4 2.1 4.3-.7 8.3-2.6 11.6-5.5 1.8-1.5 3.5-3.1 5-4.9 3.7-4.4 8.2-8.1 13.1-11 5-2.9 9.1-7.1 11.9-12.1 2.1-4 3.3-8.5 3.5-13.1.9-13.8-1.6-27.2-5.4-40.3-1.3-.2-1.4.7-1.8 1.3-6.4 8.9-11.2 18.8-14.3 29.3-.9 3.2-2.1 6.2-3.8 9.1-3.3 5.4-7 5.6-10.5.4-3.7-5.8-6.4-12.3-7.9-19-2.6-10-3.7-20.3-3.4-30.6v-4.6c-3.5.2-6.9.2-10.2.5-4.5.4-9.1.5-13.7.3-13.9-.4-27.8-1.4-41.6-3-9-1-17.9-2.1-26.8-3.1-2-.2-3.9-.9-5.7-2-2-11.3-3.8-22.7-4.8-34.2-11.1 1.6-21.9.1-32.7-1.7-5.2-.9-10.4-2.2-15.5-3.5-1.4-.4-2.5-.5-3.3 1.2s-2.3 2.1-4 2.1c-1.2-.1-2.3-.2-3.4-.6-3.8-1.2-3.9-1.4-3.8-5.3-.1-1.2-.1-2.3 0-3.5 2.5-13.7 1.6-27.4 1-41.1-.1-2.5-.5-5.1.1-7.6.1-1.2-.7-2.2-1-3.3-.4-1.6 0-2.5 1.6-2.9 2.2-.4 4.3-1.1 6.3-2.1 1.4-.7 2.1.2 2.7 1.4.7 1.4.2 3.6 1.9 4.1 1.4.3 3.1-.6 4.6-.8 10.9-1.8 21.3-5.7 30.8-11.5 3.9-2.4 6.6-5.9 9.9-9 .5-.6.7-1.3.7-2.1 2.1-12.9 7.2-25.2 14.8-35.8 2-2.8 3.8-5.6 5.7-8.4 2-.2 3 1.4 4.2 2.5 1 1.3 2.8 1.7 4.3.9 5.9-2.6 12.2-4.5 18.5-5.6 2.4-.4 2.6-1.5 1.8-3.5-2.9-7.4-3.4-15.5-1.5-23.2 2.7-11.2 9.7-18.5 21.1-21 2.8-.6 3.5-1.7 3.6-4.4.7-11.5 5.8-20.6 16.1-26 12.4-6.6 27.7-2.9 35.7 8.6.4.6.9 1.2 1.3 1.8 2.2 3.5 2.2 3.5 5.7 1.5 3.7-2.2 7.7-3.7 12.1-3.2 7 .8 11.7 4.7 13.9 11.4 2.9 8.9 1.1 17.3-3.4 25.1-1.9 3.3-2.5 5.8-.8 9.6 2.5 5.5 1.9 11.7.5 17.5-.5 2.3-.4 4 1.1 5.9 2.8 3.4 3.2 7.6 3.5 11.7.2 3.1.1 6.1.5 9.2.5 3.8-1.4 5.3-5.1 4.4-2.2-.7-4.4-1.6-6.4-2.8-3.5-1.6-7-3-10.7-4.1-1.9-.6-2.8-.3-2.4 2 1.3 6.8 1.9 13.7 1.9 20.6 0 2 .9 2.5 2.8 2.3 6.8-.9 13.2-3.3 18.9-7.2 1.4-.9 2.6-2.7 4.7-1.6-1 10.8 1.3 21.3 3.6 31.7 4 17.4 9.9 34.1 15.4 51 4.8 14.2 10.6 28.1 15.2 42.6z"></path><path fill="#e1f0ff" d="M254.8 401.4c-2.2 1.7-4.3 3.4-6.5 5.1-.7.5-1.3 1.1-1.9 1.7-.8.8-1.5 1.6-1 2.8.6 1.3 1.9 1.3 3 1 4.3-.8 8.5-1.8 12.8-2.6 3.5-.6 7.1-1.1 10.7-1.5 1.3-.2 2.4-.4 2.6 1.7s2 2.7 4.5 2.4 5-.8 7.5-1.3c14.6-3.1 29.7-4 44.6-2.5 1.9.2 3.8.1 5.7.2 1.6 0 3.1.3 4.6.9 5.9 2.2 12.1 3.7 18.4 4.3 4.7.6 9.4 1 14.1 1.5.1 2 .5 2.9 3 2.3 5.4-1.2 10.7.3 16 1.7 1.5.4 3.1.9 4.6 1.4 3.7 1.6 8 1.4 11.4-.7 5.8-3.2 12.4-2.4 18.7-1.8 6.3.7 12.6 2.1 18.6 4.1 3.8 1.2 4.7 1 7-2.2 3.4-4.6 8.3-7.1 12.9-10.1.4-.3 1-.3 1.5 0 2.9.6 5.9.7 8.8.1 2.5-.5 5-.1 7.6-.2 1.8.1 3.6 0 5.3-.5 1-.3 2.1-.1 3 .5 1.6 1.6 3.9 2 5.5 3.7 2.4 2.7 2.3 5.4-.6 7.5-2.2 1.6-4.6 2.7-7.1 3.4-7 2-14 4.1-21.1 5.9-6.1 1.4-12.2 2.3-18.5 2.5-8.3.4-16.5.8-24.8.4-5.1-.1-10.1-.4-15.2-1-3.3-.5-6.7-.7-10.1-.8-10.9-.1-21.9.1-32.8-.1-4.6-.1-9.3-.4-13.9-1-2.9-.4-5.9-.6-8.8-.6-4.2-.2-8.5-.6-12.6-1-5.5-.5-11-.3-16.5-.5-3.8 0-7.6.4-11.3 1.1-3.5.5-6.9.8-10.4.8-9.6.1-19.3.1-29 0-2.9 0-5.7-.3-8.5-.8-1.7-.3-3.3-.4-5-.4-4.6 0-9-.9-13.6-1.1-5.2-.3-10.3-1.1-15.4-1.6-6.4-.5-12.8-.8-19.2-1.6-3.3-.4-6.7-.7-10.1-.9s-6.9-.7-10.4-1c-1.5-.1-3-.2-4.4-.2-7-.2-13.9-1.1-20.7-2.6-1.3-.3-2.7-.7-3.9-1.2-3.5-1.4-4-4.1-1.2-6.5 2.5-2.2 5.8-2.9 8.9-4.1 1.2-.5 2.5-.6 2.8-2.2 1.6.3 1.3 1.7 1.5 2.8.6 3.3 1.9 6.5 3.8 9.3-.6-3.1-1.8-5.3-2.3-7.8-.3-1.4-1.1-2.8.1-4.2 3.3.3 6.4-1 9.6-1.4.7-.1 1-.7 1.3-1.2 1.4.2 1.2 1.5 1.6 2.4.5 1.1.6 2.5 1.9 3.1.5-1.9-1.9-3.5-.5-5.4 3 .3 5.9-.6 8.8-.8 4.4-.4 8.8-.9 13.2-1.1 13.5-.7 27.1-.5 40.6-.6 3.7-.3 7.2.7 10.8.5z"></path><path fill="#68e6b3" d="M426.1 160.6c-1.8.2-3.1 1.4-4.4 2.3-6.8 4.8-14.4 7.1-22.9 7.7.3-9.3-.6-18.6-2.5-27.7 2.7.3 5.4 1 8 2 3.6 1.3 7.1 2.8 10.5 4.6 1.3.9 2.9 1.4 4.5 1.5 1.8 0 2.8-.7 2.5-2.5-.8-5.5-.2-11.1-1.4-16.5-.5-2.6-1.8-5.1-3.8-6.9-.9-.7-1.2-2-.7-3 1.3-3.7 1.9-7.6 1.7-11.6 0-3.8-1-7.6-3-10.9-.8-1-.8-2.4.1-3.3 4-5.5 6.4-12.1 6.8-18.9.2-2.9-.2-5.7-1-8.5-2.8-9.2-10.8-13.4-20-10.6-1.7.5-3.4 1.3-4.9 2.2-1.4.9-2.8 1.9-4.2 2.8-.9-.3-1-1.2-1.3-1.8-5.9-11.3-17-17.3-28.8-15.6S340.1 57 337.6 69.1c-.6 2.6-.8 5.3-.6 7.9.1 1.3-.2 1.8-1.7 2-12.7 1-22.3 11.1-23.8 25-.8 7.4.5 14.9 3.6 21.6-.4.9-1.3.8-1.9 1-7.3 1.2-14.5 3.3-21.2 6.3-.9.6-2.1.4-2.8-.4-1.1-1-2.2-2-3.1-3.1-.4-.7-1-1.1-1.8-1.2 3.5-4.8 6.9-9.6 10.3-14.4 8.3-11.7 15.2-24.3 22.1-36.8 5-9.1 10-18.3 16.7-26.3 8.2-10 17.9-17.8 30.5-21.5 8.8-2.6 17.6-1.9 26.2 1.1 6.5 2.3 12.6 5.7 18 10 3.9 3.3 7.1 7.3 9.5 11.9 4.6 8.2 8 17.1 10.1 26.3.9 4.2 1.5 8.6 1.6 12.9.4 8.9.4 17.8 0 26.8-.2 5.5-1 11-1.5 16.4-.3 3.7-.8 7.4-.9 11.1 0 5-.3 10-.8 14.9zM206.3 198.7c.4.6.6 1.4.6 2.1.9 12.5 1.1 25.1.5 37.7-.2 4.2-1 8.4-2.3 12.4-1.2-1.8-3.3-1.5-4.9-1.6-4.4-.3-8.8-1.1-13.3-.8-10.7.9-21.5 1.2-32.1 3.3-.3.1-.6.3-.8.4-1.5.5-3.3 0-4.7 1.2-4.1 1.2-8.3 2.4-12.3 4-4.5 1.7-7.2-.7-6.4-5.5.4-2.1 1.1-4.1 1.4-6.1.6-1.1 1.4-2 2.4-2.8 2.3-2.2 3.9-5 5.9-7.4 9.3-11.2 20.7-20.5 33.6-27.2 6.9-3.7 14.4-5.4 22-7 3.5-.6 7-1.5 10.4-2.7z"></path><path d="M149.6 253c0-.8.2-1.4 1.2-1.4 1.1 0 2.2.2 3.3.7 4.6 3.5 9.7 6.4 14.6 9.6 8.8 5.5 17.4 11.4 25.8 17.5 3.8 2.8 3.7 2.8.5 6.3-2.4 2.6-4.7 5.2-6.9 8-10.6 14-21.3 27.8-32.3 41.5-8.5 10.7-15.7 22.1-20.6 35-3.6 9.3-5.2 19.3-4.6 29.3.2 2.3.6 4.6 1.1 6.9.7 3.3 0 4-3.2 3.1-37-10.2-73.9-20.5-110-33.7-3.9-1.4-7.8-2.8-11.7-4.1-1.8-.7-3.5-1.6-5-2.8-1.8-1.3-2.1-2.9-1.9-5 1.9-15.6 6.3-30.8 13-45 7.4-15.9 15.5-31.4 26.3-45.3 8.6-11.2 18.2-21.6 28.5-31.2 5.2-4.8 10.2-9.6 15.5-14.2 1.2-1.1 2.8-1.4 4.3-.8 15.9 4.2 31.5 9.5 46.6 15.8-.1 1.3-.5 2.3-2 2.3-1.5.5-2.7-.3-3.9-.8-12.9-5.2-26.1-9.6-39.4-13.5-2.2-.6-3.7-.1-5.4 1.3-6 4.9-10.8 11-16.9 15.7.3 1.2 1.2 1.1 1.9 1.3 23.3 7.5 46.1 16.6 68.2 27.2 13.5 6.5 26.5 13.9 38.8 22.4 1.7 1.2 2.8 1.4 4.2-.5 3.7-5 7.7-9.9 11.9-14.5 1.5-1.6.1-2.2-.9-2.9-7.8-5.6-15.8-11.1-24-16.1-5.1-3.2-10.1-6.6-15.3-9.7-.7-.7-1.7-1.1-1.7-2.4z"></path><path fill="#010101" d="m214.1 59.2-5.1 6.1c-.4.5-.8 1-1.3 1.4-.4.4-1 .5-1.5.2s-.6-.9-.4-1.4c.4-.7.8-1.3 1.3-1.8 3.2-3.8 6.4-7.6 9.3-11.7.5-.8 1.4-1.3 2.4-1.2 1.1.1 1.1 1 1.3 1.9 1.3 5.5 2.6 10.9 4 16.4.3 1 .9 2.3-.6 2.7s-1.7-1-1.9-2c-.8-3.3-1.6-6.6-2.3-9.9-.1-.6-.2-1.3-1-1.6-3.4 16.9-7.2 33.6-8.7 50.7-.2 2.6-.7 5.3-1.1 7.9-.1.7-.3 1.4-.6 2.1-.9 2-2.5 2.2-3.9.4-.7-.9-1.3-1.9-1.8-3-2.3-4.6-4.4-9.2-6.7-13.7-1.5-3.4-3.5-6.5-5.8-9.3-.6 1-.9 2.2-1.1 3.4-3.1 16.1-6.3 32.2-8.9 48.5-.5 3.1-1.2 6.2-1.8 9.4-.1.8-.5 1.5-1.3 1.5-1.1-.1-1.3-1-1.2-1.9.6-3.1 1.3-6.2 1.8-9.4 2.4-16.5 5.7-32.8 8.9-49.1.2-1.2.5-2.3.9-3.4 1-2.6 2.7-2.9 4.6-1 1.2 1.3 2.2 2.6 3 4.1 3.2 5.1 5.6 10.7 8.2 16.1.7 1.8 1.7 3.5 2.8 5.1 1.1-2.7 1.1-5.4 1.3-8 1.4-15.3 4.5-30.4 7.6-45.5.2-.8.3-1.7.4-2.5 0-.8.6-1.7-.8-1.5z"></path><path fill="#030202" d="M103.1 167.4c-.2.6-.5 1.5-.8 2.2-2.9 7.3-7.1 13.9-11.5 20.4-7.1 10.5-16 19.6-26.4 26.8-2.5 1.8-5.2 3.3-8 4.5-.8.3-1.6.5-2.4.6-.6 0-1-.4-1.1-.9-.1-.4.1-.9.5-1.1.3-.2.5-.3.8-.4 10.4-4.4 18.5-11.9 25.8-20.2 8-9.1 14.9-19 19.7-30.3.4-.9.8-1.7 1.3-2.5.3-.5.9-.6 1.4-.4.4.4.7.7.7 1.3z"></path><path fill="#040404" d="M167.5 405.8c.2 3.1 1 6 2.2 8.9.3.7.6 1.3.8 2 .2.5-.1 1.1-.5 1.3-.5.3-1.1.2-1.4-.2-.7-.9-1.3-1.9-1.7-3-1.3-2.9-1.6-6.1-2.5-9.1-.8-7.1-1-14.3-.6-21.5.1-1.7.3-3.4.6-5 .1-.6.3-1.2.7-1.7.3-.5.9-.6 1.4-.4.4.2.6.6.6 1-.1.7-.3 1.5-.4 2.2-.8 8.5-.9 17.1.8 25.5z"></path><path fill="#050505" d="M266.5 1.9c0-.9 0-1.9 1.2-1.9 1-.1 1.1.8 1.3 1.5 3.1 11.5 6.1 22.9 9.7 34.2.2.5.3 1 .3 1.5.1.6-.3 1.1-.8 1.2-.5.2-1.1-.1-1.3-.6-.6-1.3-1.2-2.7-1.6-4.1-2-6.8-3.8-13.7-5.7-20.5-.8-2.9-1.6-5.7-2.3-8.6-.4-.8-.6-1.8-.8-2.7zM464.2 119.3c-.6-.1-1-.5-1-1.1 0-.4.1-.8.3-1.2 3.1-9.4 6.3-18.9 10.6-27.9.5-1 1.1-2 1.7-3 .3-.5.9-.7 1.4-.4.5.2.8.8.6 1.3-.1.5-.4 1-.6 1.4-3.7 8.1-6.9 16.4-9.6 24.9-.5 1.6-1.2 3.2-1.8 4.8-.2.7-.9 1.2-1.6 1.2z"></path><path fill="#0b0909" d="M108.3 182c-.1.4-.3.8-.5 1.1-1.8 3.4-3.9 6.7-6.2 9.9-.1.2-.3.3-.4.5-.7.7-1.6 1.4-2.5.6-1.1-.9 0-1.6.6-2.3 2.1-2.9 4.1-5.9 5.8-9 .4-.7.9-1.4 1.4-2.1.4-.4 1-.5 1.4-.1.4.1.5.6.4 1.4z"></path><path fill="#0a0a0a" d="M181.5 403.3c.1 1.6.9 3 1.4 4.5.3.9 1.1 1.9-.1 2.5s-1.9-.6-2.3-1.5c-.8-1.8-1.4-3.7-2.1-5.5-.4-1.6-.7-3.3-1-4.9-.1-.6-.2-1.2-.3-1.9-.1-.9.1-1.8 1.2-1.8.9 0 1.1.7 1.3 1.5.3 2.3.9 4.8 1.9 7.1z"></path><path fill="#090707" d="M284.3 48.9c1.8.2 3.1 1.7 3 3.5 0 1.6-1.2 2.8-2.8 2.9-1.6-.2-2.8-1.7-2.7-3.3 0-1.9 1-3.2 2.5-3.1z"></path><path fill="#0a0909" d="M462.6 134.1c-.1 1.8-1.5 3.3-2.9 3.2-1.3-.2-2.3-1.4-2.2-2.7 0-1.7 1.3-3 2.9-3.1h.1c1.4.2 2.1 1.1 2.1 2.6z"></path><path fill="#fff" d="m494.3 409.5.6-.5c0 .3-.3.5-.6.5z"></path><path fill="#040605" d="M317.3 373.8c-.1.8-.7 1-1.4.9-1-.2-2-.8-2.6-1.6-1.9-1.9-3.5-4-4.7-6.4-1.4-2.5-2.8-5-4.1-7.5-.3-.6-.5-1.1-.7-1.7-.2-.6.1-1.3.7-1.5.5-.2 1 0 1.3.4.4.6.8 1.2 1.2 1.9 2.8 5.1 5.3 10.4 9.9 14.3.2.1.5.7.4 1.2z"></path><path fill="#010101" d="m467.7 409.7-8.5 5.6c-2.2 1.5-4.1 3.4-5.6 5.5-2.6 3.5-3.2 3.6-7.5 2.2-8.1-2.8-16.6-4.4-25.2-4.6-5.5 0-10.8.7-15.3 4.2-1.2.9-2.4.5-3.6.1-3.5-1.1-7.1-2.2-10.6-3.2-3.6-1-7.2-1.6-11-1.6-1.8-.1-3.6.2-5.3.9-.9.4-1.7.5-2.3-.3s-.1-1.6.5-2.3c.3-.3.5-.7.7-1.1 12.1-13.5 27.4-19.7 45.2-20.9 15.3-1 29.7 1.9 43.7 7.6 1.7.7 3.3 1.5 4.9 2.4 2.4 1.4 2.5 2.4.7 4.5-.2.4-.5.7-.8 1z"></path><path fill="#030403" d="M468.5 358.3v1.1c-.1.8 0 1.8-1.3 1.8-1 0-1.2-.8-1.3-1.5-1.6-11.1-5.5-21.7-8.2-32.5-.2-.9-.3-1.9-.4-2.8.1-.6.6-1 1.2-1 .3 0 .6.2.8.5.2.3.3.5.4.9 2.5 10.3 6.2 20.2 8.3 30.6.3 1 .4 2.2.5 2.9z"></path><path fill="#fff" d="M370.4 297.4c-12.8 1.5-25.6 1-38.5.3-14.8-.9-29.6-2.8-44.3-4.5-3.3-.4-6.5-.6-9.8-.9-1.5.1-2.8-1-2.9-2.5v-.1c-1.7-10.4-3.5-20.7-4.2-31.2-.7-9.8-1.6-19.7-2.2-29.5-.6-10.4-1.1-20.8-1.6-31.2-.3-6.4-.5-12.7-.6-19.1-.2-4.2.3-8.5 1.4-12.6 2.4-8.6 6-16.8 10.8-24.3 1.1-1.8 1.2-1.8 2.8-.5 6 4.8 12.2 9.2 18.8 13.1 11.2 6.9 22.1 14.2 33.3 21.2 1.5.8 2.6 2.2 3.1 3.8.2.7.4 1.4.7 2.1 1.7 2.8 1.1 5.5-.2 8.3-4.4 10.1-9.7 19.8-14.4 29.8-2.6 5.5-5.2 10.9-7.9 16.3-1.4 2.8-1.8 6-1.1 9 1.1 4.9 2.5 9.9 3.8 14.8.1.5.3 1 .6 1.5.9 1.7 1.6 2 3.3 1 2.1-1.2 4-2.8 5.7-4.6.8-1.1 1.7-2.2 2.7-3.2 3.8-3.6 5.3-8 5.5-13.1.4-9.6 2.4-18.9 3.7-28.4 1.1-8.3 2.4-16.6 2.3-25-.1-1.2.5-2.3 1.5-2.8 2-1.2 3.7-3.1 5.8-3.8s4.1 1.2 6.3 1.6c1.8.4 3.6.6 5.4.6 9.2 0 18.5.3 27.7-.7 10.3-1.1 20.7-2.1 30.4-6.3 1.7-.8 3.5-1.6 5.4-2.4 1.1 6.1 2 12.1 3.4 17.9.6 2.4 1.1 4.7 1.8 7.1 6.9 25.7 15.5 50.9 24.8 75.8 1.4 3.8 2.6 7.6 4 11.6-11 5.4-22.8 7.2-34.9 10.7 1.1-2 1.9-3.4 2.6-4.8 4.6-8.3 8.5-17.1 11.5-26.2.8-3.1 1.4-6.2 1.6-9.4v-1c0-1.2 0-2.7-1.5-2.8s-1.4 1.6-1.4 2.7c0 5.8-1.7 11.3-3.9 16.6-2.5 6.2-5.3 12.3-8.5 18.1-1.1 2-1.1 2-3.3.9-13.3-6.6-25.8-14.6-38.3-22.7-1.5-1-1.6-1.8-.9-3.3 3.9-9 9.1-17.2 14.5-25.4 3.5-5.4 7.2-10.8 10-16.6 2.2-4.2 3.4-8.7 3.7-13.4.2-5.3 1.8-7.7 8.8-8.7.8-.1 1.7-.1 2.5-.2.5-.1 1-.5 1-1.1.1-.7-.4-1.1-1.1-1.3-5.9-1.7-13.5 3.3-13.7 9.5-.2 7.1-2.9 13.2-6.5 19-2.4 3.9-4.9 7.7-7.3 11.5-5.4 8.5-10.9 16.9-14.8 26.3-.1.3-.4.5-.7.8-1-.5-2-1.1-3.1-1.5-1.7-.7-2.5-.3-3.1 1.5-.2.5-.3 1-.4 1.5-1.3 4.9-1.3 4.9 2.9 7.8 1.4 2.5 0 4.9-.2 7.4-.2 3.5-.7 6.9-.9 10.4-.3 1.8-.5 3.5-1.9 4.6z"></path><path fill="#68e6b3" d="M412.9 122.4c-8.3-5-17-8.4-23.6-15.4-1-1.1-2.2-2-3.4-2.9-5.4-4-11.4-3.3-15.8 1.8-1.2 1.4-2.2 2.9-3.2 4.4-1.1 1.6-2.3 2.7-4.4 2.4-1.5-.3-3.1.4-3.9 1.7-.8 1.3-1.9 1.5-3.2 1.7-2.9.5-5.9.5-8.9.2-6.9-.9-12.7 1.4-17.9 5.7-.6.5-1.1 1-1.5 1.6-1.5 2.1-1.4 3.8.8 5.1 2.9 2 5.3 4.6 7.1 7.6 4.3 6.7 9.6 12.7 15.7 17.9 7.3 6 15.5 9 25 8.1 1.6-.1 3.2 0 4.8-.3 2.7-.4 3.3-1.6 2-3.9-2.2-4.5-3.9-9.2-5.1-14-.5-1.9-.5-3.9-.2-5.9 5 1.6 10.1 2.8 15.2 3.7 1.1.2 1.3.9 1.4 1.8.5 3 1.1 6.1 1.4 9.1.6 5.2.8 10.4.6 15.6-.2 2.6-.2 2.7-2.8 2.8-7.6.4-15.3.3-22.9.2-6.4 0-12.7-.6-19-1.8-2.4-.5-4.7-1.3-6.8-2.6-13.6-8-27.5-15.6-40.9-23.9-3.5-2.2-6.9-4.6-10.1-7.1.3-1.2 1.3-1.2 2-1.5 7-2.6 14-4.9 21.5-5.5 2.4-.2 2.7-.9 1.6-3-3.9-7.8-5.6-16-3.7-24.7 2-9.3 7.2-16 16.5-18.8 2-.7 4.1-1 6.3-.9 2.3.3 2.6 0 2.3-2.3-.6-4-.2-8.1 1-12 2.9-9.1 8.7-15.5 18-18.1 9.9-2.8 20.4 1.2 26.5 9.9 1.3 1.9 2.4 4 3.3 6.2 1 2.4 1.8 2.6 3.7.9 1.9-1.7 4-3.1 6.3-4.3 10.1-4.7 19.1.7 19.8 11.9.4 6.4-1.2 12.8-4.6 18.3-.5 1-1.2 2-1.9 2.9-1.6 1.8-1.6 3.2-.3 5.3 4.7 7.1 3.8 14.4 1.3 22.1z"></path><path fill="#fff" d="M263.6 178.7v3.7c.1 12.3 1 24.6 1.6 36.9.6 11 1.5 22 2.3 33 .3 3.6.2 3.7-3.4 4.2-3.4.4-6.8.4-10.2.1-11.4-.9-22.7-2.8-33.8-5.8-1.1-.3-2-.6-1.6-2.1 1.8-8.2 1.1-16.5 1.5-24.7.4-6.7.1-13.4-.9-20-.2-1.7-.5-3.3-.9-5.2 8.2-2 16.6-3.1 24.2-6.6s15.2-7 20.5-14l.7.5z"></path><path fill="#68e6b3" d="M370.4 297.4c.4-1.6.7-3.3.9-4.9.4-5.7 1-11.5 2-17.1 7.2 4.9 14.6 9.3 22.3 13.3 7.1 3.7 14 8 21.3 11.1.1 1.2-.6 1.8-1.1 2.5-3.1 4.9-6.1 9.9-9.5 14.7-5.6 8.3-9.8 17.4-12.6 27-.9 3.2-2.1 6.2-3.8 9.1-2 3.2-3.5 3.4-5.6.2-3.6-5.8-6.2-12.1-7.8-18.7-2.7-11-3.8-22.4-3.1-33.8.1-3.1.1-3.1-3-3.4z"></path><path fill="#fffefe" d="M418.8 148.2c-2.2-.4-3.6-1.5-5.2-2.3-7.3-3.5-15-5.9-23-7.1-12.4-2-23.4-7.4-33.5-14.6-2-1.5-3.9-3.2-5.6-5 1.7-.1 2.9-.1 4.1-.3 1.9-.3 3.9-.4 5-2.3.6-1 1.5-1 2.5-.9 2.4.2 4.7-1 5.8-3.2.8-1.3 1.7-2.4 2.5-3.7 1.3-1.8 3.1-3.2 5.2-4 2-.9 4.3-.7 6.1.5 1.6.9 3 2 4.3 3.3 4.4 4.8 9.9 8 15.4 11.1 3 1.7 6.1 3.4 9.1 5.1 3.9 2.1 6.4 6.2 6.5 10.6.2 4.3.5 8.4.8 12.8z"></path><path fill="#68e6b3" d="M329.3 405.3c-15.9-1.7-31.5-.1-47 3.3-.7.2-1.5.3-2.2.4-1.6.2-3.1.5-3.1-2.1 0-1.5-1.6-1.8-2.9-1.8-3.5.1-7 .4-10.4 1.1-3.3.5-6.7 1.1-10 1.7-.8.3-1.5.4-1.4-.8 6.1-5 13-8.8 20.4-11.3 3.4-1.2 6.9-2.1 10.3-3.1 3-.7 5.9-1.8 8.6-3.3.3-.3.7-.4 1.1-.5 5.2-.4 10.4-.9 15.1 2.1 3.4 2.1 6.8 4.3 10.2 6.4 4.3 2.8 8.7 5.2 13.3 7.4-.2 1.3-1.2.5-2 .5z"></path><path fill="#fffefe" d="M375.8 159.2c-3.6 1.2-7 .6-10.4-.3-4.7-1.2-9.1-3.5-12.9-6.7-5.9-4.9-11-10.7-15.1-17.1-2.1-3.1-4.1-6.2-7.4-8.2-1.2-.7-.9-1.5-.1-2.3 2.9-2.7 6.4-4.6 10.3-5.4 1-.1 1.9.1 2.7.7 1.9 1.1 3.6 2.6 5 4.4 2.3 2.9 4.4 6 6.4 9.1 1.8 3 3.7 5.9 5.7 8.8 4.3 6.6 8.8 12.8 15.8 17z"></path><path fill="#fff" d="M342.9 169.8c-1.4 1.8-2.6 4.4-4.6 5s-3.9-1.7-5.7-2.9c-15-10-30.6-19-45.4-29.3-1.6-1.1-3.2-2.4-4.8-3.6-.9-.7-1.1-1.4-.3-2.4 1-1.3 1.9-2.8 3-4.3 5 4.6 10.4 8.8 16.1 12.6 5 3.3 10.1 6.2 15.3 9.2 8.3 4.9 16.7 9.7 25 14.5.5.3 1 .7 1.4 1.2z"></path><path fill="#feffff" d="M422.9 165.6c.2 6.4 1.1 4.9-4.1 7.5-6.8 3.4-14.2 4.8-21.7 5.9-12.1 1.8-24.3 2.1-36.5 2-3.1-.1-6.1-.6-9-1.6-2.4-.8-3.8-2.2-4-4.7-.1-1-.6-2-.3-3.1 14.1 3.3 28.2 3.2 42.4 2.6 4.9-.2 9.7-.6 14.5-1.3 5.3-.8 10.5-2.6 15.2-5.3 1.2-.6 2.2-1.2 3.5-2z"></path><path fill="#fefefe" d="M208.3 195.2c1.8-.5 3.5-1.8 4.9-1.2s1.1 2.8 1.7 4.2c1.8 5.1 2.2 10.4 2.3 15.7.3 9.8-.1 19.5-.6 29.3-.2 2.9-.8 5.7-1.8 8.4-.8 2.1-3.1 3.1-5.1 2.3-.6-.2-1.1-.5-1.5-1-.4-.4-.4-1-.2-1.5.3-1.2.6-2.5.9-3.7 1.8-7.4 1.5-15 1.6-22.5.1-8.1-.2-16.1-1-24.1-.2-2-.6-4-1.2-5.9z"></path><path fill="#fff" d="M373.3 267.2c2.4 1.4 4.6 2.6 6.6 3.9 12.2 8.1 24.5 15.9 37.7 22.5.7.4 1.8.5 2 1.4.1.7-.2 1.5-.8 2-.6.7-1.2 0-1.7-.2-2.6-1.2-5.2-2.5-7.7-3.8-12-6.3-23.8-12.9-35.4-20-1.9-1.2-2-1.5-1.3-3.9l.6-1.9z"></path><path fill="#fefefe" d="M331.8 243.9c-4.9-2.5-9.9-4-15-5.8 1.4-3 2.8-5.9 4.1-8.9.2-.8 1.1-1.2 1.9-1h.1c3 .8 5.9 1.8 8.7 3 .9.3 1.5 1.2 1.3 2.2-.4 3.4-.7 6.8-1.1 10.5z"></path><path fill="#fff" d="M353.8 125.4c6.1 4.4 12.6 8.2 19.5 11.3.9.4 1.4.8 1.3 1.8-.5 5.7 1.6 10.8 3.3 16.1.2.7.8 1.3.4 2.3-2.9-1.4-5.6-3.3-7.9-5.6-.8-.8-.5-1.8-.5-2.7.1-2.8-.3-5.5-1.3-8.1-1.6-4.5-5.4-7.9-10.1-8.9-1.9-.3-3.5-1.5-4.3-3.2-.4-.7-.9-1.4-1.4-2.1-.1-.7.2-1.1 1-.9z"></path><path fill="#fefefe" d="M320.1 259.5c-1.6-6.5-3.7-12.2-4.2-18.6 4.9 1.4 9.6 3.2 14.1 5.6.6.4 1.5.7.8 1.6-2.9 4-5.7 8.2-10.7 11.4z"></path><path fill="#fff" d="M333.4 228.8c-3.4-1.4-6.9-2.6-10.5-3.5 1.2-2.5 2.4-4.8 3.5-7.2.5-1 1.1-1.5 2.2-1.1.2.1.4.1.6.1 5.9 1.3 5.9 1.3 4.9 7.2-.2 1.5-.4 2.8-.7 4.5zM335.5 215.8c-2.3-.4-4.6-1-6.9-1.8 1-2.7 2.2-5.2 3.6-7.7.9-1.5 2.3-.4 3.4-.3s1.1 1 .9 1.9c-.4 2.6-.7 5.1-1 7.9zM340.6 183.1l-.5-.7c-1.5-2.5-1.5-4.7 1.1-6.6 1.2-1.1 2.2-2.2 3.1-3.5 1 2.3.8 4.6 1.8 6.5.3.6-.2.9-.6 1.3-1.4 1.1-3.1 2.2-4.9 3zM366.8 147.1c-3.2-4-6.1-8.2-8.7-12.5 5.3.8 9 5.8 8.7 12.5zM338.2 194.2c-.3 3-.5 5.4-.8 7.7-.1 1.6-1.1 1.5-2.3 1.2-1.3-.3-.9-1.2-.5-1.9 1.2-2.1 1.8-4.4 3.6-7z"></path><path fill="#afb9b9" d="M350.1 123c-1.1-1.3-2.2-2.5-3.2-3.6 1.2.1 1.2.1 4.2 3.5-.2.3-.6.4-1 .1z"></path><path fill="#fff" d="m350.1 123 1-.1c1 .7 1.9 1.5 2.6 2.5l-1 1c-1-1-1.9-2.1-2.6-3.4z"></path><path fill="#68e6b3" d="M329.3 405.3c.6-.3 1.6.2 2-.7.7-.1 1.1.3 1.7 1-1.5.3-2.6.5-3.7-.3z"></path><path fill="#76c6a0" d="M252.2 407c.3.6.9.7 1.4.8-.6.6-1.3.5-2 .7s-.8-.1-.7-.7l1.3-.8z"></path><path fill="#395243" d="M251 407.7c.1.4.4.6.7.7-.5.5-1.1.8-1.5.3-.3-.4.2-.8.8-1z"></path><path fill="#fff" d="M149.6 253c7.7 4.9 15.3 9.8 23 14.7 6.6 4.3 13 8.7 19.4 13.3.7.5 1.3 1 2.2 1.7-5.9 5.9-10.8 12.6-15.8 19-34.9-24-73.4-39.6-113.2-52.6.2-.4.4-.7.6-1 6-5.7 12.1-11.3 18-17.1 1.1-1.3 2.9-1.7 4.5-1.1 15 4.2 29.7 9.3 44.1 15.4.5.7.6 1.6.2 2.3-.6 1.6-1 3.2-1.3 4.9-.6 3.7 1.4 5.5 5 4.2s6.9-2.6 10.5-3.5c.8-.1 1.8-.3 2.8-.2z"></path><path fill="#fff" d="M176.6 304.3c-5.4 6.9-10.6 13.6-15.9 20.2-8.1 10.1-16.1 20.3-22.1 31.8-4.2 8.1-7.9 16.5-9.4 25.5-1.3 7.7-1.9 15.4-.4 23.1.1.4 0 .8.1 1.5-3.3-.6-6.6-1.5-9.9-2.5-32.9-9.3-65.8-18.6-98-30.3-4-1.5-8-2.6-12-4-5.9-2.1-6.5-3.1-5.5-9.4 2.3-14.5 6.7-28.5 12.9-41.8 7.7-16.4 16.2-32.2 27.7-46.3 5.5-6.8 11.2-13.3 17.3-19.6.9-.9 1.6-1.6 3.2-1 22 7.6 43.9 15.6 65 25.6 14.1 6.6 27.8 14.2 40.9 22.6 1.6 1 3.1 2.2 4.7 3.3.3.3.7.7 1.4 1.3z"></path><path fill="#68e6b3" d="M466.3 406.9c-2 1.7-4.2 3.3-6.5 4.6-3.4 2-6.4 4.7-8.6 7.9-1.1 1.7-2.2 1.8-4 1.1-7.3-2.6-14.9-4.2-22.7-4.8-4.4-.4-8.8-.1-13 1-1.4.4-3.1.6-4.1 1.5-2.9 2.6-5.7 1.6-8.8.6-6.6-2.2-13.3-4-20.4-3.6-.1-1 .6-1.3 1-1.7 8.5-8 19.1-13.3 30.6-15.3 18.6-3.4 36.3-.6 53.5 6.8 1.1.4 2.2 1 3 1.9z"></path><path fill="#040404" d="M271.4 194.7c.6-11.5 1.2-23.1 4.3-34.3.3-1.2.3-3.1 2-2.6s.7 2.2.5 3.3c-2.4 9.1-3 18.4-3.6 27.7-.2 3.6-.3 7.2-.4 10.8 0 .4-.1.8-.1 1.3-.1.5-.5.9-1 1-.7.1-1.3-.4-1.3-1-.1-1.4-.1-2.8-.1-4.1-.3-.8-.3-1.4-.3-2.1z"></path><path fill="#060606" d="M279.7 258.5c.1 1.1.1 1.6.1 2 0 .6-.1 1.3-.9 1.5-.7.2-1.4-.3-1.6-1v-.2c-.3-1.5-.5-2.9-.7-4.4-.8-7.1-1.6-14.1-2.4-21.1-.1-.6-.1-1.3-.1-1.9 0-.8.2-1.5 1.1-1.6s1.3.5 1.4 1.4v.3c1 8.4 2.1 17 3.1 25z"></path><path fill="#010101" d="M377.3 83.6c0 5.3-2.2 10.3-6.1 13.8-1 1-2.2 1.7-3.4 2.3-4.1 1.7-7.7 0-9.1-4.1-.8-2.4-.8-5-.2-7.5.9-4.4 3.2-8.4 6.8-11.2 2.5-1.9 5.3-2.9 8.3-1.4 2.8 1.4 3.8 4.1 3.8 7.2v.9zM403.3 92.1c-.2 4.5-1.5 8.4-4.6 11.4-4.7 4.6-10.5 3-12.1-3.3-1.3-5.5.2-10.3 3.9-14.4 2-2.3 4.6-3.7 7.7-2.7 2.9.9 4.3 3.3 4.9 6.2 0 .9.1 1.9.2 2.8z"></path><path fill="#0b0d0b" d="M378.9 96.9c1.6 0 3.1.6 4.4 1.5.7.5 1 1.1.6 1.9-.4.6-1.1.7-1.7.4-1.5-1-3.4-1.4-5.1-.9-.5.2-1-.3-1.2-.9-.2-.5.1-1.1.6-1.3.7-.5 1.6-.8 2.4-.7z"></path><path fill="#161515" d="M413.4 134c0 1.3-.3 2-1.1 2.1-.6.1-1.2-.4-1.3-1v-.1c-.3-1.3-1.1-2.5-2.1-3.5-.5-.4-.5-1.1-.2-1.5 0-.1.1-.1.2-.2.5-.5 1.2-.6 1.7-.1 1.4 1.1 2.4 2.6 2.8 4.3z"></path><path fill="#090b09" d="M289.8 395.2c1.2-.1 1.9.1 2.1.8.2.6-.1 1.3-.7 1.5h-.1c-2.6.8-5.2 1.8-7.7 3-.5.3-1.1.1-1.4-.4-.4-.5-.4-1.2.1-1.6 0 0 .1 0 .1-.1.9-.8 1.9-1.3 3.1-1.6 1.6-.6 3.3-1.2 4.5-1.6z"></path><path fill="#010000" d="M101.5 319.5c2.3 1.3 4.1 3.1 5.9 3.2s3-2.4 4.3-3.9c6.5-7.2 14-13.3 21.8-19 2.4-1.8 4.9-3.4 7.5-4.8 1.5-.9 3.3-.9 4.8 0 4.2 2.4 8.2 5.2 12 8.3 2.5 2.1 2.4 3.7-.2 5.6-2.4 1.9-5 3.5-7.5 5.3-6.6 4.5-13 9.5-19 14.8-2.3 2-4.3 4.4-6.5 6.7.1.7 1.1 1 1.4 1.8.4.6.3 1.3-.2 1.7-.4.4-1 .4-1.5 0-.5-.3-.9-.6-1.3-1-18.3-15.5-39.2-26.3-61.4-34.8-4.5-1.7-9.2-3.4-13.8-4.7l-2.1-.6c-.9-.3-2-.6-1.7-1.9s1.5-.9 2.4-.6c1.4.5 2.2-.2 3.1-1 2.6-2.4 5.2-4.7 7.7-7.1 1.3-1.5 3.5-1.8 5.2-.8 2.6 1.5 5.3 2.7 8.1 3.5 1.9.5 2.1 1.7.6 3.2-2.1 2-4.2 3.9-6.3 5.9-.5.4-1 .8-1.4 1.3 0 .4.1.5.3.6 3.6 1.6 3.7 1.6 6.2-1.5 3.9-4.9 8.3-9.4 13-13.5 3.5-2.9 4.2-3 8.2-.7 1.7.9 3.4 1.7 5.1 2.7 1.8 1.1 2.1 2.2.9 4-1.4 1.9-2.9 3.6-4.6 5.3L82 308.4c.2.4.3.6.4.7 3.6 2.1 3.6 2.1 6.3-1.1 6.9-8.1 13.9-16 22.3-22.6 3-2.4 3.2-2.5 6.4-.6s6.4 3.7 9.6 5.7c2.8 1.7 2.9 2.8.6 5.2-5.4 5.7-11.1 11.1-17.2 16.1-2.8 2.4-5.7 5-8.9 7.7z"></path><path fill="#020101" d="M10.6 352.7c.2-1.7.6-3.3 1.2-4.9 2-6.4 4.7-12.5 8-18.3 2.3-4.2 4.6-8.3 6.6-12.7.2-.5.5-1 .8-1.4.3-.5.9-.7 1.4-.5.5.2.8.7.7 1.3-.2.8-.5 1.6-.8 2.4L22.8 330c-3.5 6.8-6.9 13.6-8.8 21.1-.8 2.9-.8 2.9 2.2 3.5 10.7 1.8 21.3 3.6 31.7 6.9 15.6 5 31.3 10 46.8 15.5 1.3.5 2.6.9 3.9 1.4.8.3 1.3.8 1 1.7-.2.7-1 1.1-1.7.9 0 0-.1 0-.1-.1-1.4-.4-2.8-.9-4.2-1.3-16.7-5.8-33.5-11.4-50.4-16.5-8.6-2.4-17.3-4.3-26.1-5.5-1.2-.2-2.3-.4-3.4-.7-2.6-.8-3.2-1.9-3.1-4.2z"></path><path fill="#010101" d="M94.2 341.5c-7.6 3.4-14.7 7.7-21.2 12.8-1.2 1-2.6 1.9-3.9 2.7-1.8 1-3 .5-3.6-1.5-1-3.1-.8-6.3-1-9.5-.1-1.8 0-3.6 0-5.5-1.5.1-2.3 1.1-3 1.8l-8.7 8.4c-1.2 1.3-2.7 2.5-4.3 3.3-2.2 1-3.6.1-3.2-2.3.4-2.3.8-4.6 1.5-6.8.4-1.5.6-3.1.6-4.7-1.3-.2-2 .6-2.8 1-4.2 2.2-8.5 4.4-12.7 6.6-.6.3-1.2.5-1.8.7-.5.2-1.1-.1-1.4-.5-.3-.6-.1-1.3.5-1.6l.6-.3c5.5-2.8 10.9-5.7 16.3-8.7 2.3-1.3 3.9-.4 4.2 2.4.1 2.1-.2 4.2-.8 6.3-.3 1.4-1.1 2.7-.7 4.7 1.8-1.7 3.4-3.2 5-4.8 2.4-2.5 5-4.9 7.7-7.2.6-.5 1.3-1 2.1-1.5 2.1-1.1 3.6-.3 3.7 2.1.2 3.6.3 7.2.5 10.8.1 1.3-.1 2.8 1 4.2 7.8-6.4 16.3-11.8 25.4-16.4-.8-.1-1.5-.3-2.3-.5-.7-.2-1.1-.8-.9-1.5.1-.5.5-.9 1.1-1 2.6-.2 5.3 0 7.9.5 1.5.3 1.6 1.7 1.1 2.8-1.5 2.9-3.2 5.7-5.1 8.4-.4.6-1.2.8-1.8.4-.6-.4-.8-1.2-.4-1.8.5-1 1.1-2 1.7-3.1 0-.3.1-.6.3-.8v-.3l-.3.1c-.7 0-1 .1-1.3.3z"></path><path fill="#080707" d="M108.9 348.2c-1.3-.5-2.7-.9-4.1-1-.6 0-1.1-.4-1.1-1v-.2c-.1-.7.4-1.3 1.1-1.3h.3c1 .1 2.1.3 3.1.6 1.4.4 2.5.4 3-1.3.1-.4.3-.8.5-1.2.2-.6.9-1 1.6-.8.9.3 1 1.1.8 1.8s-.5 1.4-.8 2c.6 1 1.8.6 2.5 1.1.6.4.9.9.7 1.6-.2.5-.7.8-1.2.9h-.3c-3-1.4-4.2.3-4.9 2.9-.2.7-.8 1.4-1.7 1-1-.4-1-1.3-.7-2.1s.8-1.9 1.2-3z"></path><path fill="#141111" d="M27.5 334.5c1.1.3 2.3.5 3.5.9.6.2 1 .8.8 1.4v.1c-.1.5-.6.9-1.2.8-1.4 0-2.7-.3-4-.8-.7-.2-1.3-.8-1.1-1.6s1.1-.9 2-.8z"></path><path fill="#9cb6b6" d="M95.6 341.6c-.1.3-.2.6-.6.6-.3-.2-.6-.5-.8-.7.3-.5.8-.7 1.3-.7.3.1.3.5.1.8z"></path><path fill="#060706" d="M410.2 403.8c.8 0 1.6 0 1.8.9s-.6 1.3-1.3 1.5c-2 .7-4 1.3-6 2-2.5.9-4.9 2-7.1 3.5-.8.5-1.6.9-2.2-.1s.1-1.6.8-2.1c2.9-1.8 5.9-3.3 9.1-4.4 1.6-.6 3.2-1 4.9-1.3z"></path><path fill="#fff" d="M368.8 94.2c.1-1.4 0-2.7-.5-4.1-1-2.7-2.6-4.6-6.3-4.3 1.5-3.6 3.5-6.4 6.9-7.9 2.1-.9 4 0 5 2.1.8 1.8.9 3.7.5 5.6-.5 3.6-2.2 6.9-4.9 9.4-.6.1-.9-.1-.7-.8z"></path><path fill="#c3b9b9" d="m368.8 94.2.8.8c-.3.5-.6 1.3-1.3.8s0-1.1.5-1.6z"></path><path fill="#fff" d="M396.4 101.6c-.2-1.7-.7-3.3-1.4-4.8-.9-1.7-2.1-3.2-4.3-3.3-1.4 0-1.2-.7-.8-1.6.7-2.1 2.1-3.9 3.9-5.3 2.5-1.7 5-1 6.1 1.8 1.7 4.1.2 10-3.5 13.2z"></path><path fill="#e07476" d="M156.8 306.1c-2.6 1.8-4.8 3.4-7.1 5-9.3 6.5-18.5 13.2-26.4 21.4-.7.7-1.2 1.5-2.3.5-3.6-2.8-7.2-5.5-10.8-8.3-.1-.5.1-.9.5-1.2 7.9-8.5 16.7-16.1 26.1-22.7 6.3-4.5 6.3-4.5 12.9-.2 2.6 1.6 4.9 3.5 7.1 5.5z"></path><path fill="#e17476" d="M88.5 312.3c1.7-2 3.1-3.6 4.6-5.3 5.8-6.9 12.3-13.2 19.2-19 1.4-1.2 2.5-1.6 4.2-.5 3 2 6.2 3.7 9.3 5.5 0 1.1-.9 1.5-1.4 2.1-7.3 7.9-15.7 14.6-23.8 21.6-1.1 1-1.9 1.3-3.3.5-2.8-1.7-5.6-3.1-8.8-4.9z"></path><path fill="#e07476" d="M70.1 303.8c4.6-5.5 9.1-10.6 14.3-14.9 3.2-2.7 2.9-2.2 5.7-.6 1.5.8 3 1.6 4.6 2.5-.8 1.5-1.9 2.8-3.2 3.9-3.7 3.9-7.4 7.8-11.2 11.7-.7.7-1.2 1.3-2.4.8-2.5-1.2-5-2.2-7.8-3.4z"></path><path fill="#df7375" d="m67.5 292.6-6.8 6.9c-.4.4-.9.5-1.4.3-2.7-.9-5.3-1.8-8.3-2.8 2.7-2.9 5.5-5 8.1-7.5.6-.5 1.4-.5 2.1-.1l6.3 3.2z"></path><path fill="#606868" d="M95.6 341.6c0-.3-.1-.6-.1-.8s.4-.4.5-.2c.3.4.1.8-.4 1z"></path></g></svg>