<svg xmlns="http://www.w3.org/2000/svg" enable-background="new 0 0 427.6 492.9" viewBox="0 0 427.6 492.9" id="online-money-transfer"><g><path fill="#ffd574" d="m100.3 436.9 1.3-.5c1.1-.4 1.2-1 .8-2.1-1.3-3.1-2.2-6.2-2.8-9.5-.5-3.2-.5-6.4-.3-9.6 1.6-.1 2.5 1 3.6 1.9 6.9 5.4 13.6 11.2 21.7 14.8 5.6 2.5 11.4 4.3 17.7 3.3.4 0 .7-.1 1.1-.3.1-.1.1-.2.2-.2-.9-.4-2-.5-3-.3-6.9.4-13.2-1.6-19-5-7.6-4.3-14.4-9.7-21.1-15.3-.5-.4-.9-.9-1.2-1.5-6.1-7.5-10-16.6-11.3-26.2-.9-6-.6-12.1.8-18 11.2-.3 22.5-.5 33.7-.4 2.5 0 4.9.5 7.4.6 16.2.3 31.9-2.9 47.6-6.7 9.6-2.3 18.9-5.9 27.5-10.8 7.2-4.1 13.7-9.4 19.2-15.7.5-.6.8-1.5 1.8-1.5.4 6.4 2.3 12.5 4.1 18.6 1.9 6.9 3.4 13.9 4.5 21 1.4 9.9 2 19.8 1.6 29.8-.1 1.8.7 3.4 2.2 4.4 2.6 1.9 5.4 3.5 8.3 4.9-.8 7.2-2.4 14.2-4.7 21-.2 1.1-.7 2.1-1.5 2.9-2 .7-3.3-.9-4.7-1.7-3.5-1.9-3.6-2-5.6 1.2-6.5 10.4-16.2 16.1-27.7 19.1-4.8 1.3-9.7 2.3-14.5 3.7-6.9 2.1-12.6 6.4-18.1 10.9-2.6 2.1-5.2 4.4-8.7 5.2-3.1.7-4.4-.2-5-3.4 2.5-2.8 6-4 8.7-6.4-2.7 1.1-5.3 2.5-7.6 4.3-1 .7-1.9 1.8-3.4 1.6-1-.5-1.6-1.7-1.4-2.8.8-2 2.8-2.5 4.3-3.7.8-.7 2-.9 2.7-2.1-3.5 1.2-5.9 3.7-8.8 5.4-3-.6-4-2.8-2.6-5.4 1.3-2.5 3.6-4 5.9-5.3 2.8-1.6 5.8-2.9 8.8-3.9 3.9-1.3 3.9-1.3 1.6-4.9-1.2-1.7-2.2-3.6-3-5.6-.2-.7-.3-1.3-.5-2-.2-.9-.3-1.9-.6-2.8-2.2-24.6 7.6-43.5 28.3-57.3-1.1-.1-2.2.3-3 1.1-16 11-24.8 26.1-26.4 45.5-.3 3.7.1 7.4.1 11 0 .6-.2 1.2-.6 1.7-1.6 1-3.5 1.4-5.3 1.1-17.6-2.4-32.5 3.7-45.8 14.5-3.3 2.6-7.3 3.4-10.8 5.5-1.6.9-3-.3-3.8-1.8-.4-1.7 1-2.4 1.9-3.4s2.3-1.5 3.3-3.1c-3.3 1.3-4.6 4.5-7.4 5.7-1.6-.6-2.5-2.3-2.3-4 1.8-2 3.8-3.6 5.6-5.6-2.6.9-3.8 3.9-6.7 4.5-2.2-1.5-1.6-3.5-.6-5.4 2.7-5.2 7.2-8.1 12.4-10.3.3-.4.7-.5 1.1-.7z"></path><path fill="#e1f0ff" d="M100.3 436.9c-.8 1.2-2.3 1.5-3.4 2.2-4 2.3-7.8 4.9-9.9 9.3-.8 1.6-.9 3.2.5 4.5.7.2 1.2.6 1.1 1.4.5 1.3.7 2.8 2.2 3.5.8-.2 1.6 0 2.2.6.4.6.9 1.1 1.5 1.6.6.6 1.6.7 2.3.2 2.1-1.4 4.4-2.4 6.8-3 1.3-.3 2.3-1.5 3.4-2.4 9.3-8.1 20.3-12.6 32.2-15 3.8-.6 7.6-.6 11.3 0 2.7.3 5.5.2 8.2-.2 1-.6 1.9-.7 2.3.7.2.8.5 1.5.8 2.2 1.3 2.7 2.9 5.4 4.7 7.8 1.2 1.7 1.1 2-.9 2.7-3.9 1.1-7.7 2.7-11.2 4.6-2.2 1.2-4.3 2.6-5.6 4.8-1.4 2.4-.9 3.9 1.9 5 .8-.5 1.8-.2 2.3.5v.1c-.1 1.1.4 2.2 1.3 2.8.7.2 1.8-.4 2.1.8 1.3 3.1 2 3.5 5.3 2.5 3-.9 5.3-3 7.6-4.9 5.2-4.2 10.6-8.3 17-10.6 1.7-.6 3.5-1.2 5.3-1.6 7.3-1.4 14.5-3.6 21.3-6.5 5.5-2.4 10.3-6.3 13.8-11.2 1.5-2.1 3.3-4 4.4-6.4.4-.9 1-.9 1.8-.5 2.4 1.3 4.9 2.6 7.3 3.9.7-.2 1.4 0 2 .3 6.4 3.1 13 5.6 19.6 8.1.7.2 1.3.4 2 .6 8.8 3.3 17.8 5.9 27 8 .9.1 1.7.5 2.6.6 10.9 2.6 22 3.5 33.1 4.3h1.5c7.9-.2 15.8-.9 23.6-2.3.8-.1 1.5-.2 2.2-.4 5.8-1.2 11.5-2.8 17.1-4.7 6.3-1.8 12.4-4.2 17.6-8.4 3.4-2.7 6-6.3 7.5-10.4 1.2-3 .2-5.8-1.1-8.5-.4-.8-1.5-1.5-.8-2.7 6.9 0 13.8 1.3 20.2 4 4.9 1.9 9.2 5.3 12.3 9.6 1.4 2.1 1.7 4.8.9 7.1-1.1 3.5-3 6.8-5.6 9.4-5.7 6.3-13.1 10-20.9 13-10.2 3.9-20.9 6.7-31.7 8.4-6.5 1.1-13 2.1-19.6 2.8-4.4.5-8.8.7-13.2 1.1-4.9.5-9.8 0-14.6.5-5.3.5-10.5 0-15.8.6-5 .5-10 .1-14.9.5-6.5.5-13 .7-19.6 1.1-5.2.4-10.5.6-15.7 1.1-5.8.5-11.5 1.1-17.2 1.9s-11.4 1.8-17.2 2.5c-4.6.6-9 1.6-13.6 2.3s-8.9 1.4-13.3 2.1l-14.7 2.1c-2 .3-4 .4-6 .5-3.5.2-7 .5-10.5.8-11.5.8-23.1.5-34.6.4-3.8 0-7.7-.6-11.5-1-7.2-.8-14.4-2.1-21.4-3.9C85 485 74.3 481.4 64 477c-5.6-2.4-11-5.1-15.7-9.2-2.3-1.8-3.9-4.5-4.6-7.4-.5-3 .5-6 2.6-8.1 3.1-3.3 7-5.8 11.2-7.4 6.9-2.9 14.2-4.4 21.6-5.7 5.8-1 11.6-1.7 17.5-2.2 1 .3 2.3-.3 3.7-.1z"></path><path fill="#ffd574" d="M96.5 274.9c0-1.4-.5-2.7-1.4-3.8-1.1-1.3-2-2.7-2.9-4-3.6-4.9-8.7-7.9-13.8-10.9-1-.6-2.1-1.1-3.2-1.6-.9-.4-1.6-1-1.4-2.1.1-.9.8-1.7 1.8-1.9 1.9-.6 4-.8 5.8-2.4-2.7-1.2-5.2-2.3-7.1-4.2-.6-.6-1.2-.2-1.8 0-1.6.6-3.2.9-4.9.9-1.6.1-3.1-.9-3.6-2.5-2.1-5.3-2.8-11.1-2-16.8.2-1.4.4-2.7.6-4.1 1.1-7.8 5.4-13.4 11.5-17.8 4.1-2.9 8.7-4.9 13.2-7 7.6-3.5 15.6-6.3 23-10.3 3.9-2.1 7.4-4.9 10.3-8.3 1.8-2.1 3.6-4.2 6.2-5.5 2.8-1.4 6.2-1.4 9 .1 1.4.6 2.5 1.7 3 3.1.3 1.1 1.3 1.9 2.4 1.9 9.5.8 18.6 4.1 26.4 9.7.9.8 2.2 1 3.3.4 2.3-1 4.8-1.2 7.3-.7 6.5 1.3 10.3 7.9 7.4 13.9-.7 1.3-.6 3 .4 4.2 4.7 7.4 7.8 15.8 8.8 24.5-4.2 1.8-6.3 5.9-9.5 8.7-6 5.3-12.4 10.2-19 14.8-14.4 10-29.1 19.7-44.7 27.7-.5.3-1 .5-1.5.7-3.3 1.8-6.3 2-9.2-1.1-2-2.2-4.3-4.1-6.7-5.7-2-1.3-3.8-2.3-6-.4-.6.6-1.2.7-1.7.5z"></path><path d="M96.5 274.9c.5-.3.9-.6 1.4-.9 2.7-1.9 3-1.9 5.9 0 2.4 1.7 4.7 3.5 6.8 5.6 3.9 3.9 4.1 3.8 9.1 1.6 6.3-2.9 12.2-6.6 18.1-10 11.6-6.8 22.6-14.6 33.6-22.4 6.9-4.8 13.4-10.1 18.9-16.6 1.1-1.4 2.4-2.6 4.4-2.3.3.3.7.5.8.8 1.8 5.7 5 10.9 6.7 16.6 2.9 9.9 6.9 19.4 10.8 28.9 5.4 12.7 9.4 26 11.9 39.6 1.2 5.9 1.6 11.9 1.2 17.9-1.9 2.9-4.2 5.6-6.8 7.9-9.2 8.5-20.1 14-31.8 18-8.8 3.1-18 4.8-27.1 6.7-12.7 2.5-25.7 3.3-38.6 2.4-8.6-.7-17.2-.6-25.8.3-1.6.2-3.2 0-4.7.1-.9 0-1.8-.3-2.5-1-2.7-8.1-2-16.4-1.5-24.7.2-2.5.5-4.9.8-7.3-.8-.7-1.5-.3-2.2-.2-4.5.6-9.1.2-13.4-1.1-1.2-.3-2.4-.7-3.7.1-1.1.7-2.5.4-3.8.1-1.7-.3-3.4-.7-5.1-1.1-2-.5-2.3-1.5-1.1-3.2.3-.4.7-.8 1.1-1.3 2.3-9.1 3.4-18.5 3.1-27.9-.1-1 .2-2 .8-2.9 2.2-1.5 4.4-.4 6.7-.1.9.6 2.6.7 2.2 2.3s-1.9 1.4-3.2 1.3c-1.8.4-1.5 1.9-1.5 3.1-.2 6.4-.8 12.9-2 19.2-.3 1.6-.7 3.2-1.3 4.8-.3.7-.5 1.5.5 1.8 1 .3 1.8.3 2.3-.8.4-.9.6-1.8.6-2.7.2-3.7.9-7.3.7-11-.1-1.8.2-3.7.8-5.5.6-1.7.2-3.5.4-5.2.1-1.2.5-2.2 2-2.1s1.6 1 1.7 2.1c.1 1.4 0 2.8.1 4.1.2 5.7-.1 11.4-.9 17.1-.3 2 .4 2.9 2.3 3.3 3.5.7 7.1.8 10.6.3 1.7 0 3.2-1.4 3.3-3.1 1.4-7.8 4.4-15.2 5.7-23 .1-.9.4-1.8.8-2.6 1.8-1.4 3.1-3 2-5.6-.2-.6-.2-1.3.2-1.9-.1-2.2.7-4.4.6-6.6 0-1.4-.1-2.6-1.4-3.4l-.2-.2c-3.8-4.3-3.2-3.7-.8-7.7.2-.1.5-.8.5-1.6z"></path><path fill="#ffd574" d="M326.4 458.9c-3.7-.4-7.5-.4-11.2-.8-3.5-.4-7.1-.8-10.6-1.3-4-.6-7.9-1.4-11.8-2.4-1.1-1.6-1.1-3.5-1.2-5.3-.3-8.3-1.3-16.6-3.1-24.8-.1-.6-.1-1.3 0-1.9.1-.3.3-.6.6-.8 6-.5 12.1-.3 18.2-1.3 2.3-.4 4.5-.8 6.8-1.2 3.5 7 6.5 14.3 9 21.7 1.5 4.7 2.7 9.6 3.6 14.5.1 1.3.4 2.5-.3 3.6z"></path><path d="M393.9 420.8c4.5 7.3 4.1 12.5-1.7 19-3 3.3-6.6 6-10.6 7.9-3.4 1.7-7 3-10.6 3.8-1-.5-1-1.5-1.2-2.4-2.6-12.7-6.7-25.1-12.2-36.9-.4-.9-1.4-1.9-.2-2.9 4-.5 8-1.2 12.1-.9 9.7.8 18.1 4.5 24.4 12.4z"></path><path fill="#ffd574" d="M352.1 456.6c-5.5 1-11 1.7-16.6 2-2.5 0-5.1.4-7.7.3-.5-.7-.8-1.5-.9-2.3-1.6-11.9-5.8-22.9-10.9-33.6-.6-1.2-1.6-2.3-1.3-3.9l21.6-5c.6-.1 1.2-.3 1.8-.5 2.8 3.8 5 8 6.6 12.4 3.4 8.7 5.8 17.7 7.3 26.9.4 1.2 1 2.5.1 3.7z"></path><path fill="#ffd574" d="M357.3 409.3c-.2.5-.1 1.1.2 1.6 6.2 12.6 10.6 26 13.1 39.8 0 .3.1.5.2.8-5.5 2.2-11.2 3.8-17 4.8-1.2-1.2-1.1-2.9-1.4-4.4-2.4-11.7-5.3-23.1-10.8-33.8-.8-1.5-2.1-2.8-2.3-4.6 6-1.5 11.9-3.1 18-4.2zM63.7 298.9c-.2 3.2.5 6.4.2 9.6-.4 5.2-1 10.4-1.9 15.6-.4 2-.7 4-2.1 5.6-.1-1.4-1.3-2-2.2-2.7-4.4-3.2-8.6-6.7-12.4-10.6-6.8-6.9-13.4-14-18.3-22.5-1.4-2.4-1.4-2.8.3-4.9 2.4.6 3.5 2.7 4.9 4.4 4.3 5.1 4.2 5.1 8.3 0 1.5-1.9 2.6-4.3 5.2-5 .3.5.6.9 1 1.3 4.4 3.3 8.7 6.6 13.7 9.1 1 .6 2.3.7 3.3.1zM290.7 454c-4.2-.7-8.3-1.7-12.3-3-5-1.5-10.1-2.8-14.9-4.9-.5-3.1.9-6 1.4-9 .9-5.8 1-11.5 1.4-17.3.1-.3.3-.6.6-.7 4.8 1.1 9.8 1.4 14.6 2.2 1.6.2 3.3.2 4.9.2.9 0 1.8-.2 2.6.4l-.3.3c-1.2 1.1-.6 2.4-.3 3.6 1.7 8.2 2.7 16.5 2.9 24.9.1 1 .2 2.3-.6 3.3z"></path><path fill="#ffd574" d="M261.7 445.2c-2.2-.3-4.1-1.4-6.2-2.2-3.7-1.5-7.4-3-11.1-4.6-1-.3-1.8-.8-2.6-1.5-.5-.7-.2-1.4 0-2.1 2.4-6.9 4.4-13.8 4.8-21.1 0-.5.2-.9.5-1.2 5.4 2.3 10.9 4.2 16.5 5.8 1 .3 2.2-.3 3.1.6l-.1.1c-1 .7-.9 1.8-.9 2.8-.1 6.7-.9 13.3-2.4 19.8-.1 1.4-.1 2.9-1.6 3.6z"></path><path fill="#020202" d="M45.7 288.4c-2.4 2.5-4.6 5.2-6.7 8-1.7 2.5-2.9 2.5-5 .2-2.3-2.5-4.5-5-6.8-7.5-1.3-1.9-2.9-3.6-4.5-5.2-4.2-4.3-7.8-9.1-11.7-13.7-1.3-1.5-1.1-2.6.7-3.5 3.3-1.9 6.8-3.4 10.4-4.4 2.5-.5 5-1.3 7.3-2.5.9-.6 2.1-.4 2.7.4 1.8 2 3.7 3.9 5.3 6 3.8 5 7.8 9.8 12 14.5 1.5 1.7 1.5 2.4-.2 3.9-1.2 1.1-2.5 2.4-3.5 3.8z"></path><path fill="#131313" d="M72.7 310.5v-5.6c-.7-.2-1.5-.2-2.3 0v4.6c0 .7.1 1.5-.6 2-1.2-3.2-1.3-6.7-.2-9.9.3 0 .5.1.8.2.7.3 1.5-.1 1.7-.8.4-.7-.4-1.1-.8-1.5s-.7-.6-1-.8c.2 0 .4-.1.5 0 1.8 1.9 3.8.9 5.8.3 6.1-1.8 12.4-2.5 18.7-2 2.1.1 1.4-1.5 2.1-2.2 0 .7.1 1.4.3 2.1 1.3 3.4 1.3 3.4-1.9 5.2-3.1.3-6.2.1-9.3.2-3.5.1-6.9.7-10.3 1.7-1.5.3-2.5 1.7-2.4 3.2 0 1.2.5 2.7-1.1 3.3z"></path><path fill="#030201" d="M99.3 412.5c2.7 1.8 5.3 3.7 7.7 5.8 3.9 3.1 7.9 6 12.1 8.8 5.5 3.7 11.7 5.9 18.3 6.6 1.9.1 3.9 0 5.8-.3.8 0 1.9-.3 2 .8s-1 1.4-1.9 1.5c-3.4.6-6.8.5-10.2-.3-5.7-1.3-11.1-3.6-15.9-6.8-6-3.8-11.4-8.4-17-12.9l-.9-.6v-2.6z"></path><path fill="#050403" d="M339.4 413.5c1 .5 1.3 1.5 1.8 2.4 4.7 7.9 7.5 16.6 9.7 25.5 1.3 4.9 2.3 9.9 2.9 14.9l-1.7.4c-1.5-9.6-3.9-19.1-7.2-28.3-1.6-4.2-3.5-8.3-5.7-12.2-.4-.8-1.2-1.4-.9-2.5l1.1-.2z"></path><path fill="#060503" d="M314.9 419.2c4.6 8.4 8.2 17.3 10.7 26.5 1.2 4.3 2.4 8.7 2.4 13.3h-1.5c-1.5-10.3-4.5-20.4-8.7-29.9-1.2-2.7-2.5-5.3-3.8-8-.3-.7-.8-1.3.1-1.9h.8z"></path><path fill="#070606" d="M38.2 221.4c-1.3.1-2.6.2-3.9.2-.6.1-1.2-.3-1.3-.9v-.2c0-.6.4-1.1 1-1.2.7-.2 1.4-.3 2.2-.4 7.2-.2 14.3 1.5 20.7 4.9.5.3.9.6 1.3.9.4.3.5.8.2 1.2-.2.4-.7.7-1.2.5-.5-.2-1-.4-1.5-.7-5.5-2.9-11.4-3.9-17.5-4.3z"></path><path fill="#050505" d="m41 207.1 2.4.9c5.5 2.7 10.4 6.3 14.6 10.8.6.7 1.9 1.5.9 2.5-1.2 1.2-1.9-.2-2.6-.9-4.3-4.5-9.4-8.1-15.1-10.5-.4-.2-.8-.4-1.3-.6-.6-.3-.9-.9-.6-1.6v-.1c.3-.6.9-.5 1.7-.5z"></path><path fill="#080705" d="M247.2 412.6c.6 2.8-.1 5.5-.6 8.2-1.1 5.5-2.7 11-4.8 16.2-.6-.1-1.2-.3-1.7-.7 2.7-7.3 5-14.8 5.5-22.6 0-.7.2-1.3 1-1.2.2 0 .4.1.6.1z"></path><path fill="#0e0c0c" d="M47.1 241.4c-.1.5-.3.9-.7 1.2-1.5 1.4-2.6 3.1-3.4 5-.1.3-.2.5-.4.7-1.7 1.6-2.6 3.8-2.7 6.2-.1 1-.7 1.9-1.6 2.5-.2.1-.5.2-.8.1-.3-.2-.6-.6-.4-.9 1.9-2.6 1-6.3 3.8-8.7 1.3-1.1 1.7-3.3 2.8-4.7.6-.9 1.3-1.5 2.3-2 .6-.4 1-.1 1.1.6z"></path><path fill="#0d0b0b" d="M60.2 255.7c.1.6-.3 1.1-.8 1.3-3 1.2-5.2 3.9-8.2 5.1-1.1.5-2 1.4-2.5 2.4s-1.5 1.7-2.7 1.7c-.4 0-.7-.2-.9-.5-.2-.3-.1-.7.2-.9 0 0 .1 0 .1-.1 1.4-.4 2-1.6 2.7-2.7.2-.3.4-.7.7-.8 3.5-1.6 6.3-4.5 9.8-6.1.8-.1 1.5 0 1.6.6z"></path><path fill="#0c0c0c" d="M24.9 246.7c.3-2.5.6-4.8.8-7.1.1-.5.2-.9.8-.9.5 0 .9.4.9.9.1.4.1.7.1 1.1 0 .6-.1 1.3-.3 1.9-1 3.2-.4 6.7 1.5 9.5.7.9 1 2 .9 3.1-.1.4-.3.7-.7.8-.3.1-.7-.1-.8-.4v-.1c-.3-2-1.6-3.5-2.3-5.3-.5-1.1-.8-2.3-.9-3.5z"></path><path fill="#0b0909" d="M60.8 216.5c.1.6-.3 1.2-.9 1.4-.4.1-.8-.1-1.1-.4-.1-.1-.2-.3-.3-.5-1.3-2.6-3-4.9-5-6.9-.5-.5-1-1.2-.4-1.9s1.5-.3 2.1.3c2.1 2 3.9 4.5 5.2 7.1.2.3.4.7.4.9z"></path><path fill="#020201" d="M158.6 438c-2-23.9 6.5-43 26.2-56.9 1-.7 2-1.3 3.1-1.8.5-.3 1.1-.2 1.5.2.4.5.2 1.2-.3 1.6l-.1.1c-.5.4-1.1.7-1.6 1.1-14 9-22.7 21.6-25.9 38-1.1 5.8-1.4 11.8-.8 17.6.3.7.2 1.2-.6 1.4-1 .2-1.2-.5-1.5-1.3z"></path><path fill="#050403" d="M102.2 383.3c.6 0 1.1.4 1.1 1 .2 1 .3 2 .6 3 1.4 5.6 4.6 10.2 8.1 14.6.6.8 1.3 1.5 1.9 2.3.5.5.5 1.3 0 1.8-.6.6-1.2.3-1.7-.2-.3-.2-.6-.5-.8-.8-4.4-5-8.1-10.5-9.8-17.1-.3-1.1-.4-2.2-.5-3.3 0-.5.4-1.1 1.1-1.3z"></path><path fill="#060503" d="M174.5 410.9c.1-2 .5-4 1.3-5.9.4-1 1-2 1.8-2.8.6-.5 1.3-.9 1.9-.2s.3 1.1-.1 1.7c-2.2 2.8-3 6.4-2.3 9.9.1.8 0 1.5-.9 1.7s-1.2-.5-1.4-1.1c-.3-1.1-.4-2.2-.3-3.3z"></path><path fill="#0d0906" d="M156.4 471.5c-.7-.3-1.6.1-2.1-.8 2.8-2.2 5.7-4.2 8.9-6 .3-.2.7-.4 1-.5.7-.3 1.6-1 2.1.1s-.6 1.4-1.3 1.8c-3 1.6-5.8 3.6-8.6 5.4z"></path><path fill="#0f0b07" d="m153 467.9-2.3-.6c2.4-2.4 5.2-4.3 8.3-5.7.6-.3 1.3-.6 1.7.1.5.9-.2 1.4-.8 1.7-2.5 1.3-4.8 2.8-6.9 4.5z"></path><path fill="#110d09" d="M93.1 458.4c-.8.1-1.5-.1-2.2-.6 1.8-2.2 3.8-4.2 6.1-5.9.5-.4 1.1-.9 1.7-.3.8.8.1 1.4-.4 1.8-1.9 1.6-3.6 3.2-5.2 5z"></path><path fill="#0f0d08" d="M88.7 454.4c-.4-.5-.8-1-1.1-1.4 1.7-1.7 3.4-3.3 5.3-4.8.4-.5 1-.8 1.7-.9.7 0 1 .4.8 1.1-.1.4-.4.8-.8 1.1-1.9 1.6-3.9 3.2-5.9 4.9z"></path><path fill="#425048" d="M158.6 438c1.2 1.5 1.4 1.5 2.2 0 .4.9.6 1.8.5 2.8-.2.2-.4.2-.5-.1-.1-1.4-1.3-.9-2.1-1.1-.1-.5-.2-1.1-.1-1.6z"></path><path fill="#ffd574" d="M160.9 440.7c.2 0 .3 0 .5.1.7.4.5 1.1.5 1.6-.6-.4-1-1-1-1.7z"></path><path fill="#070604" d="M290.7 454c-.1-10.2-1.3-20.4-3.6-30.4-.4-1.8-.4-1.8 1.6-1.5 2.4 9.8 3.3 19.7 3.9 29.7 0 .9 0 1.8.1 2.8-.7 0-1.4-.2-2-.6zM261.7 445.2c1.4-4.8 2.3-9.7 2.8-14.6.4-3.4.6-6.8.6-10.2 0-1.3.5-1.6 1.6-1.3.5 6.5-.3 12.8-1.4 19.2-.3 2.6-1 5.2-1.9 7.7-.6-.2-1.3-.2-1.7-.8z"></path><path fill="#010100" d="M72.6 233.4c0-1.1.1-2.2 0-3.3-.1-1.9-1-3.6-2.6-4.7-1-.8-2-1.7-2.7-2.7-.9-1.1-1.1-2.6-.6-3.9.6-1.3 2-2.1 3.5-1.7 5.7.9 11.2 2.5 16 5.7 1 .7 2 1.5 1.6 2.9-.4 1.2-1.4 2-2.7 2-1.3.2-2.6.3-3.8.4-1 .1-2 .3-3 .6-2 .7-2.4 1.4-2.5 3.5-.1 1.7-.1 3.3-.2 5 0 .6-.2 1.3-.5 1.9-.4.9-1.1.9-1.7.1-.6-.7-.9-1.6-.9-2.6s0-2.1.1-3.2z"></path><path fill="#060403" d="M108.6 243.1c-1.2.1-2.1.1-3 .1-.7 0-1.3-.3-1.4-1s.5-1.1 1.2-1.2c2.8-.5 5.7-.4 8.5.2 5.8 1.2 11.3 3.6 16.1 7 .6.4 1.1.9 1.6 1.5.4.4.4 1.1.1 1.5-.4.5-1 .6-1.5.2-.6-.3-1.1-.7-1.6-1.1-4.5-3.1-9.5-5.4-14.8-6.7-1.7-.2-3.4-.4-5.2-.5z"></path><path fill="#050402" d="M105.9 246.9c.6.2 1.4.4 2.2.7 2.8 1.2 5.4 2.9 7.6 5 3.7 3.6 6.7 7.9 8.8 12.6l.6 1.5c.3.8.2 1.5-.6 1.9s-1.4-.3-1.7-1-.5-1.2-.8-1.8c-1.7-3.6-3.8-6.9-6.5-9.9-2.5-3-5.7-5.2-9.4-6.6-.3-.1-.7-.2-1-.4-.5-.3-.9-.7-.7-1.3s.7-.7 1.5-.7z"></path><path fill="#060504" d="M119.9 222.7c-2.3 0-3-.9-2.4-3.1.8-3.3 3.8-5.5 7.1-5.4.8-.1 1.6.5 1.7 1.4 0 .2 0 .4-.1.6-.2 1.3-.6 2.5-1 3.7-1 2.3-2.1 2.3-5.3 2.8z"></path><path fill="#090604" d="M117.6 234.7c2.8 0 5.5.3 8.2.9.7.2 1.4.4 2.1.7.6.2 1 .9.7 1.5v.1c-.2.6-.8.6-1.4.6s-1.1-.2-1.6-.3c-4.8-.9-9.6-1.7-14.4-.1-.7.2-1.3.2-1.6-.6s.2-1.2.8-1.6c1.4-.7 3-1 4.5-1.1.9-.2 1.8-.2 2.7-.1z"></path><path fill="#060403" d="M121.6 208.9c1.9 0 3.9.4 5.6 1.2.8.4 1.5 1 1.2 1.9s-1.2 1.1-2.1.9c-.2 0-.4-.1-.5-.1-3.3-1.5-7.3-1.1-10.2 1-.6.5-1.4.5-2-.1-.1-.1-.1-.2-.2-.3-.4-.7-.2-1.5.5-1.9 2.2-1.8 5-2.7 7.7-2.6z"></path><path fill="#050403" d="M181 204.2c-.1.7 0 1.6-.7 2-1.4.9-2.8 1.7-4.3 2.5-.8.4-1.7.1-2.2-.6-.6-.7-.6-1.8 0-2.5.5-.5 1.1-1 1.7-1.4.9-.6 1.9-1.1 2.9-1.6.6-.3 1.1-1.2 1.9-.6s.6 1.4.7 2.2z"></path><path fill="#0a0805" d="M185.8 226.8c-.4 2.4-1.3 4.6-2.7 6.6-.4.6-1 1.2-1.9.7s-.6-1.3-.1-1.9c1.2-1.9 2-3.9 2.5-6.1.2-.8.6-1.4 1.6-1.1.8.2.7.9.6 1.8z"></path><path fill="#0c0906" d="M177.4 197.6c0 .8-.2 1.7-.7 2.4-.3.6-1 .9-1.7.6-.7-.1-1.1-.8-.9-1.4v-.1c.5-1.1.2-2.4-.8-3.2-.4-.4-.5-1-.1-1.4l.1-.1c.4-.5 1.1-.7 1.7-.5 1.6.6 2.5 2.1 2.4 3.7z"></path><path fill="#1a170e" d="M129.7 176.6c.4 0 .8.1 1.2.3.4.1.6.5.6.8-.2 2-2.1.8-3 1.6-.4.3-.9.3-1.2-.1-.1-.1-.2-.3-.2-.5-.3-1.1.5-1.6 1.5-1.9.3-.1.7-.2 1.1-.2z"></path><path fill="#342c1c" d="M83.4 237.1c.8 0 1.2.3 1.3.9.1.5-.2 1.1-.8 1.2h-.4c-.6-.1-1-.6-1-1.2.1-.4.4-.8.9-.9z"></path><path d="M86.8 235.6c0 .6-.4 1-1 1-.5.1-1-.3-1.1-.8v-.2c-.1-.5.3-1 .9-1.1h.1c.6.1 1 .5 1.1 1.1zM68.7 236.1c-1 .1-1.6-.5-1.4-1.4.1-.7.7-1 1.4-.7.4 0 .7.3.8.6.1.2.1.5 0 .8-.1.4-.4.6-.8.7zM81.6 236.9c0 .8-.3 1.2-.9 1.3-.6 0-1-.4-1-1-.1-.5.2-1 .7-1h.2c.5-.2 1 .2 1 .7z"></path><path fill="#ffd574" d="M68.7 236.1c0-.3.2-.5.5-.6.2-.2.3-.3.4-.5.1-.2.3-.3.5-.4.4-.1.9 0 1.3.3l-.6 1.3-1.5 1.5c-.8-.3-.6-1-.6-1.6z"></path><path fill="#0f0c08" d="M69.3 237.7c-.3-1.3.2-1.8 1.5-1.5.2 1.5.1 1.6-1.5 1.5z"></path><path fill="#190e09" d="M71.4 234.9c-.5.2-1 .2-1.5 0-.4-.4-.4-1-.1-1.4l.1-.1c1.4-.2 1.6 0 1.5 1.5z"></path><path d="M69.9 233.4v1.5l-.1.2h-.2l-.2-.1-.6-1 1.1-.6z"></path><path fill="#fff" d="M148.5 345.3c1.1.9 2.1 2.1 2.9 3.3 1.1 1.4 1.8 1.5 3.3.5.4-.3.7-.6 1.1-.9 3-2.5 3.1-2.6.9-5.9 3.3-3 6.9-5.8 10-9.2 8.5-9.4 15.7-19.5 18.9-32.1 2.6-9.4.7-19.5-5.2-27.4-1.8-2.4-4-4.4-6.4-6.2 8.8-5.5 16.9-12 24.2-19.4.9 1.8 1.6 3.8 2 5.8 1.7 6.1 3.8 12 6.4 17.7 5.8 13 10.3 26.5 13.4 40.4 1.3 5.9 2 11.8 2.1 17.8.1 2.1-.7 4.2-2.3 5.6-6.3 6.6-13.8 11.4-21.8 15.5-9.1 4.6-18.9 7.2-28.9 9.3-8.3 2-16.6 3.4-25.1 4.2-7.2.5-14.4.6-21.6.1-8.9-.4-17.7-.6-26.5.7-3.8.5-3.9.5-4.3-3.5-.6-6.5-.6-13.1.2-19.6 1-10 3.5-19.6 6-29.3 2-7.5 3.4-15.1 4.3-22.8 0-.1.2-.3.3-.6 1.4 1 2.9 2 4.3 3 .3.2.6.5.7.8 1.1 3.2 2.5 6.2 1.4 9.9-3.7 12.5-7.2 25-10.8 37.5-.6 1.6-.4 3.3.3 4.8 1.6 3.1 3 6.3 4.6 9.5 1.3 2.6 2.6 2.7 4.6.6 1.1-1.2 2.3-2.4 3.4-3.6.3.2.7.5.9.8.3.3.7.5 1 .8.4.2.8.5 1.2.8.5.5.9 1.2 1.5 1.6 1.7 1.2 3.2.5 4.2-.7 3.1-3.5 7.1-4.7 11.5-5.3 5.6-.7 11.1-1.7 16.2-4.5.3-.1.7-.1 1.1 0z"></path><path fill="#fff" d="M182.4 292.1c-.3 7-2.3 13.9-5.7 20-4.9 8.8-10.8 17-18.8 23.4-1.3 1.1-2.4 3.3-4 3-1.5-.3-2.2-2.5-3.3-3.9-2.9-3.7-5.5-7.7-7.6-11.9-.7-1.2-.9-2.7-.5-4 .3-.8.3-1.6.6-2.4 3.8-10.4 5.1-21.3 5.4-32.3 0-3.6 1.6-7.1 4.5-9.4 3.3-2.8 7.4-4.6 11.8-5 3-.3 6 .7 8.2 2.7 6.3 5.2 9.1 12.2 9.4 19.8zM116.3 342.5c.4-5.3-.4-10.5-.7-15.8-.4-7.6-.9-15.1-1.4-22.7-.2-2 .2-3.6 2.1-4.6.5-.3.9-.6 1.3-1 1.9-1.6 4.1-2.8 6.4-3.6 5.7-2 11-5.1 16.4-7.9 1.1-.6 2.2-1.3 3.8-2.1-.2 3.6-.3 6.8-.6 9.9-.5 6-1.6 11.9-3.3 17.7-.3.9-.4 1.2-1.6 1-1.8-.4-3.4.6-4.9 1.5-.9.5-.8 1.6-.8 2.5.1 2.6.5 5.1 1.3 7.6-.2 2.7-2.2 4.4-3.8 6.3-3.4 4-7.6 7.3-11.4 10.9-.7.8-1.7 1.2-2.7 1.1-.2-.3-.2-.6-.1-.8zM72.7 310.5c.4-1.6.5-3.3.4-4.9 0-.9.2-1.5 1.2-1.9C81 301.4 88 301 95 301.3c.5 0 .9.3 1 .7-.4 1.6-.9 3.2-1.2 4.8-1.1 7.9-4.5 15.2-5.6 23.1-.1.8-.6 1.4-1.4 1.5-5.1 1.1-10.3 1-15.3-.5-.8-.2-1.1-.6-1-1.4s.2-1.5.2-2.2c.7-5.5 1-11.1 1-16.8z"></path><path fill="#fff" d="M192.7 235.8c1.1 2.4 2 4.4 3 6.3.7.9.5 2.1-.4 2.8l-.1.1c-1.9 1.7-3.6 3.7-5.6 5.4-6 5.1-12 10.2-18.7 14.3-.8.6-1.8.9-2.8.8-6.6-.9-12.3 1.5-17.4 5.5-2.6 1.8-4.5 4.4-5.6 7.4-.3.9-1 1.3-1.7 1.8-2.4 1.6-4.8 3.1-7.4 4.4-3.9 2-7.9 4-11.8 6-2.5 1.2-2.5 1.1-4.2-1-.8-1-1.7-1.9-2.6-3 17.3-7.5 32.7-17.9 48.1-28.4 7.5-5.1 14.9-10.3 21.6-16.4 2-2 3.9-3.9 5.6-6z"></path><path fill="#ffd574" d="M116.5 343.1c6.7-5.3 13.2-10.7 17.8-18.1 2.6 6.1 7.1 11 11.2 16.2 1.1 1.3 2.1 2.7 3.1 4.2-4.6 3.4-10.1 4.1-15.5 5.1-1.7.3-3.4.5-5.2.8-2.6.4-4.9 1.6-6.7 3.6-.6.8-1.4 1.5-2.3 2-1.8 1.1-2.1 1-4-.6.7-2.9 3.8-3.7 5.5-6-3 .5-3.9 3.8-6.6 4.2-.5 0-.9-.2-1.2-.7-.3-1.5.9-2.1 1.7-2.8 1.3-1 2.6-2.1 3.8-3.3-2.2.4-3.1 2.6-5.1 2.5-.4-.1-.7-.4-.5-.9.4-.3.3-.8.6-1.1.7-1.6 1.6-3 2.8-4.4.1-.3.2-.7.6-.7z"></path><path fill="#fefefe" d="M110.8 315.5c.5 8.6 1 17.1 1.6 25.7.2 1.6-.3 3.1-1.4 4.2-1.8 1.8-3.4 3.6-5.3 5.7-1.3-2.6-2.4-5-3.5-7.4-.5-1.1-.1-2.1.2-3.2 2.5-8.9 5-17.7 7.5-26.6 1.4-.2.2 1.2.9 1.6z"></path><path fill="#fff" d="M69.6 301.6c.5 3.3-.1 6.6.2 9.9-.3 5-.7 9.9-1.1 14.9-.1 1.6-.4 3.1-.6 4.7 0 .8-.7 1.5-1.5 1.4-.2 0-.3 0-.5-.1l-3.5-.6c2.5-4.8 2.9-9.9 3.6-15 .8-5 1-10 .8-15.1.8-.2 1.7-.2 2.6-.1zM137 316.7c.6 0 .7.5.9.9.5 1.7 1.1 3.3 1.8 4.9 2.3 5.1 5.3 10 8.8 14.4 1.8 2.4 3.6 4.7 5.3 7.1.4.5 1 1 .1 1.6-.7.5-1-.2-1.3-.6-2.2-2.6-4.3-5.3-6.5-8-1.7-2.2-3.4-4.3-5.1-6.5-2.8-3.5-4.5-7.7-5-12.1 0-1 .4-1.7 1-1.7zM110.9 285.6c-2.4 3-2.4 2.9-5.2 1s-5.5-3.7-7.5-6.5c2.3-3.7 2.4-3.8 5.5-1.2 2.6 2.1 4.8 4.4 7.2 6.7zM112.9 296.6c-1.9-3-2.1-5.6 1.2-7.7 0 0 .3 0 .4.1 3.9 4.6 4.5 3.2-1.6 7.6z"></path><path fill="#ffd574" d="m112.5 349.2.7.7c-.2 1.2-.9 2.3-1.9 3-.4-.2-.7-.7-.5-1.1.4-1 .9-1.9 1.7-2.6z"></path><path fill="#596464" d="M110.8 315.5c-.4-.5-.3-1.3-.9-1.6-.2-.6 0-1 .8-1.5.3 1 .3 2.1.1 3.1z"></path><path fill="#d1d7c5" d="m116.5 343.1-.7.7c-.1-.5.1-1 .5-1.3.1.2.1.4.2.6z"></path><path fill="#ffd574" d="M113.1 348.1c.1.5-.2.9-.6 1.1-.1-.4.2-.9.6-1.1z"></path><path fill="#d6e1e1" d="M72.4 221.3c-.3 1-1.1 1.1-2 1-.5 0-.8-.4-.8-.9v-.1c.1-.8.8-1.4 1.6-1.3h.2c.6.2 1 .8 1 1.3z"></path><path fill="#fff" d="M122.1 218.6c-.1.9-.8 1.2-1.6 1.2-.5.1-1.1-.3-1.1-.8v-.4c.2-.8.9-1.2 1.7-1.1.6 0 1 .4 1 1v.1z"></path><path fill="#c5c179" d="M69.3 235c.1 0 .3 0 .4.1l-.5.4c0-.1.1-.3.1-.5z"></path><path fill="#040404" d="M215.6 317.7c-.2.8.6 2.6-1.2 2.6s-1.3-1.8-1.4-2.9c-.5-7.6-1.9-15.2-4.1-22.5-.8-2.6-1.8-5.2-2.6-7.8-.2-.6-.4-1.2-.5-1.9-.1-.6.3-1.1.9-1.2.5-.1.9.1 1.1.5.2.3.3.7.5 1 4 10 6.4 20.6 7.3 31.3v.9z"></path><path fill="#060505" d="M195.8 255.9c-.1-.5 0-1 .3-1.5s.9-.7 1.4-.4c.2.1.4.3.4.5.2.4.3.9.3 1.3.9 5.9 2.7 11.5 4.4 17.1.7 2.3.6 3.4-.4 3.4-1.6 0-1.7-1.5-2-2.6-1.8-5.4-3.2-11-4.1-16.6-.2-.5-.3-.9-.3-1.2z"></path><path fill="#0e0d0d" d="M215.5 332.2c-.4 1.8-.6 3.6-1.6 5.2-.4.6-1 1.5-2 .9s-.5-1.3-.2-1.9c.7-1.5 1.2-3.1 1.4-4.7.2-.8.5-1.5 1.4-1.3s1.2 1 1 1.8z"></path><path fill="#100b07" d="M111.3 352.9c-.2-1.5 1.4-2 1.9-3 1.1-.9 2.3-1.8 3.4-2.7.4-.3.9-.6 1.4-.8.5-.1.9.1 1.1.6.1.3 0 .6-.2.8-.4.5-.9.9-1.4 1.3-1.8 1.3-3.5 2.9-5 4.6-.5-.1-.9-.3-1.2-.8z"></path><path fill="#120d09" d="M113.7 354.3c1.6-1.4 3.1-2.8 4.7-4.2.4-.4.9-.7 1.4-.9.5-.3 1-.5 1.5 0s.2 1.2-.4 1.6c-2.1 1.6-4.1 3.4-6.1 5.3l-1.1-1.8z"></path><path fill="#fff" d="M47 280.9c-.7-1.2-1.5-2.3-2.4-3.4-4.5-4.6-8.7-9.5-12.8-14.5-.5-.8-1.5-1.1-2.3-.6-1.4.7-2.9 1.1-4.5 1.3-1.2-.1-2.4.2-3.4 1-2.8 1.2-5.8 2.2-8.4 4 4.1 5.1 8 10.1 12.7 14.4 1.3 1.9 2.7 3.6 4.4 5.1 1.9 2.5 4 4.7 6.2 7 1-1.1 9.4-11.5 10.1-11.8 1.3-.5 1.2-1.4.4-2.5z"></path><path fill="#030202" d="M264.4 30.9c.2-.8.4-1.5.8-2.2 1.3-2 .9-3.8.1-5.8-1.7-3.9-2.5-8.1-2.4-12.4 0-1.3.3-2.6.8-3.8 1.1-2.1 2.9-2.7 5.1-1.7 2.8 1.3 2.8 1.3 5-.7 1.5-1.5 3.2-2.8 5.1-3.8 2.7-1.3 4.4-.5 5 2.2s.9 2.7 3.6 2.7c2.6 0 5.1-.5 7.7-.2 4.6.6 6.5 3.2 4.4 7.3-2.5 5-3.8 10.4-5.5 15.6-1.3 4.2-3.9 7.8-7.4 10.5-2.3 1.9-5.4 2.7-8.3 2.1-.9-.1-1.8-.6-2.4-1.2-.4-.3-.4-.9-.2-1.3.3-.4.8-.5 1.2-.2 1.8 1.1 3.9 1.3 5.9.5 1.1-.4 2.2-1 3.1-1.8 3.4-2.8 5.7-6.6 6.8-10.8.9-4.7 2.6-9.3 4.9-13.5.2-.3.3-.7.4-1 .8-2.5-.1-4-2.7-4.3-1.8-.1-3.7-.1-5.5 0-1.1 0-2.2.2-3.3.2-2.8-.1-3.7-.8-4.5-3.5-.7-2.3-.9-2.3-3-1.2-1.7 1-3.3 2.3-4.7 3.8-1.7 1.7-3.4 2.1-5.7.8s-3.6-.5-3.9 2.2c-.4 4.3.3 8.7 2.1 12.7 1.2 2.3 1.2 5.1-.1 7.4-.6 1.3-1 2.8-1 4.3 0 .3-.2.7-.6.7-.5.1-.9-.3-1-.8-.3-.9-.2-1.9.2-2.8z"></path><path fill="#060505" d="M141.7 117c-.2.2-.3.4-.5.5-.3.2-.7.3-1.1.3-11.1 2.7-21.1 7.9-30.6 14-13.1 8.3-25.5 17.4-36.6 28.2-4.3 4.3-8.3 8.9-12.1 13.6-.7.9-1.4 2.9-2.7 2-1-.7.9-1.9 1.5-2.8 8.2-11 18.2-20.3 29.2-28.6 10.4-7.9 21.2-15.3 32.8-21.2 5.6-2.9 11.5-5.1 17.6-6.7.6-.2 1.2-.3 1.9-.3.4 0 .6.3.6.7v.3zM65.4 128.7c-.2.6-.7.8-1.2 1.1-20.5 12.1-36.7 29-51.9 47-3.7 4.4-6.6 9.3-9.9 14-.5.7-.9 2.4-2 1.7s.3-1.7.8-2.4c12.1-19.6 28.1-35.5 45.5-50.2 5.1-4.1 10.5-7.9 16.2-11.2.5-.4 1.1-.6 1.7-.8.6-.1.9.2.8.8z"></path><path fill="#070505" d="M57.7 81.9c-.3-.1-.5-.5-.4-.8 0 0 0-.1.1-.1.4-.6.8-1.3 1.2-1.8C63.8 72 70 65.6 77.1 60.3c14.5-11.1 30.7-18.3 48.2-23 1.1-.3 2.1-.6 3.2-.7.6-.1 1.6-.5 1.8.6.1.9-.8.8-1.4 1-.8.2-1.6.3-2.4.5-19.1 5-36.6 13.2-52 25.7C69 68.9 64 74.2 59.7 80c-.4.6-.9 1.2-1.4 1.7-.1.2-.4.3-.6.2z"></path><path fill="#060505" d="M322.6 128c-.2.7-.7 1.3-1.4 1.6-3.8 2.9-8 5.3-12.4 7.3-7.7 3.1-15.9 4.8-24.3 5-6.9.3-13.8.5-20.7.7s-13.4.8-19.5 4.2c-.4.2-.9.4-1.2-.1-.4-.6.1-1 .5-1.3 1.3-.9 2.7-1.6 4.3-2 5.2-1.6 10.6-2.4 16.1-2.3 9.4-.2 18.8-.2 28.1-1.3 10.4-1.2 20.3-5.1 28.6-11.5.3-.3.7-.6 1.1-.7.6-.4.7 0 .8.4z"></path><path fill="#050404" d="M56.5 116.8c-.1-.6-.5-1.2-1-1.6-2-1.6-3-4.1-2.7-6.6.2-2.5-.3-2.9-2.9-2.4-5.4 1.1-10.2 4.1-13.6 8.4-.5.7-.9 2.2-1.9 1.4s0-1.8.7-2.6c3.6-4.6 8.8-7.8 14.5-9.1.7-.2 1.5-.2 2.2-.2 2 .1 2.8 1 3 2.9.1.6.1 1.1 0 1.7-.3 1.9.4 3.7 1.9 4.9.4.3.7.6 1 1 1.6 2 1.4 3.1-1 4.3-.8.4-1.7.8-2.5 1.1-2.1.7-3.8 2.4-4.4 4.6-1.1 3.2-3.8 4.5-6.8 3.7-1.4-.3-2.5-1.3-3-2.6-.2-.4 0-1 .4-1.2.3-.2.8-.1 1 .2.3.3.6.8.9 1 1.8 1.5 4.6 1.1 5.3-1.1 1.3-4.1 4.3-6 8-7.3.2-.1.6-.3.9-.5z"></path><path fill="#090707" d="M156.1 49c-.2-.2-.4-.2-.5-.3-.2-.2-.2-.5 0-.7.6-.5 1.4-.9 2.2-1.1 8.4-3.1 16.7-6.3 24.9-10.1 8.7-4.1 16.6-9.3 22.5-17 .2-.2.3-.4.5-.6.2-.3.7-.4 1-.2.5.3.4.8.2 1.2-.5.8-1 1.5-1.6 2.2-5.6 6.8-12.8 11.6-20.7 15.4-8.8 4.1-17.8 7.7-26.9 10.8-.6.1-1.1.3-1.6.4z"></path><path fill="#070606" d="M280.4 20.1c-.8 2.5-1.8 5-3 7.4-4.2 7.9-9.7 15-16.3 21.1-.7.8-1.7 1.5-2.7 1.9-.4.1-.8 0-.9-.4-.2-.3-.2-.7.1-1 1.2-.9 2.3-1.8 3.4-2.8 7.2-7.5 13.7-15.4 17.1-25.4.1-.4.4-.8.6-1.3.3-.6.5-1.3 1.4-.9.6.1.3.8.3 1.4z"></path><path fill="#0b0909" d="M45 116.6c-.1.5-.4.8-.9 1-.8.4-1.7.8-2.5 1.2-4.8 2.2-9.2 5.1-13.2 8.5-.3.3-.5.5-.9.7-.2.1-.5.1-.8 0-.3-.2-.4-.5-.3-.8 0 0 0-.1.1-.1.3-.5.6-.9 1-1.3 4.7-4 10-7.3 15.7-9.8.8-.3 1.5-.5 1.8.6z"></path><path fill="#020101" d="M307 118.6c-.6-2.1-1.3-4.2-1.9-6.3-.8-2.7-1.3-5.4 1-7.7 1.1-1.2 1.1-2.7.5-4.2-.6-1.8-.7-3.7-.2-5.4.4-1.8.9-3.6 1.6-5.3 1.3-3.2-.1-5-3.5-4.9-1.4.1-2.7.3-4.1.6-8.1 2-15.9 5-23.2 9-5.6 2.8-10.8 6.6-15.2 11-.5.5-1.3.7-2 .5-2.7-.3-5.5-.5-8.3-.5-11.6.1-22.9 2.4-34 5.8-1.9.6-3.7 1.2-3.8 4-.9-.4-1.4-.7-1.9-.9-10.9-6.5-22.9-10.3-35-13.6-2.1-.6-4.2-.6-6.3-.1-2.8.8-3.8 2.6-3.2 5.5.4 1.4 1 2.8 1.9 4 1.3 1.8 1.8 4.2 1.1 6.3-.6 1.7-.1 3.6 1.2 4.8 1.6 1.8 2.4 4.2 2.1 6.7-.1 2-.5 4-.8 6s-.5 4-.6 6.1c-.1 3.2 1.3 4.4 4.4 3.9 1.2-.2 2.3-.5 3.5-.9 2-.6 4-1.3 6-2.1 8.1-3 16.7-4.8 25.4-5.3 1-.1 2.1-.4 2.9.4.6.5 1.5.8 2.3.6 3.3 0 6.4-.9 9.5-1.6 10.2-2.2 20.3-4.6 30.7-5.6 1.6-.2 3.3-.5 4.9-.7 1-.1 1.4-.7 1.4-1.7 0-2.1 0-2.1 2.1-2.4 10.8-1.3 21.3.6 31.7 3.5 1.8.7 3.7 1.1 5.7 1.2 2.4 0 3.3-.8 3.9-3.1.8-2.6.8-5.1.2-7.6zm-100.2 15.8c-7.3.7-14.4 2.3-21.2 5-2.2.8-4.3 1.6-6.5 2.3-.9.3-1.8.5-2.7.6-1.6.2-2.3-.4-2.2-2 .1-1.9.3-3.9.5-5.8.3-2.1.6-4.2.8-6.3.4-2.9-.5-5.8-2.4-8-1-1-1.3-2.4-.9-3.8.6-2.5.2-5.1-1.3-7.1-.9-1.2-1.6-2.5-1.9-4-.3-1.8.2-2.6 1.9-3.2 1.8-.6 3.7-.6 5.5-.1 3.2.8 6.4 1.8 9.6 2.7 9.1 2.6 17.8 6.3 25.9 11 1.1.4 1.7 1.7 1.4 2.8-.7 5.1-.3 10.2.9 15.1-2.7.4-5.1.6-7.4.8zm98.6-9.1c-.5 1.9-1 2.4-2.9 2.2-1.5-.2-2.9-.5-4.3-1-2.8-1-5.7-1.7-8.6-2.2-8.3-1.4-16.6-2.8-25-1.4-1 .2-1.7.1-1.8-1.3-.1-4.5-.3-9-.5-13.5 0-1.6 1-2.5 2.1-3.4 4.3-3.6 8.9-6.6 13.8-9.2 7.2-3.8 14.8-6.7 22.7-8.6 1.2-.3 2.4-.5 3.5-.6 2.1-.1 2.8.8 2 2.7-.6 1.5-1 3-1.4 4.5-.6 2.5-1 5.1 0 7.6.4 1 .2 2.1-.5 2.8-2.5 2.6-2 5.6-1.2 8.6.6 2.1 1.3 4.2 2 6.3.7 2.1.7 4.3.1 6.5z"></path><path fill="#51b78b" d="M215.1 115.4c.1-1.4 1.2-2.6 2.6-2.9 10.9-3.1 21.8-5.6 33.2-5.7 2.6 0 5.2.1 7.7.3 1.9.2 2.5.2 2.5 2.7.1 4.5-.1 9 .4 13.5.4 3.6.3 3.6-3.3 4-11 1.2-21.8 3.6-32.6 6-2.5.6-5.1 1-7.6 1.5-1.4.3-2-.3-2.3-1.6-1.3-4.7-1.6-13-.6-17.8z"></path><path fill="#020101" d="M215.1 90.1c0-.5-.1-.9-.1-1.4-.2-3.3-.8-6.6-1.8-9.8-.7-2.3-.7-4.5 1.1-6.4 1.2-1.1 1.6-2.9.8-4.4-1.4-2.6-.9-5 .5-7.3.4-.6.7-1.3.9-2 1.5-3.9-.1-6.3-4.4-6.4-1.8 0-3.7.3-5.5.8-5.5 1.3-10.7 3.6-15.8 6-6.9 3.1-13.6 6.7-19 12.3-1.3 1.5-3.3 2.2-5.3 1.9-14.2-1-28.5 1-41.9 5.7-1.3.4-2.4.9-2.6 2.8-7.2-5.2-15.3-9-23.9-11.2-5.9-1.5-11.9-2.8-18-2.9-4-.1-5.5 2.3-3.8 6 .7 1.4 1.4 2.8 2.2 4.2 1.2 1.8 1.5 4.1.8 6.1-.6 1.4-.3 3 .8 4.2 1.8 2.1 1.8 4.5 1.4 7-.7 4.1-.9 8.3-.5 12.5.4 3.3 1.7 4.2 4.9 3.3 2.4-.7 4.7-1.6 7.1-2.4 8.9-3.2 18.1-5.1 27.5-5.7.7 0 1.7-.6 2.1.2 1.1 2 2.7 1.2 4.1.8 8.4-2.1 17-3.6 25.5-5l18.3-3c1.2-.2 2.1-.4 2.1-2 0-2 .1-2 2.1-2.2 7-.7 14.1-.4 21 .8 4.5.8 8.8 2 13.3 2.8 4.6.7 6-.6 6.1-5.3zm-110.3 13.4c-5.7 1.4-11.4 3.1-16.9 5.2-5 1.8-5.6 1.5-5.6-3.8 0-3.2.2-6.5.7-9.7.5-2.7.4-5.3-1.5-7.6-.9-.9-1.1-2.2-.6-3.3.9-2.3.3-4.5-.7-6.7-.6-1.2-1.3-2.4-1.9-3.7-1.8-3.5-1-4.7 3-4.6 1.8.1 3.5.2 5.2.5 11.6 1.8 22.7 5 32.5 11.7l1.8 1.2c.7.3 1 1.1.8 1.8-.6 2.7-.8 5.5-.8 8.3.1 2.8.5 5.6 1.2 8.3-5.7.3-11.5 1.1-17.2 2.4zm103.9-9.9c-4-.8-7.9-1.7-11.9-2.5-7.8-1.5-15.8-1.8-23.7-.8h-.9c-1.4-4.9-1.8-10-1.3-15 .2-1 .8-1.9 1.6-2.5 3.5-3.3 7.4-6.2 11.6-8.5 5.9-3.2 12.1-6 18.4-8.3 2.6-1 5.3-1.6 8.1-1.9 1-.2 2-.2 3 .1 1.2.2 2 1.3 1.8 2.5 0 .1-.1.3-.1.4-.3 1.3-.8 2.5-1.5 3.6-1.4 2.5-1.9 5-.4 7.6.6 1.1.5 2.5-.5 3.3-2.1 2.3-2.2 4.9-1.4 7.8.9 3 1.5 6.1 1.7 9.2 0 .3.1.5.1.8.4 4.2-.4 5-4.6 4.2z"></path><path fill="#51b78b" d="M123.4 82.5c-.1-1.3 1-1.8 2.2-2.2 5.7-2 11.5-3.4 17.5-4.3 6.6-1.1 13.2-1.6 19.8-1.4 1.6.1 3.3.2 5 .3 1.1.1 1.7.4 1.6 1.7-.7 5.1.4 10.1 1.3 15.1.4 2.4.3 2.4-2 2.8-11.4 2.1-23 3.5-34.3 6-2.7.6-5.4 1.2-8.1 1.9-1.4.4-2.1.1-2.4-1.3-1.2-4.1-1.6-8.4-1.2-12.6 0-1.9.3-3.9.6-6z"></path><path fill="#040303" d="M341.3 55.1c-.2-.3-.6-.5-1-.3-1.1.4-2.3.6-3.5.7-7.5.5-13.6-2.5-19-7.4-.6-.4-.9-1.2-.5-1.9.1-.1.1-.2.2-.2 1-1.4 1.8-3 2.4-4.7 1.1-2.5.9-5.4-.4-7.8-1.5-2.8-4.7-3-6.6-.4-.8 1.1-1.2 2.3-1.2 3.6-.2 3.1.5 6.1 2.1 8.8.7.9.6 2.2-.3 3l-.1.1c-3.6 3.6-7.6 6.7-12 9.3-13.9 7.8-28.6 14-43.9 18.3-6.3 1.6-12.4 3.8-18.3 6.4-3.2 1.4-6.1 3.5-8.6 6-.8.9-1.5 1.8-2.1 2.9-.2.4-.4 1 0 1.3.6.5 1-.1 1.3-.6 2.4-4.1 6.3-6.4 10.4-8.3 5.7-2.6 11.6-4.6 17.7-6.2 15.1-4.3 29.7-10.3 43.4-18 4.4-2.5 8.5-5.6 12.2-9.1 2.2-2.1 2.2-2.1 4.5-.2 3.6 3 7.4 5.5 12.2 6.2 1.4.2 2.7.4 4.1.5 2.2.1 4.5.2 6.5-.9.5-.3.8-.6.5-1.1zm-25.6-9.5c-1.8-2.8-2.7-6-2.4-9.3.1-.6.3-1.3.6-1.8.4-.9 1.4-1.5 2.4-1.5 1 .1 1.6.9 2 1.8.5 1.1.7 2.3.6 3.5-.3 2.7-1.4 5.2-3.2 7.3z"></path><path fill="#0f0c0c" d="M291.3 97.4c0 .5-.5 1-1 1-7.8 2.3-15 6.2-21.2 11.5-.4.3-.9.9-1.4.3s0-1.1.5-1.4c1.8-1.4 3.6-2.8 5.5-4.2 4.3-3 9-5.4 14-7.1.9-.3 1.8-.5 2.7-.7.4-.1.8.1.9.6z"></path><path fill="#110c0c" d="M288.6 115.3c.5.2 1.5.4 2.5.7.3.1.5.4.5.7v.1c-.1.2-.4.4-.6.4-.5 0-.9-.1-1.4-.2-5.4-.8-10.8-1.3-16.2-.5-.4.1-.7.1-1.1 0-.2-.1-.5-.2-.5-.5s.1-.5.3-.7c.9-.3 1.8-.5 2.7-.6 4.5-.3 9.2-.1 13.8.6z"></path><path fill="#130f0f" d="M273 112.5c-.4-.3-.6-.6-.3-.9.4-.4.9-.6 1.4-.8 3.8-1.4 7.7-2.6 11.6-3.4.5-.2 1.1-.2 1.6 0 .3.1.5.3.5.6s-.2.5-.4.7c-.3.2-.6.3-1 .3-4.2.8-8.2 2-12.2 3.4-.4 0-.8.3-1.2.1z"></path><path fill="#141010" d="M194.6 113.9c3.8.6 7.5 1.7 11.1 3.2.5.2 1 .4 1.5.7.3.2.5.6.3 1-.2.6-.7.5-1.1.3-2.6-1.3-5.4-2.2-8.3-2.9-3.3-.9-6.7-1.4-10-2-.6-.1-1.1-.1-1.6-.3-.3 0-.5-.3-.5-.5 0-.4.2-.7.6-.8.7-.2 1.5-.2 2.2 0l5.8 1.3z"></path><path fill="#141111" d="M207.1 125.4c-.1.5-.6.9-1.1.9-4.5.7-8.8 2-12.9 3.8-.5.2-1.1.4-1.4-.2s.3-1 .8-1.3c1-.5 2-.9 3.1-1.3 3.3-1.2 6.7-2 10.2-2.6.5.1 1.3-.1 1.3.7z"></path><path fill="#171111" d="M205 122.3c-.1.3-.5.5-.9.4-2.8-.3-5.7-.4-8.5-.1-.4 0-1-.1-1-.7s.4-.8.9-.9c2.9-.3 5.9-.2 8.8.2.4 0 .8.4.7.8v.3z"></path><path fill="#68e6b3" d="M217.8 118.3c-.2-3.2 1.9-4.5 5.2-5.4 11-3 22.5-4.3 33.9-3.7 2 .1 2.1.2 2 2.3-.2 4.1-1 8.2-.2 12.4.2 1.1-.5 1.3-1.2 1.4-2.2.3-4.4.7-6.6 1-8.5 1.3-16.8 3.4-25.2 5-2 .4-4 .7-6 1.1-1.7.3-1.9.2-2.2-1.5-.5-3.7-1-7.8.3-12.6z"></path><path fill="#0f0c0c" d="M200.1 65.8c-.1.5-.4.7-.9.8l-3.4 1.1c-6.2 2-12.1 4.9-17.5 8.7l-.9.6c-.3.2-.9.4-1.2-.1-.2-.3-.1-.8.3-1l1.5-1.2c6.1-4.3 12.9-7.5 20.1-9.4.4-.1.9-.2 1.3-.2s.7.2.7.7z"></path><path fill="#120e0e" d="M200 75.2c-.1.2-.3.4-.5.5-.5.1-1.1.2-1.6.3-5.6.5-11.1 1.9-16.2 4.1-.3.1-.7.3-1 .4-.3.1-.6 0-.7-.2-.2-.3-.2-.7 0-.9l.1-.1c.4-.3.8-.5 1.2-.7 5.2-2.3 10.8-3.7 16.5-4.3.5-.1 1.1-.1 1.6 0 .4.1.7.5.6.9z"></path><path fill="#140e0e" d="M194.9 84c1.2.2 2.4.5 3.5.8.8.2 2 .2 1.7 1.3s-1.4.4-2.2.3c-2.1-.3-4.2-.6-6.3-1-3.2-.5-6.4-.6-9.6-.6h-1.1c-.6-.1-1.5.1-1.4-.9 0-.7.8-.6 1.3-.7 3.5-.2 7-.1 10.5.3 1.2.2 2.3.4 3.6.5z"></path><path fill="#100d0d" d="M111.8 93.3c-.4.7-1 .8-1.6.9-2.9.8-5.8 1.8-8.5 3.2-3.2 1.6-6.3 3.5-9.1 5.7l-1.6 1.2c-.3.2-.7.3-1 .1-.4-.4-.2-.9.1-1.2.3-.3.6-.7 1-.9 5.6-4.5 12.2-7.7 19.1-9.5.3-.1.7-.2 1.1-.2.4 0 .5.3.5.7z"></path><path fill="#171414" d="M102.1 82.9c-3.5-.7-7.1-1.1-10.6-1.3h-.8c-.7 0-1.5 0-1.4-.9 0-.7.7-.7 1.3-.7 2.4.2 4.8.2 7.2.5 4.1.6 8.2 1.4 12.2 2.5.4.1 1 .2 1 .8s-.7.8-1.2.7c-2.3-.4-4.6-.9-7.7-1.6z"></path><path fill="#161111" d="M108.2 88.3c.8.2 1.2.2 1.5.3.3.1.5.3.5.6 0 .5-.3.7-.7.7-.5.1-.9.1-1.4 0-4.3-.5-8.6-.4-12.9.3-.3 0-.5.1-.8.1-.6.1-1.2.1-1.3-.7-.1-.6.5-.7.9-.8 4.7-.8 9.5-1 14.2-.5z"></path><path fill="#68e6b3" d="M125 84.9c0-2.1 1.2-2.9 3-3.4 3.1-.9 6.3-1.5 9.5-2 8.4-1.4 16.8-2.3 25.3-2.6.2 0 .4-.1.6-.1 4.4.3 3.6-.2 3.6 3.6.1 3.3.4 6.6.9 9.9.3 2.3.3 2.3-1.8 2.6-5.4.8-10.7 1.7-16.1 2.4-7 .9-13.8 2.2-20.6 4-3.7 1-3.8.8-4.3-2.8-.9-3.9-.4-7.7-.1-11.6z"></path><path fill="#51b78b" d="M235.9 118c.7-3.2 2.4-4.7 5-4.2 2.1.4 4.1 3.5 3.6 5.8s-3.3 4.5-5.9 3.7-3.3-2.3-2.7-5.3zM151.2 88.2c-.7 3.2-3.7 5.2-6.5 4.5-2.7-.8-4.2-3.6-3.5-6.3.8-2.9 3.7-4.6 6.6-3.9 2.5.6 4.1 3.1 3.4 5.7 0-.1 0 0 0 0z"></path><path fill="#38a1fc" d="M16.8 269.4c3.3-2.3 6.7-3.2 9.8-4.6 1-.5 2.3-.2 3 .7 4.6 5 9 10.2 14 14.8.8.8.7 1.4.1 2.3-2.1 3.2-4.5 6.3-7.1 9.1-7-7.2-13-15-19.8-22.3z"></path><circle cx="21.9" cy="265.8" r=".6" fill="#020202"></circle><circle cx="44.6" cy="283.8" r=".6" fill="#020202"></circle><circle cx="42.2" cy="286.8" r=".6" fill="#020202"></circle><circle cx="39.5" cy="289.9" r=".6" fill="#020202"></circle></g></svg>