<svg xmlns="http://www.w3.org/2000/svg" enable-background="new 0 0 502.7 412.2" viewBox="0 0 502.7 412.2" id="illustration-for-investment-concept"><g><path fill="#e1f0ff" d="M28.3 305.3c-6.6 2.3-18.3 6.7-24.5 17.9-8.3 15.1-.6 32.3 0 33.8 7.8 16.9 25.2 22.9 36.1 26.6 5.5 1.9 43.8 14.3 76.1-4.1 10.5-6 16.3-12.9 28.5-13.4 11.7-.5 20 5.2 26.8 9.1 27.3 15.5 60.5 17.7 82.6 13.4 7.9-1.5 38.2-7.5 49.8-31.9 4.3-9.2 5.5-19.6 3.6-29.5-3.7-17.9-17.3-27.8-26.3-34.3-23.8-17.4-49.7-17.7-58.1-17.5-21.4.6-28.3 7.9-50.8 14.8-54.6 16.5-90.9-2.8-143.8 15.1z"></path><path fill="#e1f0ff" d="M360.6 302.7c-5.4 5.8-2.1 10.2-7.7 15.3-10.5 9.5-25.2-3-38.8 4.6-13.1 7.3-19.5 29.8-11.7 43.1 3.6 6.1 9.3 8.8 12.3 10.2 21 9.7 45.4-4.3 47-.7 1.3 2.8-14.8 8.3-14.8 15.4.1 17 91.7 31.6 134.2 12.7 12.8-5.7 17.1-12.7 18.8-16.2 6.9-14.2-1-29.6-1.8-30.9-2.2-4.1-5.5-10.4-12.3-13-10.5-4-16.8 5.7-25.3 2.5-9.9-3.8-6-18.9-17.8-31.2-6-6.3-13.5-8.3-28.5-12.3-17.1-4.7-42.5-11.4-53.6.5z"></path><path fill="#38a1fc" d="M469.9 378.9c-2.1-2.8-4-5.6-4.7-9-.3-1-.1-2.1.7-2.8.9-.7 1.9-.3 2.8.1.7.4 1.3 1.1 2.2.9-.4-1.9-1.3-3.6-2.5-5.1-2.4-3-6.6-3.9-10-2.1-2.5 1.2-5 2.4-7.4 3.8-4 2.2-7.5 1.1-10.9-1.4-3.1-2.3-5.1-5.5-7-8.8-1.2-2-2.2-4.2-2.9-6.4 2.2-.3 4.4-.2 6.5.4-.2-1.8-2.1-1.9-3-3-.6-.8-1.1-1.5-.7-2.5s1.2-1 2.1-1c1.3-.1 2.6.3 3.7 1.2.6.5 1.2 1.5 2.3 1l-.3-.9c-3-4.5-7.3-6.9-12.5-7.9-2.1-.4-2.3-.5-2.6-2.6-.4-2.3-.8-4.6-.9-6.9-.2-3.1-.7-6.1-.3-9.2.1-.2.3-.5.1-.7-2.1-2.4-2-5.3-2.4-8.2s.1-5.7.2-8.5c.3-7.3 1.2-14.5 2.7-21.6 1.3-6.5 4.7-12.3 6.9-18.6.7-1.5.6-3.3-.4-4.7-2.1-3.3-3.9-6.8-5.9-10.2-.6-1-1-2.6-2.3-2.2-1.1.3-.7 1.9-.9 2.9-.1.6 0 1.4-.8 1.7s-1.4-.4-1.9-.9c-.8-.9-1.5-1.8-2.1-2.8-2.7-4.7-4.9-9.5-6.7-14.6-.5-1.4-1-2.8-3-1.8-7.8 4.2-16.4 6.4-24.7 9-10.6 3.2-21.6 4.9-32.6 5.1-1.8.1-3.6-.9-5.4-.3.1.9.3 1.8.8 2.6 2.3 5 4.7 10 7.2 14.9 5.3 10.4 11 20.5 15.6 31.2 1.9 4.4 3.8 8.7 5.7 13.1 2.8 5.8 5 11.9 6.4 18.1.8 3.4 1 6.9.6 10.4-1.2 7.8-8.5 13.1-16.2 11.9-.2 0-.4-.1-.7-.1-2.7-.7-5.3-1.5-7.9-2.5-2.9-1.1-6-1.5-9.1-1.2-3.4.3-6.5 1.4-8.5 4.2-3 4-4.7 8.9-4.8 14 1.2-.2 1.4-1.3 1.8-2.2 1.4-2.7 3-5.2 4.9-7.5.8-1.1 1.8-2 3-2.6 2.1-.9 3.5-.1 3.6 2.2.1 2-.6 4-1.9 5.6-1.5 2-3.1 3.9-4.9 5.7-.8.7-1.8 1.4-1.8 2.6 5.4.3 10.9 0 16.2-.8 4.5-.6 9.1-1.4 13.6-2.2 2.9-.5 5.8-.4 8.7-1.1 6.2-1.6 12.6-2.7 19-3.2 4.7-.4 9.5-.9 14.2-1.5 1.7-.2 2.1.2 1.7 2-.8 3.7-2.8 7.1-5.7 9.5-2.3 2-2.3 2.1-4.4-.1-2.8-3.1-7.1-4.2-11-3-7.7 2.2-12.8 9.5-12.4 17.5 1.5-.2 1.8-1.6 2.5-2.6 1.5-2.4 3.3-4.4 5.5-6.1 1.3-.9 2.6-1.3 3.9-.4s1 2.6.5 3.9c-.6 1.5-1.6 2.8-2.9 3.7-1.2.8-2.3 1.7-3.4 2.6-.8.8-2.2 1.3-2.2 2.8 4.1.6 8.3.8 12.4 1.5 3.8.8 7.7-.3 10.5-2.9 1.6-1.4 2.3-3.2 3.3-4.9 1.2.2 2.3.7 3.3 1.4 2.1 1.3 3.9 2.8 4.2 5.5.2 1.9 1.5 3.5 2.6 5.1 1.6 2.6 4.6 4.1 7.7 3.9.4-.5.1-1-.1-1.4-1.1-2.4-1.8-5.1-1.9-7.7-.4-3.1.3-6.2 2-8.9 1.2-1.8 2.7-1.7 3.4.1 1.4 3.6 2 7.4 1.8 11.2-.2 2-1.4 3.9-.8 6 4.4-.8 6.9-2.9 7.6-6.8.1-1.1.2-2.2.1-3.3 0-1.4.3-1.6 1.7-1.3 4.2.6 8.3 1.7 12.3 3.3 3.5 1.5 7.2 2.2 11 2 2.7-.2 5.6-.2 7.4-2.9.3-.9-.8-1.7-1.5-2.7zm-59.7-39.8c-2.9-.7-5.4-2.5-6.9-5-3.1-4.5-5.1-9.6-5.8-15-.4-3-.8-5.9-1.3-8.9-.2-1.2-.2-2.3-.1-3.5-.3-4.6-.1-9.3.4-13.9 0-.6.3-1.1.9-1.4 1.6.4 1.8 3 3.9 2.5.2 0 .4 0 .5.1 2.6 3.2 5 6.5 6.3 10.5.2 2 1.2 3.8 1.1 5.9 1.2 3.6 1.6 7.5 2.3 11.2.8 5.1 1.4 10.2 1.6 15.4.2 2.5-.3 2.7-2.9 2.1z"></path><path fill="#1e2319" d="M283.4 308.1c-.8 4.3-1.7 8.7-3 12.9-3.2 10.8-9.2 20.6-17.5 28.3-5.8 5.4-12.7 8.9-19.8 12.2-9.4 4.4-19.2 5.5-29.4 4.9-14.6-.9-28.9-4.2-42.3-9.9-6.3-2.6-12.5-5.8-17.4-10.7-1.5-1.5-2.9-3.1-4.2-4.9-.3.2-.5.2-.6.4-4.6 7.4-11.5 11.9-18.9 16.1-6.7 3.7-13.9 5.6-21.3 7.1-9.2 2-18.6 2.7-28 2.1-14.3-1.1-28-4.2-40.3-11.8-15-9.2-23-22.6-24.8-40-.1-1.5-.3-3-.5-4.5-.1-4.9.2-9.7.9-14.5 1.2-7 3.1-13.9 5.5-20.6 3.5-9.2 7.8-18 12.9-26.3 3.8-6.8 6.4-14.2 7.6-21.9.4-1.7-.2-3.5-1.6-4.6-3.1-2.6-6.4-4.9-9.6-7.3-3.3-2.5-6.3-5.2-9.2-8.1-1.3-1.3-2.4-2.8-3-4.6-1-2.5-.4-5.3 1.5-7.2 1.2-1.2 2.5-2.2 4-3 6.9-3.5 14.4-5.5 22.2-5.8 1.2 0 2.3.1 3.5.3 3.9.7 5.9 3.7 5 7.6-.3 1.4-.9 2.7-1.3 4.1-1.3 4.1-.3 5.4 4 5.3 3.6-.1 7.2-.8 10.5-2.1 4.5-1.7 9-3.8 13.2-6.1 1.4-.7 2.7-1.7 3.6-3 1.2-1.2 1.3-3.1.2-4.4-.5-.8-1.2-1.4-1.7-2.2-.7-.8-.7-2.1.2-2.8.2-.1.3-.2.5-.3 1-.5 2.2-.9 3.3-1 2.5-.5 4.9-1 7.4-1.3.9-.1 1.7-.7 2.1-1.5 3.5-6.7 6.6-13.5 9.8-20.3.6-1.4 1.1-2.8 1.4-4.3.5-2.3-.4-4.8-2.4-6.1-5.3-4-10.7-7.8-16-11.7-2.7-2-5.3-4.1-7.7-6.4a8.3 8.3 0 0 1-2.4-4c-.8-3.5 0-6.4 3.1-8.6 1.4-1 3-1.8 4.7-2.4 7.2-2.4 14.6-3.8 22.1-4.3 1.5-.1 3 0 4.5.1 2.8.3 4 1.8 3.9 4.6-.1 1.3-.3 2.7-.8 3.9-.5 1.4-.8 2.9-1.2 4.4-.5 1.8.6 3.6 2.4 4.1.2 0 .4.1.6.1 2.1.4 4.2.3 6.3-.2 8.1-1.7 15.9-4.9 22.8-9.5.6-.4 1.2-.9 1.8-1.4 2.3-1.8 3-5.1 1.6-7.7-1.8-3.9-1.5-4.7 2.8-5.6 7.8-1.7 15.7-2.4 23.7-2.3.8 0 1.7.1 2.5.4 2.4.8 3.1 2.6 1.8 4.7-.7 1-1.4 1.9-2.2 2.8-.6.6-1.1 1.3-1.6 1.9-.6.9-.4 1.4.7 1.4 2.8.1 5.5-.1 8.3-.4 6.8-.8 13.5-2.4 20.3-3.5 1.4-.2 2.8-.3 4.3-.2 2.6.2 3.9 1.9 3.4 4.5-.4 1.6-1.1 3.2-2 4.6-5.9 10.9-12.3 21.5-18.4 32.3-.4.8-.9 1.6-1.3 2.4-1.1 2.1-1.2 4.6-.2 6.8 1.4 3.3 3.3 6.4 5.6 9.2 3.6 4 7.5 7.6 11.4 11.3.6.5 1.3.7 2 .5 7.2-.3 14.4-1.1 21.6-.8 1 0 2 .2 3 .5 2.9.8 3.9 3.3 2.3 5.9-.5.7-1 1.4-1.6 2-.5.6-1.2 1.1-1.2 2.2 1.4.8 2.9.4 4.4.3 7.8-.4 15.4-1.9 23.1-3.2 1.2-.2 2.3-.3 3.5-.3 2 0 2.6.8 2.7 2.8 0 1.3-.3 2.7-1 3.8-5.7 10.3-10.5 21-16.5 31-1.6 2.6-1.8 5.8-.4 8.5 1.7 4 3.9 7.8 6.5 11.3 3.2 4.3 6.4 8.6 9.8 12.8 8.3 10.2 12.4 22 14.2 34.9.6 5.3.7 10.8.3 16.3z"></path><path fill="#38a1fc" d="M344.7 106.1c1.5-3.4 2.9-6.8 4.4-10.2.3-.8 1-1.6.5-2.6.2-1.2 1.3-1 2-1.1 4.6-1.1 9.2-1.8 13.7-3.1 1.7-.5 3.6 0 4.8 1.4 1.9 1.9 3.5 4.1 4.8 6.4.5 1 1.2 2 1.8 3 3 4 6.7 4.8 11 2.4 3.1-1.6 5.8-4 7.7-7 4.4-7.2 8.3-14.5 10.6-22.7.9-3.2 1.5-6.5 1.5-9.9 0-3 .6-3.6 3.6-4l6.9-1.2c-1.8-.7-3.5-.3-5.3.1-5 1-10.2 1-15.2.1-.8-.1-1.9-.1-2-1.1s.8-1.2 1.4-1.5c1.5-.9 2.9-2.1 4-3.4.9-1.3 2.5-1.9 4-1.5 1.3.2 2.7.2 4 0 .8 0 1.4-.6 1.6-1.3.2-.8-.4-1.5-1.1-1.7-3.1-.7-4.3-3.2-5.5-5.7-1.3-2.8-3.6-5.1-6.5-6.4-2.6-1.3-5.6-1.4-8.3-.2-2.7 1.3-5.2 3.1-7.2 5.3-1.4 1.5-1.5 3.5-1.5 5.4 0 .8.2 1.7.1 2.5 0 .4-.1.8-.3 1.1-.2.2-.4.4-.7.4-.4 0-.8-.2-1.1-.4-3.5-3.4-7.7-3.7-12.1-2.5-.4-.1-.7-.4-.9-.7-.4-1.2-.7-2.4-.9-3.6-.5-2.3-1.6-4-4.3-3.9-.5 0-1-.1-1.4-.5.3-1.4 1.5-2.3 2-3.6 0-.4-.3-.9.2-1.2 2.1-1.4 4.6-1.7 7.1-2.1 2.3-.4 2.5-1.2 1.5-3.3-.6-1.1-2-1.8-1.9-3.3.8-.2 1.2-.8 1.8-1.3 4.6-3.9 10.1-6.5 16-7.7 2.3-.3 4.7-.4 7-.1-.2 1.6-1.7 1.9-2.6 2.8-.3.4-.8.7-.7 1.3s.7.6 1.2.7c8.3 1.2 15.2 5.3 21.3 10.9 2.3 2.1 3.4 1.7 4.1-1.3 1.1-4.6-1.2-8-3.9-11.3-.7-.8-2.1-1.1-1.9-2.6 5.4-.9 10.8-1.3 16.1.7.9.3 1.8.5 2.6.7.5 1.5-.5 2.5-1.1 3.6-.9 1.5-1.5 3.2-2.2 4.8-.5 1-.3 1.6 1 1.5 2 .8 2.8 3 4.6 4 1.1 1.2 2.2.8 3.4.2 3.1-1.5 6.3-2.9 9-5.1.8-.6 1.5-1.6 2.8-.8-.3 1.1.7 1.5 1.2 2 2.8 2.7 5.3 5.8 7.5 9.1 2.3 3.4 3.9 7.2 4.8 11.2.3 1.2.9 2.8-.5 3.4s-2-1-2.9-1.8c-.5-.5-.9-1-1.3-1.5-.6-.3-.9-.1-.6.6.6 1.6 1.2 3.3 1.7 4.9.2.8.4 1.6.4 2.4.1.7.1 1.4-.7 1.7s-1.2-.2-1.6-.8c-.5-.8-1.1-1.6-1.7-2.4-.6-.7-1.3-1.3-1.9-1.9-.5-.1-.9 0-.7.7.5 1.9 1.1 3.8 1.5 5.8 1 4.6.6 9.4-1.1 13.8-3.3 9.3-6.2 18.9-8.5 28.5-.1.6-.3 1.3-1 1.7-1.3 0-2.6.3-3.8.9-7 2.9-14.2 5-21.7 6.1-6.4 1-12.7 2.2-19.1 2.8-5.8.6-11.7.9-17.5 1.6-1.8.4-3.6-.8-4-2.6-.5-1.7-1.5-2-2.7-.7-4.3 4.7-9.2 4.6-14.6 2.1-3.6-1.7-7.6-2.6-11-4.8-.6-.8-1.6-1-1.7-2.2z"></path><path fill="#38a1fc" d="M311.1 230.7c.3 1.6-.1 2.1-1.4 1.9-1.5-.2-2.9-.6-4.4-1-8.9-2.8-16.9-7.9-23.3-14.7-2.1-2.1-2.6-4.6-2.3-7.6.5-4.7 1.5-9.4 3-13.9.7-2.3.6-4.9-.3-7.1-.7-1.9-1.2-3.8-1.6-5.8-.7-3.7.1-7.6 2.1-10.8 1.6-2.5 3.4-4.8 5.5-6.8 3.2-3.3 6.4-6.6 9.7-9.8 7.2-6.8 13-14.8 18.9-22.8 5.5-7.5 10.9-15 15.3-23.3 0-.1.1-.1.1-.2.8-1.3 1.6-2.6 3.5-2.3 1.7.5 2.8 2 2.8 3.8.1 2.4.2 4.8.5 7.3.1.6.2 1.1.3 1.7.4 2.5-.7 4.8-1.3 7.2-.2.4-.4.9-.6 1.3-.2.5-.3 1.1-.4 1.6-.3 2.7-1.7 4.8-3 7.4 8.2-4.9 16.7-8.9 23.6-15.3.8-.7 1.5-1.5 2.3-2.1 1.6-.8 2.4-2.4 3.8-3.4 2.6.2 4.3-1.6 6.2-2.9 3-2.2 3.1-2.2 4.5 1.1.3.7.9 1.2 1.2 1.9.3 1.8.4 3.5.2 5.3-.1.8-.4 1.6-.5 2.3-2.3 5.9-4.5 11.9-8.7 16.9-1.3.7-1.7 2.1-2.6 3.1-1.7.7-2.6 2.7-4.6 3-1.8-.1-1.9 2-3.2 2.6-8.5 4.2-16.6 9-25.8 11.6-5.2 1.5-10.5 2.9-15.3 5.3.4 0 .6-.3.9-.3 3.8-1.4 7.4-3 11.3-4.1 2.5-.7 4.3.1 4.7 2.6.9 5.3 1.8 10.6.6 15.9-.8 3.6-2.5 5.2-6.4 5.5-1.2-1.2-2.9-1.8-4.5-1.6-4.3.4-8.5-.7-12.8-.4-1.4.1-3.7-.5-3.8 1.3-.1 1.3 2.3 1.3 3.6 1.6 3.6.8 7.3 1.2 11 1.1 1.6-.1 2.3.7 2.4 2.2.1 5.5-.3 11-1.1 16.5-.2 1.3-1.1 2-2.1 2.7-3.6 2.5-7.7 2.7-11.8 2.8-3.5.1-7 .5-10.5 1.2 1.5.2 3 .2 4.4-.1 4.1-.4 8.2-.3 12.2-1 .7-.1 1.5-.3 2.2-.5 4.9-1.5 6.5-3.6 6.7-8.7-.1-1.8.1-3.7.7-5.4.7-2.1.2-4.2.4-6.3.1-1-.2-2.2.7-3 1.4-.2 1.4.9 1.6 1.8 2.7 13.2 7.6 25.7 13 38 .3.8 1.1 1.6.4 2.6-5.8-.1-11.5-.8-16.9-3.1-.8-.4-1.7-.1-2.4-.7-.1.1-.2-.3-.4-.1s-.1-.2.2.1c.6.3 1.3.5 1.5 1.2 1.4 1 3 1.9 4.6 2.5.7.3 1.5.6 1.4 1.5s-1.1 1.1-2 1.1c-3.2-.1-6.3-.6-9.3-1.5-1.4-.4-2.7-.8-4.1-1.2-.9-.2-1.7-.4-2.5-.7-.2-.1-.3-.3-.5-.2l.6.3c.7-.2 1.4.3 1.8.9z"></path><path d="M375 123.7c0-.7.2-1.4.5-2.1 1.6-1 3.4-.9 5.1-1.1 11.8-1.3 23.7-1.8 35.5-3.5 5.3-.7 10.6-1.8 15.8-3.2 5-1.3 5.4-1.8 5.9-6.9-.2-.3.9-1.5-.6-1-6.7 2.7-13.6 4.6-20.7 5.8-11.7 2.1-23.5 3.5-35.3 4.1-1.9.1-3.8 1.1-5.6-.2-.8-.1-1.4-.7-1.4-1.5-.1-.9-.4-1.7-.8-2.5-1.8 1.3-3.6 2.4-5.3 3.7-1.1.9-2.6 1.3-3.9.9-1.4.6-2.6 0-3.9-.4-4-1.3-7.8-2.9-11.6-4.7-.9-.4-2.1-1.7-2.8-.4-.9 1.5.8 2.1 1.8 2.7 3.6 2 7.3 3.7 11.1 5.2.7.2 1.5.3 1.8 1.2-.5.8-1.1 1.4-1.9 1.8-.8.2-1.7.1-2.5-.3-3.5-1.4-6.9-3-10.1-4.9-2.1-1.3-2.1-1.3-2.9 1.2-.8 2.6-1.8 5.2-3.1 7.7-.4.8-.7 1.7-1.7 2.1-.4 0-.7-.2-.5-.7.6-2.4 1.2-4.9 1.8-7.3 1.4-3.6 2.2-7.4 3.8-10.8.4-.8.5-1.8 1.3-2.4 6 3.9 12.7 6.2 19.6 7.9 1 .3 2.2 0 3-.6 1.7-1.2 3.4-2.5 5-3.8s2.1-1.1 2.8.8c1.2 3.3 1.2 3.3 4.7 2.9 7.2-.8 14.5-1.1 21.7-2.1 10.4-1.5 20.8-3 30.9-6.4 2.1-.6 4.1-1.5 6-2.6 1-.7 1.9-.7 2.4.5-.1 3.6-.6 7.2-1.5 10.7-.4 2.3-.7 4.7-.7 7-.7 7.1-.9 14.2-.5 21.3.6 14.6 2.5 29.1 3.8 43.7.3 3.6 1.5 7 2 10.6.1.8.6 1 1.2.6.7-.5 1.4-.9 2.2-1.3 1-.6 2.2-.4 2.9.6.1.2.2.3.2.5.9 1.9 1.4 3.9 1.7 6 .1 1-.4 2-1.4 2.5-1.5 1-3.1 2-4.6 3-.1.6-.5 1.1-1 1.3-8.8 3.8-17.2 8.7-26.1 12.3-1.6.7-3.3 1.2-5 1.7-2.4.6-2.5.8-1.6 3.1 2.1 5.9 4.8 11.6 8.1 16.9.2-1 .3-1.9.2-2.9.1-1.4.1-2.8 1.8-3.2s2.2.9 2.9 2l7.8 13.8c2.6 4.6 5.3 9.3 8.4 14 .5-.9.6-2.2 1.9-2.1s2.1 1.3 2.7 2.3c3.7 6.8 7.2 13.6 11.4 20.1 2.6 4.1 4.8 8.4 6.8 12.8.5 1.1 1.1 2.1 1.8 3 1.9 2.7 3.3 5.6 4.3 8.7.2.5.3 1.1.4 1.7.1 1.3-.7 1.8-1.9 1.6-.9-.3-1.7-.7-2.4-1.3-1.5-1.1-2.9-2.3-4.3-3.4-.7-.6-1.3-1.5-2.4-.4-.5.5-1.5 0-2-.5l-3.3-3c-.6-.2-.8 0-.6.6.9 3.5 2.3 6.8 4.1 9.9 2 3.7 4.1 7.2 6.4 10.7.4.8.8 1.7 1.1 2.5s.6 1.6 0 2.4-1.5.6-2.3.3c-.5-.2-1-.3-1.5-.4-.5 2.3-.7 2.6-2.9 2.2-4.1-.8-8.1-2-11.9-3.7-6.5-2.8-12.6-6.5-18.2-10.9l-3.6-2.7-.3-.4c-.1-.1-.2-.2-.4-.2-2.2-2.1-2.9-4.6-3-7.6-.4-10.9.7-21.8 3.1-32.4.7-3.2 1.8-6.3 3.2-9.2 1.5-3.1 2.5-6.4 3.9-9.5.3-.7.3-1.5-.1-2.1-2.6-4.4-5.1-8.9-7.6-13.3-.1-.2-.2-.5-.8-.3v3.6c0 .9-.2 1.7-1.1 2.1s-1.6-.3-2.2-.9c-1-1.1-1.9-2.4-2.6-3.7-2.7-4.8-5.1-9.8-7-15-.2-.5-.4-1.1-.7-1.8-8.1 4.6-16.9 6.9-25.6 9.6-8.8 2.7-17.8 4.4-27 4.9-1.8.1-3.5.3-5.3.4-2.3.2-4.5-.2-6.6-1-2-2.5-3.2-5.4-4.9-8.1-.4-.6-.8-1.3-1.2-1.9-4.5-10-8.4-20.2-11.6-30.6-1.2-3.8-1.9-7.8-2.9-11.6-.4-1.9-1.6-2.5-3.5-2.3s-3.9 0-5.8 0c-1.4-.3-2.9-.3-4.4-.5-.4-.1-.9.3-1.3-.4.3.7.8.2 1.1.4 1.2 0 2.4.3 3.5.3 2.1.4 4.3.1 6.5.2.9-.1 1.8 0 2.7.4.2.2.4.5.5.8-.5 3.5.2 7.1-.4 10.6-.8 2.7-.5 5.5-.8 8.2-.2 1.7-1.1 3.2-2.4 4.2-2.9 2.2-6.2 2.9-9.6 3.1-4.6.4-9.2.4-13.7 1.1h-.8c-.6 0-1.2-.1-1.3-.8s.5-1.1 1.2-1.3c3-.4 6-.7 9-.8 2.5-.1 5-.2 7.5-.6 2.4-.2 4.7-1.1 6.7-2.6.7-.4 1.2-1.2 1.3-2 .5-5.7 1-11.3 1-17 0-.2-.1-.5-.2-.7-3.7.4-7.4-.2-11-.7-1.7-.3-3.4-.7-5.1-1.1-.8-.2-1.5-.5-1.6-1.4s.7-1.4 1.5-1.7c1.4-.4 3-.6 4.5-.5 3.9.1 7.9.3 11.8.4h2c2.3-.1 2.3-.2 3.1 2 1 .7 1 1.9 1.2 2.9 3.6 16.6 9.5 32.5 17.7 47.4.9 1.9 2.9 3.1 5.1 2.9 10.6-.4 21.2-2.1 31.4-5 5.2-1.5 10.4-3.3 15.5-5 2.2-.7 4.3-1.5 6.3-2.5 1-.5 2.6-.8 2.9-1.8.5-1.4-1.4-1.6-2.1-2.4-2.6-2.7-3.2-6.3-1.2-9.4.4-.7.4-1.5 0-2.1-3-7.8-4.9-16-5.8-24.4-.6-5-.3-10-.2-15.1 0-1 .3-2.2 1.6-2.2 1.4 0 1.6 1.2 1.7 2.3.1 2.8 0 5.5.1 8.3.4 10.2 2.4 20.3 6.1 29.9.7 2 1.9 2.6 3.9 2 9-2.7 18-5.2 26.1-10.2l2.7-1.8c1.2-.7 1.7-2.2 1.3-3.5-2.7-11.1-3-22.5-4.2-33.8-1.1-8.8-1.6-17.7-1.6-26.5-.1-5.4.2-10.9.9-16.3.3-2.2-.1-2.5-2.1-2-12.1 3.4-24.5 4.5-37 5.6-6.3.5-12.7 1-19 1.6-1.1 0-2.1-.3-2.9-.9z"></path><path fill="#38a1fc" d="M464.4 299.8c-.8-.8-1.4-1.7-1.8-2.7-4.4-8.7-10.1-16.6-14.5-25.2-.9-1.8-1.9-3.5-2.9-5.3-.3-.5-.6-1-1.1-1.4-.5-.4-1.2-.4-1.6.1-.2.2-.2.4-.3.6-.1.8-.1 1.6 0 2.5-.8-.6-1.4-1.3-1.8-2.2-5.3-8.5-10.1-17.2-15-25.8-.4-.8-.9-1.6-1.4-2.4-1-1.2-2.3-.9-2.6.6-.2 1.2-.3 2.3-.3 3.5-.1.6-.1 1.3-.3 2.5-4.2-6.5-7.6-13.6-10-21 .3-.4.7-.6 1.2-.7 3.3-.7 6.5-1.8 9.5-3.2 5.9-2.7 11.9-5.4 17.6-8.5 1.8-1 3.5-2.3 5.7-2.4.6 0 .9-.7 1.4-1 1.1 6.5 2.3 13 3.4 19.5.9 5.5 1.5 11.1 2.3 16.6 1.9 12.5 3.9 24.9 7.3 37.1 1.6 6.3 3.3 12.5 5.2 18.8z"></path><path d="M358.9 37.8c4.1-1.1 5.8 1.1 6.4 4.6.2 1.1.3 2.1.5 3.2-.1.2-.1.5-.1.7-.2.2-.2-.2-.1.2s.2.2.3 0c.2-.1.4-.2.7-.2l1.6-.6c2.6-1.1 5.6-.8 7.9.8 1 .7 2 1.5 3 2.2.1.2.3.3.5.4l.5.3c.1-.1.3-.1.4 0 .1-.1.1-.3 0-.4h-.1c0-.3-.1-.6-.2-.9-.3-1.7-.3-3.3-.2-5 .1-1.4.7-2.7 1.7-3.8 1.6-1.7 3.4-3.2 5.4-4.4 5-3 10.1-2.4 14.3 1.7 2 2 3.6 4.5 4.5 7.2.3.9 1.1 1.6 2.1 1.8.6.2 1.3.4 1.9.7 1.1.5 2 1.2 1.7 2.5-.2 1.1-1.1 2-2.3 2.1-1.5.3-3 .2-4.5-.2-1.1-.4-2.4 0-3 1-1.6 2-3.6 3.6-6 4.6.6.8 1.4.6 2.1.7 5.2 1 10.5.9 15.7-.3 1.4-.3 2.8-.4 4.2-.5.8 0 1.9-.2 1.9 1 0 1-.9 1.1-1.7 1.1-2.6.1-5.1.9-7.7 1.1-1.4.1-1.9.7-1.9 2-.2 13.1-6.1 24.1-12.8 34.9-2.2 3.4-5.5 6-9.3 7.4-3.1 1.4-6.7.6-8.9-2-1.2-1.5-2.3-3.1-3.2-4.8-1.3-2.3-2.8-4.4-4.6-6.2-.9-1.1-2.5-1.6-3.9-1.1-5.2 1.8-10.8 2.3-16.1 3.7-6.4 1.7-12.5 4.4-18 8-6.9 4.5-11.6 11-15.4 18.2-.5.9-.6 2.4-2 2.3s-1.5-1.6-1.7-2.7c-1.5-6.1-1.1-12.3-.1-18.4 2.3-13.7 10-23.4 21.6-30.4 4.2-2.6 8.3-5.2 12.5-7.9 2-2.3 4.9-3.4 7.2-5.3 1-.7 2-1.5 2.8-2.3-1.9-1.4-4-2.5-4.5-5.1-1-.6-2.1-.1-3.2-.3-.6-.1-1.3-.1-2-.3-.6-.1-1.1-.6-1.1-1.2-.1-.6.3-1.2.8-1.4.9-.4 1.9-.7 2.8-1 .7-.2 1.5-.3 2.2-.4 1.4 0 2.7-.9 3.1-2.3 1.1-2 2.5-3.7 4.3-5z"></path><path fill="#010101" d="M446.1 25.3c-1.3.4-2.4 1.1-3.4 2-2.9 2.2-6.2 3.9-9.6 5.1-1.2.5-2.1.4-2.3-1.2 0-1 .8-1.2 1.4-1.5 3.5-1.5 6.9-3.4 10.1-5.6 2.8-1.9 6.1-2.6 9.4-3.5 1.2-.3 2.3-.7 3.5-1.1-1.4-.2-2.4 0-3.4-.2-1 0-1.8-.6-2.1-1.5-.3-.9 0-1.9.8-2.5.7-.6 1.5-1.1 2.3-1.5 7.8-4 16.1-6.1 24.6-7.7.8-.1 1.5.1 2-.3-.1.2-.6.1-1 .2-4.5-.2-9 .1-13.4.9-6.7 1-13.1 3.5-18.8 7.2-1.4.9-3.1 2.5-4.7.9s-.3-3.3.5-4.8c1.1-2.4 2.7-4.6 4.7-6.3.1-.1.2-.2.3-.2-.1-.1-.1-.1-.3.1-8.4 3.9-13.4 10.9-17.5 18.8-.9 1.6-1.2 3.6-2.9 4.8-.4.4-.7 1.3-1.5.8-.6-.4-.5-1-.3-1.5.6-1.5 1.2-3.1 2-4.6s1.6-3.3 2.5-4.9c1.4-1.9 2.7-3.8 4.1-5.6 3.5-4.9 8.4-8.7 14.1-10.8.9-.3 1.7-.6 2.7-.7 1.6-.2 2.3 1 1.5 2.4-.5.8-1 1.5-1.7 2.2-1.7 1.9-3.2 3.9-4.5 6-.2.2-.2.5-.2.7l-.1.2.2-.1.6-.3c9.3-5.9 19.5-8 30.4-8.1 1.8 0 3.5.2 5.2.6 1.9.4 2.8 1.2 2.7 2.2-.1 1.5-1.5 1.8-2.5 2-3.1.8-6.2 1.4-9.3 2.2-5.9 1.3-11.6 3.2-17 5.8.9.7 1.8.5 2.6.8 1 .3 1.9.7 2.1 1.9.2 1.1-.3 2.2-1.3 2.7-.6.4-1.3.7-2 .9-3.8 1-7.1 2.1-10.5 3.1z"></path><path d="M409.9 15.7c3.1 2.7 5.7 5.8 6.6 10.1.4 2.1.1 4.2-.9 6.1-.8 1.5-1.7 1.7-3 .6-1.9-1.5-3.7-3.1-5.6-4.6-4.4-3.5-9.6-5.9-15.1-6.8-.8-.1-1.7-.2-2.5-.2-.5 0-1 0-1.3-.6-.2-.6-.1-1.2.4-1.6 1-1 2-2 3.2-2.8.3-.2.5-.4.8-.6 3.7-1.9 7.9-2.5 11.9-1.8 1.9.4 3.8 1.2 5.5 2.2z"></path><path fill="#020202" d="M247.4 83.2c-.7 0-1.4 0-1.5-.9 0-.8.6-.9 1.3-1s1.5-.3 2.2-.3c3.4-.3 6.5-1.9 8.6-4.6 2.5-3 4.4-6.3 5.8-9.9 1.3-3.3 2.6-6.7 4.1-10 3.6-8.4 9.8-14.3 18-18.1 2.6-1.2 5.3-2 8.1-2.4.7-.1 1.4-.2 1.6.7.1.8-.5 1-1 1.2s-1.3.4-1.9.5c-10 2.6-17.5 8.3-22.2 17.7-1.8 3.6-3.2 7.4-4.6 11.1-1.5 3.9-3.6 7.6-6.4 10.7-3.2 3.8-7.4 5.2-12.1 5.3z"></path><path fill="#010101" d="M367.7 24.3c1.5 1.1 2.7 2.7 3.2 4.5.5 1.6 0 2.3-1.6 2.5-2.9.3-5.7.7-8.3 2.3-.1.4-.5.4-.7.5-1.7.6-2.9 2-4.2 3.2-.3.4-.9.5-1.4.3-.4-.2-.5-.7-.5-1.1-.4-4.5 4.4-11.2 8.8-12.4 1.6-.5 3.2-.4 4.7.2z"></path><path fill="#030303" d="M51.4 136.9c.4-8.7 1.5-17.3 3.3-25.9 1.1-5.6 2.8-11 5.1-16.3.2-.5.5-1.1.8-1.6.2-.5.7-.7 1.2-.5.5.3.6.8.4 1.3-.1.5-.3 1-.5 1.4-3.8 9.1-5.7 18.7-7 28.4-.7 5.3-1.2 10.6-1.4 16-.2 2.3 0 4.7.5 7 .2.6.1 1.2-.6 1.4s-1.1-.3-1.3-.9c-.2-.6-.3-1.1-.4-1.7-.3-2.8-.4-5.7-.1-8.6zM143.7 85c-2.2.2-4.4 0-6.5-.4-.4-.1-.8-.2-1.2-.4-.6-.2-1.1-.6-.9-1.3s.8-.8 1.4-.6c3.4 1.1 7 .8 10.5.6 8.8-.6 16.2-6.9 18.1-15.5 1-4-1.3-8.1-6.3-7.5-.7.1-1.4.3-1.6-.6s.6-1.3 1.4-1.5c3.9-1 8.2 2.1 8.8 6.3.2 2-.1 4-.8 5.9-2.2 7-9.2 14.8-19.9 15h-3z"></path><path fill="#040404" d="M253.3 157.5c0 .7 0 1.2-.6 1.4-.5.2-1.1-.1-1.3-.6 0-.1 0-.1-.1-.2-.2-.6-.4-1.1-.5-1.7-1.9-8.7-5.9-16.4-10.5-23.9l-.9-1.5c-.2-.4-.2-.9.2-1.1.4-.3.9-.3 1.3 0l.1.1c.3.3.6.6.8 1 5 7.8 9.4 15.9 11.3 25.2 0 .5.1 1 .2 1.3z"></path><path fill="#4c8ee1" d="M352 49.6c1.5 1.9 2.9 4 6.1 4.7-4 3.1-7.5 6-11.7 8.1-.5-2.7.8-4.9 1.9-7.1 1.1-2.1 2.3-4 3.7-5.7z"></path><path fill="#050505" d="M466.5 79.6c.4-3.1.7-5.9 1.1-8.6.8-5 1.6-10.1 2.4-15.1.1-.7.3-1.3.4-2s.5-1.2 1.2-1 .8.8.7 1.4c-.3 1.6-.6 3.1-.8 4.7-.8 5.9-1.6 11.8-2.5 17.6-.1.9-.3 1.8-.5 2.7-.1.6-.4 1.1-1.2 1.1-.4 0-.8-.3-.8-.8zM475.4 95.5c.8-7.8 1.4-15 2.6-22.1.2-.9.1-2.3 1.6-2 1.1.3.5 1.4.4 2.2-1.1 7-1.7 14.1-2.3 21.1-.1.9-.2 1.8-.4 2.7-.1.6-.4 1.2-1.2 1-.6-.1-.7-.7-.7-1.2v-1.7z"></path><path fill="#070707" d="M63.7 113.2c-.4 0-.8-.4-.8-.8 0-.6.1-1.2.3-1.7 1.4-4.2 3.2-8.2 5.5-12 .4-.7.8-1.8 1.8-1.3s.4 1.4 0 2.2c-2.2 4.1-4.5 8.2-5.8 12.8-.2.6-.6.8-1 .8z"></path><path fill="#090909" d="M253.5 71.7c-.5 0-.9-.4-.9-.9 0-.1 0-.2.1-.3.1-.4.5-.7.8-.9 3.1-2.3 5.4-5.4 6.7-8.9.1-.2.2-.5.3-.7.2-.5.7-.7 1.2-.6h.1c.4.1.7.6.6 1-.1.4-.1.8-.3 1.2-1.3 3.6-3.5 6.7-6.4 9.1-.7.6-1.4.9-2.2 1z"></path><path fill="#060606" d="M259.3 149.8c0 .5-.1.9-.5 1.1-.5.2-1 0-1.2-.5-.3-.5-.5-1.1-.6-1.6-.8-3.9-1.6-7.7-3.6-11.1-.3-.4-.4-1 .1-1.4.5-.3 1.2-.2 1.5.3v.1c.1.1.2.3.3.4 2.2 4 3 8.4 4 12.7z"></path><path fill="#090909" d="M175 64.3c0 1.1-.2 2.2-.5 3.2-.3.7-.4 1.6-1.4 1.4s-.8-1.1-.6-1.9c.4-1.1.5-2.3.5-3.4 0-2.5-.9-4.8-2.6-6.6-.5-.5-1-1.1-.3-1.7s1.3-.2 1.8.3c2.2 2.3 3.4 5.5 3.1 8.7z"></path><path fill="#101010" d="M361.8 17.3c.3 0 .6.1.8.2.3.1.6.4.6.7.1.4-.2.8-.6.9l-1.2.3c-2.2.3-4.2 1.1-6 2.3-.5.4-1 .7-1.5.1s-.2-1.3.4-1.7c2.2-1.6 4.8-2.6 7.5-2.8z"></path><path fill="#070707" d="M464.7 87.9c0-1.5.9-2.7 2-2.7s2.4 1.6 2.4 2.8c0 1.3-1 2.4-2.3 2.4-1.2.1-2.1-1-2.1-2.5z"></path><path fill="#121212" d="M405 7.3c.4.1.8.3 1 .6 1.2 1.3 2.8 2.2 4.5 2.6.5.1 1 .4.9 1s-.7.9-1.3 1c-1.5.1-5.4-2.3-6-3.7-.2-.8.2-1.5.9-1.5z"></path><path fill="#0d0d0d" d="M477.5 104.6c0 1.1-.8 2.1-1.9 2.2-1.1 0-1.9-.8-1.9-1.9-.2-1.1.4-2.1 1.5-2.3 1.1-.2 2.1.4 2.3 1.5v.5z"></path><path fill="#818181" d="M453.8 306.7c-.4-.3-.7-.9-.3-1.2s.8.1.9.6c-.4.1-.4.4-.6.6z"></path><path fill="#949494" d="M444.2 11.6c0-.4.2-.8.6-1l.6.6c0 .3-.3.4-.5.5-.2.1-.5.1-.7-.1z"></path><path fill="#b6c5d7" d="M360.3 34.1c.1-.3.4-.4.7-.5.2.3.3.5-.1.6l-.6-.1z"></path><path fill="#000101" d="M334.3 357.1c1.3-2.5 2.7-5 4.2-7.4 1.3-1.8 2.7-3.4 4.3-4.9 1-1.1 2.6-1.5 3.9-.9 1.6.7 1.7 2.1 1.7 3.6-.2 1.9-.9 3.6-2 5.1-1.5 2.1-3.2 4.1-5.1 5.9-.9.7-1.6 1.5-2.2 2.4-1.4 1.1-2.6 2.4-3.7 3.7-.5.6-.7 1.5-1.7 1.2-1.1-.4-.9-1.4-.8-2.3.3-2.2 1-4.3 1.4-6.4z"></path><path fill="#000001" d="M471.6 382.1c-1.8-2.5-3.9-4.8-5.3-7.6-.9-1.6-1.6-3.3-1.8-5.1-.1-1.3 0-2.6 1.3-3.3 1.2-.6 2.6-.4 3.5.5l1.7 1.4c.6 1.2 1.4 2.3 2.4 3.2 3.3 3.4 5.3 7.8 5.7 12.5v2c0 .8-.1 1.5-1 1.8-.9.3-1.9-.1-2.3-1-1-1.5-2.1-2.8-3.3-4.1-.3 0-.6-.2-.9-.3zM427.1 391.6c-2.8-4.8-3.5-10.6-1.8-15.9.3-1.3 1-2.5 1.9-3.5 1.4-1.3 3-1.1 3.6.6 2.3 6 3.3 12 .6 18.2-.2.3-.3.6-.5.9-1.1 1.7-1.9 1.8-3.3.4-.1-.2-.3-.4-.5-.7z"></path><path fill="#000101" d="M379.1 378c1.1-1.6 2.1-3.2 3.2-4.7 1.4-2.1 3.3-3.8 5.5-5.1 2.4-1.3 4.8.1 4.9 2.9 0 1.7-.8 3.3-2 4.5-1.8 2-4.1 3.4-6.1 5.2-.5.4-1.2.7-1.5 1.3-1.3.9-2.4 2-3.3 3.3-.9 1-1.6.8-1.9-.4-.4-.9-.4-2-.1-2.9.5-1.4.8-2.7 1.3-4.1z"></path><path fill="#010101" d="M436.9 348.5c-.8-.9-1.9-1.3-2.9-2-.6-.4-1.2-1-1.5-1.6-.6-1.2-.2-2.7 1-3.3.3-.2.7-.3 1.1-.3 1.6-.2 3.2.2 4.5 1.2l2.1 1.8 3.9 4.5c.5.6 1 1.3 1.5 2s.4 1.7-.2 2.2c-.7.6-1.2.2-1.8-.2-2.5-1.6-5.2-2.9-7.7-4.3z"></path><path fill="#4b8ee2" d="M424.9 316.9h.1v.1h-.1z"></path><path fill="#010203" d="M401.1 294.1c-.6 1-1.3.5-1.7-.1-.7-.9-1.3-1.8-2-2.8-3.3-5.4-5.5-11.2-7.9-17-2.2-5.4-4.5-10.8-8.2-15.4-.4-.5-.7-1-.2-1.6s1.3-.3 1.7.2c.5.6 1 1.1 1.4 1.8 2.7 4.1 5 8.5 6.9 13.1 2.1 4.9 3.9 9.9 6.5 14.6.5.9 1 1.7 1.5 2.6.7.4 1.2 1 1.5 1.7l.6 1.2c.2.4.4 1.2-.1 1.7z"></path><path fill="#020204" d="M401.1 294.1c0-.5-.2-1-.5-1.5.4-.7-.1-1.1-.3-1.7-.5-.7-.3-1.6-.7-2.4-1.5-4.5-2.6-9.2-4.3-13.6-.1-.3-.3-.6-.3-.9-.1-.5-.1-1.1.4-1.3.7-.3 1.1.1 1.4.7.6 1.5 1.2 2.9 1.7 4.4.8 2.5 1.5 5 2.3 7.4 1.8 5.9 4.7 11.5 8.3 16.5 1.4 1.8 1.2 2.1-1.1 2.7-2-3.3-4.3-6.4-6-9.8-.1-.6-.5-.6-.9-.5z"></path><path fill="#010304" d="M377.2 273.7c-.1.8-.6 1-1.2.9-.7-.2-1.2-.5-1.7-1-5.8-4.7-10.9-10.2-15-16.4-.3-.3-.4-.7-.5-1.1 0-.5.3-.9.9-1 .2 0 .4 0 .5.1.5.3.9.8 1.1 1.3 4 5.9 8.9 11.1 14.5 15.6.6.4 1.3.8 1.4 1.6z"></path><path fill="#030508" d="M372.5 263.5c.5 0 .9.2 1.2.5 3.1 2.4 6.3 4.7 9.4 7.1.7.5 1.9 1.1 1.2 2.1-.8 1.2-1.8.1-2.5-.5-2.8-2.1-5.6-4.2-8.4-6.4-.7-.4-1.2-.9-1.5-1.6-.3-.7 0-1.1.6-1.2z"></path><path fill="#3a6cac" d="M399.6 288.6c.5.7.9 1.6 1.1 2.5.2.5-.1.6-.5.5-.5-.6-.8-1.3-1-2 .3-.2.3-.6.4-1z"></path><path fill="#ffd574" d="M124.9 236.3c5.1 11.6 12.3 22 18.6 32.8.5.9 1 1.7 1.5 2.6 3.9 6.7 7.1 13.8 9.7 21.2 1.9 5.8 2.7 11.9 2.1 18-.7 8.2-2.8 16.2-6.3 23.6-4.3 9.3-11.4 15.5-20.1 20.3-6.7 3.6-14 6.1-21.5 7.4-9 2-18.2 2.7-27.4 2.2-14.2-1.1-28-4.1-40.3-11.9-11.2-7-18.7-16.8-21.8-29.8-2.8-11.8-2.3-23.5.8-35.2 3.2-11.7 7.9-23 14-33.5 2.8-4.9 5.7-9.7 7.3-15.1.3-1 .7-1.1 1.6-.8 9.8 3.4 20 5.6 30.3 6.5 5.3.4 10.6.3 15.8-.3 8.8-.7 17.6-2.3 26.2-4.6 3.3-.7 6.3-2.2 9.5-3.4z"></path><path fill="#ffd574" d="M167.6 237c.4.1.8.2 1.1.4 8.3 3.9 17.2 5.2 26.3 6.1 9.2.7 18.4.8 27.6.3 6.9-.2 13.9-1.1 20.6-2.8 2.8-.7 5.6-1.7 8.2-3.1.9-.4 1.3-.3 1.8.5 3.6 6.8 8.5 12.8 13.4 18.8 8.5 10.4 12.8 22.4 14.5 35.5 1.8 13.8-1.1 26.7-7.2 38.9-5.3 10.5-13.7 19-24.2 24.4-5.5 2.9-11.1 5.6-17.1 7.1-5.1 1.2-10.4 1.6-15.7 1.4-14.9-.6-29.6-3.8-43.4-9.5-6.1-2.5-12.1-5.4-17-9.9-1.8-1.6-3.4-3.5-4.8-5.4-.6-.6-.6-1.6-.1-2.3 5.2-9.6 7.4-20 7.7-30.9.1-2.6-.1-5.2-.7-7.7-1.7-7.4-4.4-14.6-8-21.3-1-1.7-1.2-3.8-.4-5.7 1.3-3.4 2.8-6.8 4.6-10 4.2-8 8.7-15.8 12.6-24-.1-.3 0-.6.2-.8zM152.8 122.3v8c.1.8 0 1.9 1.1 1.9s.8-1.2.8-2c.1-5.6.1-11.2.1-16.8-.1-2.5-.8-4.9-2.1-7 .7-1 1.8-1 2.7-1.1 7.1-1.4 14.3-2.1 21.5-2.1 1.3 0 3.1-.3 3.7.9s-.9 2.4-1.8 3.3c-2.2 2.2-3.5 5.2-3.5 8.3-.3 5.1-1.1 10.1-1.7 15.2-.2 1.9-.3 3.8-.3 5.8 0 .7.1 1.5.9 1.6 1 .1 1.1-.8 1.1-1.6.1-4.3.7-8.5 1.1-12.8.3-3.2.7-6.3 1.1-9.4 6.9.4 13.6-.7 20.3-1.9 3.7-.7 7.4-1.4 11.1-2 .9-.2 1.8-.2 2.8-.1 1.8.1 2.4 1 1.8 2.7-.4 1.1-.9 2.2-1.5 3.2-5.6 10.5-11.8 20.6-17.6 31-.7 1.2-1.7 2.1-2.9 2.6-6.8 3.1-13.9 5.3-21.3 6.6-9.2 1.7-18.6 2.2-28 1.5-10.5-.8-20.7-3.5-30.2-8-1.8-.9-3-2.3-4.5-3.5-5.4-4.3-11.1-8.1-16.6-12.2-2.3-1.7-4.5-3.5-6.6-5.5-.6-.6-1.1-1.2-1.6-1.9-1.6-2.5-1-5.8 1.4-7.6 1.3-1 2.7-1.7 4.2-2.2 7.1-2.4 14.6-3.9 22.1-4.3 1.3-.1 2.7 0 4 .2 1.1 0 1.9.9 1.8 2v.3c-.1 1.3-.4 2.7-.8 3.9-1.2 3.2-1.3 6.8-.3 10 1.6 5.5 3.6 10.8 6 16 .3.7.7 1.4 1.1 2 .3.5.7 1 1.4.7s.6-.9.3-1.5-.6-1.4-.9-2c-1.9-4-3.5-8.1-4.9-12.4-.3-.6-.4-1.2-.4-1.8 13.2.3 24.4-4.7 34.7-12.4 1.4 1.1.4 2.8.4 4.4z"></path><path fill="#ffd574" d="M147.4 271.7c-5.9-10.6-12.9-20.6-18.4-31.4-1.9-3.8-3.1-7.9-3.8-12.2-.2-1.7.2-3.4 1.2-4.8 5.5-8.9 10.4-18.2 14.6-27.8.9-1.9 1.5-3.9 2-5.9.6-2.7-.4-3.8-3.1-3.6-4.7.5-9.5 1.2-14.1 2.2-4.3 1-8.7 1.6-13.2 1.8-.9.1-1.9.1-2.8-.2-.2-1 .7-1.4 1.2-2 .9-.9 1.7-1.8 2.4-2.9 1.1-2.2.4-4-2-4.7-1.6-.4-3.3-.6-5-.6H99c2.7-4.8 4.8-9.6 7.1-14.3.4-.8.8-1 1.8-.6 6.5 2.9 13.5 3.8 20.5 4.7 10.2 1.2 20.6 1.5 30.8.9 11.3-.5 22.3-2.3 32.9-6.4.8-.3 1.4-.8 2.1.4 3.3 5.5 8 9.6 12.5 14 .6.6 1.2 1.2 1.9 1.7.8.6 1.2 1.6.9 2.6-.4 1.5.3 2.9.9 4.3 1.3 3.2 1.1 4.2-1.8 6.1-6.4 4.1-13 7.9-20.5 9.8-1.8.5-3.6.7-5.5.7-3.5 0-5.6-2.1-3.9-5.8.6-1.2 1.1-2.4 1.7-3.6 2-4.7-.6-7.3-4.4-7.8s-7 .1-10.5.6c-5 .7-9.8 2-14.5 3.9-1.9.7-3.6 1.7-5.2 3-3.8 3.2-4.3 7-1.1 10.8 3.6 4.3 7.9 8 12.7 11 3.6 2.4 7 4.9 10.4 7.4 1.2.9 1.4 1.6 1 3.1-1.7 6.3-4.2 12.4-7.4 18.1l-8.7 16.2c-1.7 3.2-3.2 6.4-4.5 9.8-.1.5-.1 1.1-.8 1.5z"></path><path fill="#ffd574" d="M179.4 205.3c5.1.9 9.7-.2 14.1-2 5.4-2.2 10.7-4.9 15.6-8.1.5-.4 1.1-.7 1.7-.8.2.9.3 1.9.2 2.8 0 3 0 6 .1 9 0 .7 0 1.3.1 2s.6 1.3 1.4 1.1c.6-.1 1-.7 1-1.3v-2c.1-5.6-.3-11.2-.5-16.8-.1-1-.4-2-.8-2.9-.3-.8-.6-1.5-.9-2.4-.3-1.4 0-1.8 1.4-2.2.6-.2 1.1-.3 1.7-.3 5.3-.2 10.5-.5 15.8-.6 2-.2 4 0 6 .4 1.9.6 2.3 1.5 1.2 3.1-.4.6-.9 1.2-1.4 1.7-1.2 1.3-2 2.9-2.3 4.7-.7 4.6-1.9 9-2.9 13.5l-.3 1.5c-.1.8 0 1.6 1 1.7.8.1 1.2-.4 1.4-1.1s.4-1.3.5-1.9c.7-3.5 1.5-7.1 2.2-10.6.4-2 .4-1.9 2.6-2 5.4-.1 10.9-.7 16.2-1.6 3.7-.7 7.4-1.2 11.2-1.8.6-.1 1.2-.1 1.8-.1.8 0 1 .4 1 1.1-.1.9-.4 1.8-.9 2.6-5.8 10.6-11 21.5-16.9 31.9-.5 1.1-1.5 2-2.7 2.4-4.8 1.7-9.8 2.9-14.8 3.7-9.1 1.6-18.3 2.2-27.5 2-8-.2-16-1.4-23.7-3.8-5-1.7-9.7-4.3-13.8-7.5-3.2-2.4-6.5-4.8-9.8-7-3.6-2.5-7-5.2-10.1-8.3-.9-.9-1.7-1.8-2.4-2.9-1.5-2.2-1.4-3.9.3-6 1.4-1.6 3.1-2.8 5.1-3.5 4.8-2 9.8-3.4 15-4.1 3.2-.5 6.4-1.1 9.7-.5 2.9.5 3.7 1.9 2.7 4.6l-.9 2.1c-1.8 3-1.8 6.2-1.1 9.5.6 2.8 1.6 5.4 2.5 8.1.2.5.4.9.7 1.3.3.5.8.7 1.3.4.5-.2.8-.7.7-1.2-.2-.7-.4-1.5-.6-2.2-.9-1.9-1.5-3.8-1.9-5.7zM54.3 205.4c5 .5 10.1-.1 14.9-2 5.6-2 11-4.6 16-7.8.1-.1.3 0 .7 0 0 3.4.1 6.8.1 10.2 0 1.7.1 3.3.3 5l.3 1.2c.2.3.5.5.8.4.3 0 .6-.2.8-.6.1-.4.1-.8.1-1.2-.6-4.5-.3-9-.5-13.6-.1-2.1-.4-4.1.4-6.2.6-1.4-.1-3-1-4.3-.5-.7-1-1.3-1.4-1.9.2-.8.8-.7 1.2-.8 7.2-1.6 14.5-2.8 21.9-2 .3 0 .7 0 1 .1 2 .4 2.3 1.1 1.1 2.7-.1.2-.3.4-.5.6-2.9 2.2-3.7 5.4-4 8.8-.3 3.7-.9 7.3-1.3 11-.1.4-.1.8-.1 1.2 0 .5.4 1 .9 1 .6 0 .9-.4.9-1 .3-2.6.6-5.1.9-7.7.2-1.7.4-3.5.6-5.2.1-.9.3-1.4 1.4-1.3 6.3.4 12.5-1.1 18.6-2.3 3.5-.7 7.1-1.1 10.6-1.7.6-.2 1.3-.1 1.8.3-.2 1.9-.8 3.7-1.6 5.4-4.2 9.6-9 18.9-14.4 27.8-.6.9-1.5 1.6-2.5 2-6.7 3.5-13.9 5.8-21.4 6.9-19.4 3-38.2.6-56.1-7.8-.9-.4-1.8-.9-2.5-1.6-3.1-3.1-6.8-5.5-10.2-8.1-3.1-2.3-6-4.9-8.7-7.6-1.1-1.1-2-2.4-2.6-3.9-.7-1.7-.3-3.8 1-5.1 1-1 2.1-1.9 3.4-2.5 6.6-3.4 13.8-5.3 21.2-5.6 1.4-.2 2.9 0 4.2.5 2 .9 2.8 2.2 2.4 4.4-.3 1.4-.7 2.7-1.2 4.1-.9 2.5-.9 5.2-.1 7.6 1.6 5.2 3.7 10.2 5.8 15.2.1.2.1.3.2.5.3.6.7 1.3 1.5.9s.5-1 .3-1.6c-.2-.8-.6-1.6-.9-2.4l-4.2-10.5c-.1-.2-.2-.9-.1-1.5zM152.8 122.3c-.2-1-.2-2.1-.1-3.1 0-.6.1-1.2-.5-1.5.1-.2.3-.4.4-.6.5-.3.6.2.6.5-.1 1.5.2 3.1-.4 4.7z"></path><path fill="#fff" d="M477.5 6.5c-5.3 1.3-10.6 2.3-15.8 4.1-2.9 1-5.8 2.2-8.6 3.6-.8.4-1.6.9-2.4 1.4-.8.5-1.3 1.1-1 2.1s1.1.9 1.9.9c1.8-.1 3.7 0 5.5.2-.5.8-1.3 1.3-2.1 1.4-3.1 1-6.2 2-9.3 2.9-1.2.3-2.4.9-3.4 1.6-3.2 2.4-6.7 4.4-10.5 5.7-.4.2-.7.4-1 .7-.7 0-1.5 0-1.8-.6-.6-1.5-2-2.1-2.9-3.2 2.6-6.6 6.5-12.7 11.3-17.9 2.7-2.8 5.9-5 9.5-6.4.5-.2.6 0 .5.5-2.2 2.3-4 4.9-5.5 7.7-.6 1.1-1.4 2.4-.3 3.5s2.4 0 3.3-.7c6.7-4.5 14.5-7.4 22.6-8.2 3.6-.6 7.3-.7 11-.2.3 1-.7.5-1 .9z"></path><path fill="#38a1fc" d="M365.2 46.8c.1-.4.3-.8.6-1.1l.7.7-.6.5c-.2.1-.5.1-.7-.1zM380.1 48.2c.3.3.5.6.5 1 .2.2.1.5-.1.7-.3-.1-.5-.3-.6-.5 0-.5.1-.8.2-1.2zM379.5 49.2c-.2 0-.5-.2-.5-.4.3 0 .5.1.5.4z"></path><path fill="#fff" d="M375 123.7c2.3 0 4.7-.2 7-.6 7.4-.8 14.9-1 22.3-1.8 10.9-1.2 21.8-2.4 32.4-5.9.2 1.1.2 2.3-.1 3.4-1.4 11.5-1 23.1 0 34.6.9 9.7 1.8 19.3 2.7 29 .5 4.5 1.2 9 2.4 13.3.5 1.4 0 3-1.4 3.8-6.1 4.1-12.8 7.3-19.9 9.4-3.5 1.1-7 2.1-10.6 3.1-2.2.6-2.3.5-3.2-1.5-2.5-5.7-3.9-11.7-5.1-17.8-1.4-7.1-1.9-14.3-1.5-21.5.1-.9.4-2.1-.9-2.3s-1.1 1.2-1.1 2.1c-1.1 14.4 1.7 28.1 7 41.6-.6.4-1.8.1-2.2 1.2-.3 1-.4 2-.1 3 .7 2.9 1.8 5.4 5.1 6.2 1 .2 1 .9.2 1.4-1.5 1.1-3.1 1.9-4.8 2.6-6.8 2.8-13.9 4.9-20.9 7-10.1 2.9-20.4 4.6-30.9 5.1h-1.8c-2.2.1-3.6-.9-4.7-2.9-7.8-14.5-13.7-30-17.5-46.1-.4-1.6-.6-3.3-.9-4.9 5.3-1.4 5.4-2.6 6-8.4.4-3.5-.4-7-.6-10.5 0-.2-.1-.3-.1-.5-.6-4.3-1.4-4.8-5.6-3.3-2.1.7-4.2 1.6-6.4 2.4-1.4.6-2.8 1.1-4.3 1.3-.6.2-1.1.4-1.1-.6 3.1-1.8 6.5-3.1 10-4 10.7-2.6 20.5-7.5 30.2-12.6.6-.3 1-.9 1.8-.7.6 1.1-.1 2.1-.4 3.1-1.6 4.8-3.3 9.5-5.1 14.1-1.7 4.5-.4 8.6 1.1 12.6.6 1.6 1.6 1.7 2.8.3 2.3-2.6 4.5-5.3 7-7.9.9-1 1.5-2.3 1.6-3.6.6-6.6 1.6-13.1 1.7-19.7-.1-2.5.3-5 1.1-7.4 3.7-4.5 5.6-9.8 8-15 .4 0 .6-.5.8-1.1zM375.4 115.7c15.2-1.2 30.4-2.3 45.3-5.5 5.8-1.1 11.5-2.9 17-5.1.9 0 .8.6.6 1.2-.1 1.5-.3 3-.4 4.5 0 1.2-.8 2.2-2 2.6-3.3 1.3-6.8 2.3-10.3 2.9-9.4 1.8-18.8 3-28.3 3.7-7.3.6-14.6 1.3-21.9 1.9v-6.2zM338.2 127.2c2.4-4 3.8-8.5 5.2-13 4.7 3 9.7 5.5 15 7.4-2.3 2.5-5 4.7-8 6.4-5.2 3.2-10.5 6.2-15.8 9.3-.3.2-.7.6-1.2.2 1.2-2.7 2.8-5.2 3.4-8.2.2-.5.4-.9.6-1.3.2-.3.5-.6.8-.8z"></path><path fill="#010101" d="M366.3 140.3c-.1 6.1-.6 12.2-1.1 18.3-.2 2.8-.6 5.5-.8 8.2-.1 2.1-1 4.1-2.6 5.5-2.3 2.2-4.4 4.6-6.4 7.1-.1.2-.3.4-.5.6-1.4 1.4-2.5 1.3-3.3-.5-.7-1.6-1-3.4-1.6-5-.9-2.5-.9-5.1 0-7.6 1.9-6.2 4.4-12.1 6.4-18.2.3-1 1-1.9 1.8-2.5.4-.2.7-.3 1 .2.8 1.5-.2 2.7-.6 4-.6 1.8 0 2 1.6 1.7 1.9-.3 2.9-1.2 2.9-3.3 0-1.9-.6-3.8.7-5.5.3-1.4 1.2-2.6 2.5-3z"></path><path fill="#fff" d="M360.4 119.9c-4.7-1.4-9.3-3.4-13.5-5.9-3.3-1.9-2.9-1.5-1.2-4.9 5.7 3.3 11.9 5.7 18.3 7.4-.9 1.3-2.1 2.5-3.6 3.4zM364 143.2l-.3 7.5c0 1-.4 1.7-1.6 1.7-1.5.1-3 .6-4.8.6.7-2.3 1.4-4.5 2.1-6.7 1.8-.6 2.7-2.5 4.6-3.1z"></path><path fill="#4481ce" d="M323.6 186.6c-.8-.6-1.8-.7-2.8-.5-2.2.2-4.4.1-6.6-.1-.1-1 .5-.6 1-.5l6.8.1c2.5 0 2.5 0 2.7 2.5-.6.5-.4 1.2-.5 1.8v5.6c0 .7.2 1.5-.5 2.1-.1-2.4-.1-4.8.1-7.2.1-1.3-.1-2.5-.2-3.8z"></path><path fill="#bed6f4" d="M314.6 165.9c.2.5.7.4 1.1.6-.7.7-1.5.4-2.3.4.1-.8.7-.9 1.2-1z"></path><path fill="#476285" d="M337.7 128.3c-.1.5-.4.9-.9 1.1-.2-.6-.1-1.2.3-1.6.4-.1.5.2.6.5z"></path><path fill="#1e242b" d="m337.7 128.3-.5-.6c0-.4.2-.8.5-1.1.2.2.3.4.5.6.1.5-.3.7-.5 1.1z"></path><path fill="#38a1fc" d="M466.8 310.8c-4-2.7-7.4-6.3-9.8-10.5-.5-.9-1-1.7-1.6-2.5-.2-.4-.7-.5-1.1-.3-.5.2-.7.7-.5 1.2.2.5.4.9.6 1.3l2 3.5c.1.5-.1.8-.6.6-2.5-2.6-4.7-5.5-6.5-8.5-3.7-5.7-6.4-11.9-9.4-18-.3-.9-.8-1.7-1.4-2.4-.4-.4-.9-.5-1.4-.2-.5.3-.5.8-.2 1.3 4.1 8.2 7.4 16.9 13 24.3.6.6.9 1.4 1 2.2.4 6.5 3.3 12 6.5 17.5 1.6 2.8 3.4 5.6 5 8.4.3.4.4.9.2 1.3-2.1-.9-4.1-2-6-3.3-.7-.4-1.4-1.3-2.2-.5s.1 1.5.8 2c.9.6.7 1.9 1.6 2.5.1.5-.1.8-.6.6-8.2-1.9-15.5-5.8-22.4-10.4-2.8-1.8-5.3-4-8.1-6-1.2-.8-1.9-2.1-1.9-3.5-.3-4.3-.4-8.7-.1-13 .4-7.7 1.5-15.3 3.4-22.8 1.5-5.6 4.4-10.6 6-16.2 1 .4 1.2 1.2 1.6 1.8l5.1 8.1c.5.8 1.1 1.6 1.8 2.4 1.6 1.7 2.2 1.6 3.5-.5 2.6 4.5 5.1 9 7.7 13.5 2 3.5 4.5 6.7 6.5 10.2 2.8 5 5.9 9.9 8.2 15.2.2.6-.1.8-.7.7z"></path><path fill="#fff" d="M448.2 197.3c1.1 1.5 1 3.1 1.5 4.5.3.8-.2 1.3-.8 1.6-1.2.7-2.4 1.5-3.7 2.2-7.8 3.9-15.6 8-23.6 11.6-3.5 1.7-7.3 3-11.1 3.8-2.7.5-5.2-1.2-5.8-3.9-.1-.4-.1-.9-.1-1.3 0-.6.4-.7.8-.8 1-.2 2-.2 3-.4 10.5-2.5 20.9-5.4 30.3-11.1 2.8-1.7 5.2-4 8.1-5.4.5-.3.9-.6 1.4-.8z"></path><path fill="#294e7d" d="m315.2 185.4-1 .5c-1.3.3-2.4-.4-3.6-.4-.2-.1-.2-.2-.2-.3s.1-.1.2-.1c1.6 0 3.1-.4 4.6.3z"></path><path fill="#4077be" d="m455.8 304.2.6-.6c.6.6 1.2 1.2 1.5 2 .2.2.1.5-.1.7-.8-.5-1.5-1.2-2-2.1z"></path><path fill="#3868a6" d="m466.8 310.8.7-.7c.4.3.7.9.3 1.2s-.7-.1-1-.5z"></path><path fill="#35629d" d="m456.3 331.4.6-.6c.4.1.9.5.8.8-.4.6-1 .2-1.4-.2z"></path><path fill="#7c7c7c" d="M438.4 106.2c-.2-.4 0-1-.6-1.2.2-.3.5-.5.8-.3.4.5.2 1-.2 1.5z"></path><path fill="#152941" d="M310.6 185.1v.4c-.4 0-.8.1-1.1-.2.3-.4.8-.3 1.1-.2z"></path><path fill="#355d8f" d="M457.9 306.3c0-.2.1-.5.1-.7.3.1.5.4.4.7-.1.2-.3.2-.5 0z"></path><path fill="#fff" d="M314.6 117.6c-1.5-5.2-1.2-10.4-.3-15.5.5-3.4 1.4-6.7 2.7-9.9 3.4-8.3 9.3-14.4 16.7-19.2 7-4.5 14.4-8.5 21.2-13.4 2.9-2.1 5.7-4.2 7.8-7.3 1.8-2.4 4.3-4.1 7.2-4.8 1.4-.4 2.9-.2 4.1.5 1 .6 2 1.3 2.9 2 6.6 5.9 14.4 8.6 23 9.5l5.1.5c-.2.9-.7 1.7-1.3 2.3-6.4 8.2-14.6 14.9-23.9 19.6-8.1 4-16.8 6.8-25.7 8.2-8 1.4-15.7 4.4-22.6 8.7-6.3 4-11.6 9.5-15.2 16.1-.6.8-1.1 1.8-1.7 2.7z"></path><path fill="#fff" d="M370 88.3c14.5-5.1 26.5-13.1 35.9-25.5.2 1.6.1 3.3-.3 4.9-.8 4.3-2.1 8.5-3.8 12.4-.1.2-.1.5-.3.7-2.1 1.9-4.4 3.6-6.4 5.7-.4.4-.9.1-1.4-.2-1.1-.6-2.3-1.1-3.5-1.4-3.2-1.1-6.7-.2-9 2.3-1.4 1.5-2.5 3.1-3.4 4.9-.5 1.2-1.8 1.7-3 1.3-.4-.2-.8-.5-1-.8-1.2-1.6-2.5-3-3.8-4.3z"></path><path fill="#38a1fc" d="M403.8 44.6c-7.1-1.2-13.8-2.5-20.7-3.5 2.6-2.8 5.4-5.3 9.3-5.8 1.9-.2 3.9.4 5.5 1.5 2.9 1.7 4.4 4.5 5.9 7.8z"></path><path fill="#fefefe" d="M398.1 87c-1.9 4.2-3.9 8.3-7.5 11.4-1.5 1.2-3.1 2.3-4.9 3-2.9 1.3-5.1.8-7.2-1.7-1-1.2-1.9-2.6-2.6-4 .5-.3 1.1-.4 1.7-.2 6.7.7 12.3-1.6 17.3-5.9.9-.8 1.9-1.7 2.8-2.5.1-.3.2-.3.4-.1z"></path><path fill="#fff" d="M400.2 49.6c-2.7 4-6.1 5.5-10.4 4.6-3.6-.7-7.7-4.4-8-8-.1-.8-.6-1.7.3-2.3.5-.3 2.8.5 3.1 1.1s.4.9.6 1.4c1.5 3.2 3.9 4.4 7.3 3.7.7-.1 1.5-.3 2.2-.6 2.3-.8 2.3-.8 4.9.1zM392.9 88.4c-3.6 3.3-8.3 5.1-13.2 5.2 1.6-6.5 7-8.7 13.2-5.2z"></path><path fill="#38a1fc" d="M356.2 44.2c.7-1.5 1.8-2.9 3.1-4 .7-.7 1.7-.8 2.5-.3.8.8 1.3 1.9 1.3 3.1-.2.5-.6.5-1 .6l-5.9.6z"></path><path fill="#fff" d="M360.4 51.3c-1.7 1.2-4 .9-5.2-.8-.1-.1-.2-.3-.3-.4-.2-.3-.4-.6-.1-.9s.8-.2 1 .1c.8 1.3 2.5 1.9 3.9 1.4.6-.2.8 0 .7.6z"></path><path fill="#8d8d8d" d="M360.3 50.2c.7-.4.3-1.6 1.4-2 .4.9-.2 1.5-.6 2.1-.3.2-.6.2-.8-.1 0 .1 0 .1 0 0z"></path><path fill="#414141" d="M398 86.4c.1-.4.4-.8.8-.6s.1.5-.2.6-.4.3-.6 0z"></path><path fill="#a1a1a1" d="m360.3 50.2.8.1c-.1.4-.3.8-.7.9-.1-.3-.3-.5-.6-.6l.5-.4z"></path><path fill="#a3a3a3" d="M398 86.4h.6c-.1.3-.1.6-.5.5l-.2.1-.2-.1.3-.5z"></path><path fill="#38a1fc" d="M365.2 46.8h.7c-.2.3-.4.5-.7.4s-.2-.3 0-.4zM380.5 49.9l.1-.7c.3.2.5.5.3.8-.1.2-.3.1-.4-.1z"></path><path fill="#fff" d="m477.5 6.5 1-.9c.4-.1.9-.1 1.3.3-.7.4-1.5.7-2.3.6z"></path><path fill="#515151" d="M447.4 3.5c0-.3-.3-.4-.5-.5.3-.4.7-.8 1.1-.3.2.4-.2.8-.6.8z"></path><path fill="#4a4a4a" d="m444.2 11.6.7.1c-.2.3-.5.5-.8.3-.1-.1-.1-.3.1-.4z"></path><path fill="#284b76" d="m400.1 291.6.5-.5c.4.5.9 1.1-.1 1.6l-.4-1.1z"></path><path fill="#010101" d="M80.7 310.7c0-1.1.3-2.3-.1-3.2-.5-1.1-2-.6-3-.9-3.3-.9-6.2-2.8-8.2-5.4-.4-.5-.9-1.1-.2-1.8s1.4-.2 1.9.4c1.8 2.3 4.2 3.9 7 4.6.6.1 1.1.2 1.7.3.7.1 1-.1 1.1-.9.3-4.3.6-8.5.9-12.8.2-.7-.3-1.4-1-1.6h-.1c-1.9-.5-3.7-1-5.6-1.5-4.8-1.4-5.6-4.1-2-7.7 2.3-2.4 5.3-4.2 8.5-5 1-.1 1.7-1 1.6-2v-4.6c0-.7 0-1.5.9-1.5s1.1.7 1.1 1.4c0 1.5.1 3 0 4.5-.1 1.2.4 1.5 1.6 1.6 3.7.1 7.3 1.8 9.6 4.8.4.4.7.9 1 1.4.3.5.2 1.2-.3 1.6-.7.4-1-.1-1.4-.6-1.8-2.9-4.8-4.8-8.2-5.1-2.3-.3-2.4-.2-2.6 2.1-.2 2.6-.3 5.2-.6 7.8-.3 1.3.3 2.6 1.6 3 1.8.8 3.5 2 4.9 3.4 2 1.9 3 4.6 2.5 7.3-.4 3.2-2.8 5.7-5.9 6.4-.7.2-1.5.3-2.2.4-2.2.4-2.2.3-2.3 2.7v3.8c0 .7-.2 1.4-1 1.5-1.1.1-1.1-.8-1.1-1.6-.1-1-.1-1.9-.1-2.8zM206 286c-1.5 0-3 .1-4.5 0-3-.2-3.9-2.3-2.3-4.7.9-1.2 2-2.2 3.4-3 2.9-1.8 6-3 9.3-3.6 1.4-.3 1.8-.8 1.8-2.1 0-1.5.2-3 .3-4.5.1-.7-.2-1.8.8-1.8s1.1 1.1 1.1 1.9c0 1.1-.1 2.2-.1 3.3-.1 2.5-.1 2.5 2.4 2.6 1.7 0 3.3.4 4.9 1.1.6.3 1.2.7 1.7 1.1.6.5.9 1.1.4 1.8-.6.8-1.1.2-1.6-.3-1-.9-2.3-1.4-3.6-1.5-4-.7-4.4-.4-4.6 3.7-.1 1.4-.5 2.9-.2 4.2.4 1.5 2.3 1.4 3.4 2.2 4.3 3.2 5.6 9.1 3.1 13.9-1.2 2.1-3.2 3.5-5.6 4-2.2.6-2.2.6-2.3 3-.1 2-.2 4-.4 6v.5c-.1.7-.4 1.4-1.2 1.3-.7-.1-.9-.7-.9-1.3.1-1.4.1-2.8.2-4.3 0-.6.1-1.2.2-1.8.1-3.3.3-2.8-2.7-3-2.1-.2-4.1-.7-6-1.6-.9-.4-1.8-1-2.4-1.8-.4-.4-.4-1.1 0-1.6.4-.4 1-.5 1.4-.1l.1.1c2.3 2.4 5.3 2.5 8.3 2.9 1.1.1 1.4-.3 1.5-1.4.1-3 .3-6 .4-9l.3-4.5c.1-1.1-.4-1.5-1.4-1.6l-5-.2-.2.1z"></path><path fill="#060606" d="M398.8 155.2c.5-2.7 1.2-5.4 2.2-8 1.4-4 3.1-7.9 5.1-11.7.4-.8.7-2.1 1.9-1.6s.4 1.6 0 2.3c-2.9 6.1-5.6 12.3-6.9 19 0 .2-.1.3-.1.5-.2.7-.6 1.3-1.4 1.1s-1-.9-.8-1.6z"></path><path fill="#fff" d="M362.2 165.6c.2 1.9-.5 3.8-1.9 5.1-2.3 2.3-4.4 4.7-6.9 7.3-.6-2.3-1.3-4.4-1.8-6.6-.4-1.5.4-2.9.7-4.4 0-.3.3-.6.6-.7 3.2-.4 6.2-.6 9.3-.7zM353.4 164c.9-2.7 1.7-4.9 2.5-7.2.3-.8.6-1.3 1.5-1.4 1.9-.1 3.7-.8 5.8-.7 0 2.6-.4 5.1-.7 7.7 0 .5-.4.9-.9.9h-.1c-2.5.2-5.2.4-8.1.7z"></path><path fill="#4b8fe1" d="m323.6 186.6.2-.2-.2.2z"></path><path fill="#040404" d="M376.9 56.2c1.4 0 2.8.4 4.1 1 .6.3 1 .8.6 1.4-.3.5-.7.5-1.3.4-2.9-.5-3-.3-3.7 2.4-.1.6-.3 1.2-.9 1.4-.7.2-1.4-.1-1.8-.7-1.1-1.1-1.4-2.7-.9-4.1.7-1.7 2.3-1.8 3.9-1.8z"></path><path fill="#ffd574" d="M84.1 291c2.2.9 4.1 2.3 5.7 4 3.1 3.7 1.4 8.7-3.3 9.7-3.5.7-3.5 1.1-3.2-2.8.2-3.6.3-7.1.8-10.9zM82.8 277.1c.1 3.6-.4 6.9-.7 10.5-2.6-.7-5-1.3-7.4-2-1.8-.6-2.1-1.5-.8-2.9 2.3-2.9 5.4-4.8 8.9-5.6zM213.9 302.2c.3-5 .2-10 .8-14.9 3.9 1.1 6.5 5 5.8 9-.4 3.6-2.8 5.7-6.6 5.9zM200.8 283.5c1.4-3 6.3-5.7 12.3-6.8.1 2.2 0 4.5-.4 6.6 0 .5-.3.8-.8.7-3.5-.6-7 0-10.5-.2-.2 0-.4-.2-.6-.3z"></path></g></svg>